<svg xmlns="http://www.w3.org/2000/svg"><defs><font id="Poppins-SemiBold" horiz-adv-x="309"><font-face font-family="Poppins SemiBold" font-weight="600" panose-1="0 0 7 0 0 0 0 0 0 0" ascent="800" descent="-200" x-height="554" cap-height="698" bbox="-543 -593 2510 1091" underline-thickness="50" underline-position="-150" unicode-range="U+000D-FB02"/><glyph glyph-name=".notdef" horiz-adv-x="500" d="M0 700h500V0H0v700zm420-50H80l170-255zM50 95l170 255L50 605V95zm400 0v510L280 350zm-30-45L250 305 80 50h340z"/><glyph glyph-name=".null" horiz-adv-x="0"/><glyph glyph-name="nonmarkingreturn" horiz-adv-x="333"/><glyph glyph-name="NULL" horiz-adv-x="0"/><glyph glyph-name="NULL" horiz-adv-x="0"/><glyph glyph-name="CR" horiz-adv-x="238"/><glyph glyph-name="space" horiz-adv-x="238"/><glyph glyph-name="exclam" unicode="!" horiz-adv-x="354" d="m250 710-16-483H116L99 710h151zM115.5 16.5Q91 40 91 75t24.5 58.5T178 157q37 0 61-23.5T263 75t-24-58.5T178-7q-38 0-62.5 23.5z"/><glyph glyph-name="quotedbl" unicode="&quot;" horiz-adv-x="364" d="m157 798-12-212H50L37 798h120zm170 0-13-212h-95l-13 212h121z"/><glyph glyph-name="numbersign" unicode="#" horiz-adv-x="887" d="m684 449-33-154h127V170H624L588 0H455l36 170H309L273 0H141l36 170H26v125h178l33 154H87v125h177l35 166h132l-35-166h182l35 166h133l-35-166h128V449H684zm-133 0H369l-33-154h182z"/><glyph glyph-name="dollar" unicode="$" horiz-adv-x="654" d="M540.5 103.5q-26.5-45.5-78-75T341-6v-81h-64v82Q177 4 116 55.5T53 195h150q6-72 74-87v191q-72 18-116 36t-76 58-32 109q0 87 62.5 142T277 707v81h64v-81q96-8 153.5-58T559 511H408q-3 29-20.5 50.5T341 592V403q75-19 118.5-36.5t75.5-57T567 201q0-52-26.5-97.5zM219 455.5q20-20.5 58-33.5v173q-36-5-57-27t-21-59q0-33 20-53.5zM400.5 137q21.5 24 21.5 58 0 33-21 53t-60 33V106q38 7 59.5 31z"/><glyph glyph-name="percent" unicode="%" horiz-adv-x="829" d="M81.5 669Q126 712 196 712t114.5-43T355 550q0-77-44.5-120T196 387 81.5 430 37 550q0 76 44.5 119zM679 700 286 0H150l392 700h137zM140 550q0-79 55-79 27 0 42 19.5t15 59.5q0 78-57 78-55 0-55-78zm380.5-279.5Q565 313 635 313t113.5-42.5T792 151 748.5 31 635-12q-71 0-115 43t-44 120 44.5 119.5zM577 151q0-79 57-79 56 0 56 79 0 78-56 78-57 0-57-78z"/><glyph glyph-name="ampersand" unicode="&amp;" horiz-adv-x="778" d="m606 0-76 75q-97-87-237-87-77 0-135.5 26.5T67 89.5 35 202q0 69 39 124t115 89q-27 33-39 63.5T138 544q0 48 25 86.5t71.5 60.5T343 713q63 0 108-24t67-64 19-89H401q1 33-16 50.5T339 604q-28 0-46.5-16.5T274 545q0-25 15-49.5t49-60.5l176-174q2 2 3 4l2 4 57 95h146l-70-123q-20-39-43-74L778 0H606zM442 162 270 332q-97-43-97-122 0-45 34-75.5t90-30.5q82 0 145 58z"/><glyph glyph-name="quotesingle" unicode="'" horiz-adv-x="195" d="m157 798-12-212H50L37 798h120z"/><glyph glyph-name="parenleft" unicode="(" horiz-adv-x="485" d="M160.5 43Q107 189 107 356q0 171 56 321.5T326 924h141v-13Q357 806 299.5 659T242 356q0-152 54.5-293.5T452-183v-14H311q-97 94-150.5 240z"/><glyph glyph-name="parenright" unicode=")" horiz-adv-x="485" d="M33-197v14Q134-79 188.5 62.5T243 356q0 156-57.5 303T18 911v13h141q107-96 163-246.5T378 356q0-167-53.5-313T174-197H33z"/><glyph glyph-name="asterisk" unicode="*" horiz-adv-x="518" d="m399 686 50-90-130-47 130-47-52-93-108 89 23-138H208l22 138-107-91-55 96 130 47-129 45 51 92 111-88-23 139h105l-24-139z"/><glyph glyph-name="plus" unicode="+" horiz-adv-x="674" d="M592 295H403V101H271v194H82v122h189v194h132V417h189V295z"/><glyph glyph-name="comma" unicode="," horiz-adv-x="254" d="M222 147 105-134H15l65 281h142z"/><glyph glyph-name="hyphen" unicode="-" horiz-adv-x="583" d="M495 416V298H71v118h424z"/><glyph glyph-name="period" unicode="." horiz-adv-x="260" d="M68.5 16.5Q44 40 44 75t24.5 58.5T131 157q37 0 61-23.5T216 75t-24-58.5T131-7Q93-7 68.5 16.5z"/><glyph glyph-name="slash" unicode="/" horiz-adv-x="486" d="M444 947 174-181H37L307 947h137z"/><glyph glyph-name="zero" unicode="0" horiz-adv-x="646" d="M115.5 645Q178 743 323 743t207.5-98T593 374q0-174-62.5-273T323 2t-207.5 99T53 374q0 173 62.5 271zm330-146.5q-9.5 50.5-38 82.5T323 613t-84.5-32-38-82.5T191 374q0-76 9-127.5t38-83 85-31.5 85 31.5 38 83 9 127.5q0 74-9.5 124.5z"/><glyph glyph-name="one" unicode="1" horiz-adv-x="362" d="M36 600v129h241V0H133v600H36z"/><glyph glyph-name="two" unicode="2" horiz-adv-x="574" d="M97 158q96 80 153 133.5T345 403t38 114q0 51-24 80t-74 29-77-33.5-28-91.5H44q4 120 71.5 182T287 745q114 0 175-60.5T523 525q0-78-42-149t-96-123.5T244 126h295V10H45v104z"/><glyph glyph-name="three" unicode="3" horiz-adv-x="599" d="M125.5 691.5Q191 746 298 746q73 0 125-25.5t78.5-69T528 553q0-63-32.5-106.5T418 388v-4q58-18 90.5-64T541 202q0-60-27.5-107t-81-73.5T304-5Q191-5 120 52T45 220h136q2-49 33.5-78.5T301 112q51 0 78.5 28.5T407 214q0 60-38 86t-118 26h-29v115h29q142 0 142 95 0 43-25.5 67T294 627q-47 0-72.5-25.5T192 537H55q5 100 70.5 154.5z"/><glyph glyph-name="four" unicode="4" horiz-adv-x="661" d="M47 142v110l327 468h163V264h88V142h-88V0H397v142H47zm359 428L201 264h205v306z"/><glyph glyph-name="five" unicode="5" horiz-adv-x="644" d="M543 608H219V437q21 26 60 42.5t83 16.5q80 0 131-35t74-89.5T590 255q0-115-65.5-185T338 0Q224 0 156 57T79 206h136q9-40 40.5-64t80.5-24q59 0 89 37t30 98q0 62-30.5 94.5T335 380q-42 0-70-21t-40-56H91v428h452V608z"/><glyph glyph-name="six" unicode="6" horiz-adv-x="640" d="M396.5 610Q372 631 326 631q-69 0-101.5-55.5T191 395q24 40 70 62.5T361 480q65 0 115-28t78-81.5T582 242q0-71-28.5-126.5T470 29 339-2Q235-2 175.5 44t-83 128.5T69 376q0 183 63 276.5T331 746q105 0 163-57t67-142H431q-10 42-34.5 63zM240 334q-36-31-36-90t33.5-93 94.5-34q54 0 85.5 33t31.5 89q0 58-30.5 92T329 365q-53 0-89-31z"/><glyph glyph-name="seven" unicode="7" horiz-adv-x="548" d="M517 623 251 0H109l268 607H35v120h482V623z"/><glyph glyph-name="eight" unicode="8" horiz-adv-x="643" d="M75 547q0 54 27.5 98.5t83 71T321 743t135.5-26.5 83-71T567 547q0-55-27-96.5T468 386q55-24 86-70t31-109q0-68-34.5-118.5T456 11 321-16 186.5 11t-94 77.5T58 207q0 63 31 109.5t86 69.5Q75 438 75 547zm326.5 56Q372 630 321 630q-50 0-79.5-27T212 526q0-45 30.5-72t78.5-27 79 27.5 31 72.5q0 49-29.5 76zm-173-307Q193 267 193 213q0-50 34.5-81.5T321 100t93 32 34 81q0 53-35 82.5T321 325t-92.5-29z"/><glyph glyph-name="nine" unicode="9" horiz-adv-x="626" d="M251.5 137.5Q280 114 328 114q62 0 90 51.5T446 339q-23-32-64.5-50T292 271q-64 0-115.5 26.5t-81.5 79T65 504q0 111 66 176.5T311 746q142 0 200.5-91T570 381q0-130-22.5-213t-77-126T322-1q-74 0-126 28.5t-79.5 75T85 205h130q8-44 36.5-67.5zM403 417q30 32 30 86 0 59-31.5 91.5T316 627t-85.5-33.5T199 505q0-53 30.5-86.5T321 385q52 0 82 32z"/><glyph glyph-name="colon" unicode=":" horiz-adv-x="263" d="M68.5 16.5Q44 40 44 75t24.5 58.5T131 157q37 0 61-23.5T216 75t-24-58.5T131-7Q93-7 68.5 16.5zm0 414Q44 454 44 489t24.5 58.5T131 571q37 0 61-23.5t24-58.5-24-58.5-61-23.5q-38 0-62.5 23.5z"/><glyph glyph-name="semicolon" unicode=";" horiz-adv-x="324" d="M93.5 426.5Q69 450 69 485t24.5 58.5T156 567q37 0 61-23.5t24-58.5-24-58.5-61-23.5q-38 0-62.5 23.5zM248 147 131-134H41l65 281h142z"/><glyph glyph-name="less" unicode="&lt;" horiz-adv-x="584" d="M297 132 79 356l218 224h176L255 356l218-224H297z"/><glyph glyph-name="equal" unicode="=" horiz-adv-x="738" d="M641 537V415H96v122h545zm0-240V175H96v122h545z"/><glyph glyph-name="greater" unicode="&gt;" horiz-adv-x="567" d="M89 580h177l218-224-218-224H89l219 224z"/><glyph glyph-name="question" unicode="?" horiz-adv-x="538" d="M431.5 665.5Q495 609 495 510q0-98-63-149.5T265 309l-4-77H138l-5 170h45q87 0 134 23t47 84q0 44-25.5 70T264 605q-46 0-71.5-25T167 511H35q-1 61 26 109t79.5 75T264 722q104 0 167.5-56.5zm-295-649Q112 40 112 75t24.5 58.5T199 157q37 0 61-23.5T284 75t-24-58.5T199-7q-38 0-62.5 23.5z"/><glyph glyph-name="at" unicode="@" horiz-adv-x="1051" d="M803 613q85-43 130.5-121T979 312q0-82-28.5-155T868 39 740-6q-52 0-84 21.5T615 77q-29-39-75-61.5T443-7q-76 0-119 45.5T281 163q0 75 31 140t86 104.5T522 447q86 0 118-60l9 52h117l-47-270q-3-19-3-35 0-24 10-36t34-12q36 0 60.5 34t37 85T870 307q0 121-74 187.5T587 561q-115 0-208-55.5t-145.5-151T181 142q0-124 73.5-191T463-116q97 0 171 35l20-92q-95-40-211-40-112 0-196 42.5T117-50 71 131q0 147 68.5 267t190 189T602 656q116 0 201-43zM553 118q30 21 47.5 56t17.5 75q0 42-23 68t-64 26q-37 0-65-22.5T422.5 262 407 186q0-41 20-65t60-24q36 0 66 21z"/><glyph glyph-name="A" unicode="A" horiz-adv-x="716" d="M497 133H219L173 0H26l251 699h163L691 0H543zm-38 112L358 537 257 245h202z"/><glyph glyph-name="B" unicode="B" horiz-adv-x="643" d="M562 299q38-48 38-110 0-56-27.5-98.5T493 24 370 0H69v698h288q71 0 122.5-23t78-64 26.5-93q0-61-32.5-102T465 358q59-11 97-59zM209 410h128q50 0 77 22.5t27 64.5-27 65-77 23H209V410zm220.5-272q28.5 24 28.5 68 0 45-30 70.5T347 302H209V114h141q51 0 79.5 24z"/><glyph glyph-name="C" unicode="C" horiz-adv-x="768" d="M81.5 534.5q46.5 81.5 127 127T389 707q117 0 205-60t123-166H556q-24 50-67.5 75T388 581q-61 0-108.5-28.5t-74-80.5T179 350q0-69 26.5-121.5t74-81T388 119q57 0 100.5 25.5T556 220h161Q682 113 594.5 53.5T389-6Q289-6 208.5 39.5T81.5 166 35 350t46.5 184.5z"/><glyph glyph-name="D" unicode="D" horiz-adv-x="717" d="M506.5 655q83.5-43 129-122.5T681 348t-45.5-183.5T506.5 43 313 0H69v698h244q110 0 193.5-43zM478 179q60 60 60 169t-60 170.5T308 580h-99V119h99q110 0 170 60z"/><glyph glyph-name="E" unicode="E" horiz-adv-x="532" d="M209 585V410h235V299H209V114h265V0H69v699h405V585H209z"/><glyph glyph-name="F" unicode="F" horiz-adv-x="530" d="M500 698V585H209V406h223V295H209V0H69v698h431z"/><glyph glyph-name="G" unicode="G" horiz-adv-x="768" d="M555 488q-24 44-66 67t-98 23q-62 0-110-28t-75-80-27-120q0-70 27.5-122t76.5-80 114-28q80 0 131 42.5T595 281H355v107h378V266q-14-73-60-135T554.5 31.5 392-6Q291-6 209.5 39.5T81.5 166 35 350t46.5 184.5 128 127T391 707q118 0 205-57.5T716 488H555z"/><glyph glyph-name="H" unicode="H" horiz-adv-x="717" d="M648 698V0H508v297H209V0H69v698h140V411h299v287h140z"/><glyph glyph-name="I" unicode="I" horiz-adv-x="278" d="M209 698V0H69v698h140z"/><glyph glyph-name="J" unicode="J" horiz-adv-x="570" d="M476 698V208q0-102-59-158.5T259-7Q159-7 97.5 51T36 213h140q1-45 21.5-70t59.5-25q38 0 58 24t20 66v490h141z"/><glyph glyph-name="K" unicode="K" horiz-adv-x="663" d="M463 0 209 311V0H69v698h140V385l254 313h169L344 352 640 0H463z"/><glyph glyph-name="L" unicode="L" horiz-adv-x="459" d="M209 111h230V0H69v698h140V111z"/><glyph glyph-name="M" unicode="M" horiz-adv-x="899" d="M830 698V0H690v454L503 0H397L209 454V0H69v698h159l222-519 222 519h158z"/><glyph glyph-name="N" unicode="N" horiz-adv-x="735" d="M666 0H526L209 479V0H69v699h140l317-480v480h140V0z"/><glyph glyph-name="O" unicode="O" horiz-adv-x="785" d="M213 39Q131 85 83 166.5T35 351q0 102 48 183.5T213 662t180 46q99 0 180.5-46t129-127.5T750 351q0-103-47.5-184.5T573 39 393-7 213 39zm291 107.5q48 28.5 75 81.5t27 123-27 122.5-75 80.5-111 28-111.5-28-75.5-80.5T179 351t27-123 75.5-81.5T393 118t111 28.5z"/><glyph glyph-name="P" unicode="P" horiz-adv-x="608" d="M551.5 377q-26.5-49-83-79T326 268H209V0H69v698h257q81 0 138-28t85.5-77T578 482q0-56-26.5-105zM406 407.5q28 26.5 28 74.5 0 102-114 102H209V381h111q58 0 86 26.5z"/><glyph glyph-name="Q" unicode="Q" horiz-adv-x="787" d="M589-123 483 4Q439-7 393-7q-98 0-180 46T83 166.5 35 351q0 102 48 183.5T213 662t180 46q99 0 180.5-46t129-127.5T750 351q0-93-39.5-169.5T603 57l160-180H589zM206 228q27-53 75.5-81.5T393 118t111 28.5 75 81.5 27 123-27 122.5-75 80.5-111 28-111.5-28-75.5-80.5T179 351t27-123z"/><glyph glyph-name="R" unicode="R" horiz-adv-x="641" d="M429 0 275 272h-66V0H69v698h262q81 0 138-28.5t85.5-77T583 484q0-69-40-124.5T424 283L591 0H429zM209 377h117q57 0 85 27.5t28 76.5q0 48-28 74.5T326 582H209V377z"/><glyph glyph-name="S" unicode="S" horiz-adv-x="609" d="M178.5 18Q120 43 86 90T51 201h150q3-43 30.5-68t75.5-25q49 0 77 23.5t28 61.5q0 31-19 51t-47.5 31.5T267 301q-68 20-110.5 39.5t-73 59T53 505q0 62 31 108t87 70.5T299 708q108 0 175.5-52.5T549 509H395q-2 36-30.5 59.5T289 592q-41 0-65.5-21T199 510q0-28 18.5-46.5t46-30T341 407q68-20 111-40t74-60 31-105q0-56-29-104t-85-76.5T310-7q-73 0-131.5 25z"/><glyph glyph-name="T" unicode="T" horiz-adv-x="577" d="M544 698V585H358V0H218v585H32v113h512z"/><glyph glyph-name="U" unicode="U" horiz-adv-x="697" d="M207 698V266q0-71 37-108.5T348 120q68 0 105 37.5T490 266v432h141V267q0-89-38.5-150.5T489.5 24 346-7q-78 0-141.5 31T104 116.5 67 267v431h140z"/><glyph glyph-name="V" unicode="V" horiz-adv-x="711" d="M696 698 440 0H270L14 698h150l192-555 191 555h149z"/><glyph glyph-name="W" unicode="W" horiz-adv-x="1024" d="M1002 698 807 0H642L511 497 374 0 210-1 22 698h150l123-542 142 542h156l134-539 124 539h151z"/><glyph glyph-name="X" unicode="X" horiz-adv-x="686" d="M487 0 336 235 199 0H41l220 352L38 698h161l151-234 136 234h158L425 347 648 0H487z"/><glyph glyph-name="Y" unicode="Y" horiz-adv-x="636" d="M624 698 388 243V0H248v243L11 698h158l150-319 149 319h156z"/><glyph glyph-name="Z" unicode="Z" horiz-adv-x="576" d="M212 118h314V0H50v108l312 472H50v118h476V590z"/><glyph glyph-name="bracketleft" unicode="[" horiz-adv-x="497" d="M386 924V810H267V-81h119v-116H135V924h251z"/><glyph glyph-name="backslash" unicode="\" horiz-adv-x="756" d="M458-181 173 947h136L595-181H458z"/><glyph glyph-name="bracketright" unicode="]" horiz-adv-x="496" d="M361-197H110v116h119v891H110v114h251V-197z"/><glyph glyph-name="asciicircum" unicode="^" horiz-adv-x="680" d="M176 167H33l240 533h134l240-533H503L341 534z"/><glyph glyph-name="underscore" unicode="_" horiz-adv-x="790" d="M694-40v-133H107v133h587z"/><glyph glyph-name="grave" unicode="`" horiz-adv-x="271" d="M240 693V593L10 698v114z"/><glyph glyph-name="a" unicode="a" horiz-adv-x="678" d="M66.5 428q33.5 65 91 100T286 563q62 0 108.5-25t74.5-63v79h141V0H469v81q-27-39-74.5-64.5T285-9q-70 0-127.5 36t-91 101.5T33 279q0 84 33.5 149zM449 364.5q-20 36.5-54 56T322 440t-72-19-53.5-55.5T176 279t20.5-87.5 54-57.5 71.5-20q39 0 73 19.5t54 56 20 87.5-20 87.5z"/><glyph glyph-name="b" unicode="b" horiz-adv-x="678" d="M283.5 538Q331 563 392 563q71 0 128.5-35t91-99.5T645 279t-33.5-150.5-91-101.5T392-9q-62 0-108.5 24.5T209 79V0H69v740h140V473q27 40 74.5 65zm198-172.5Q461 402 427.5 421T355 440q-38 0-71.5-19.5t-54-56.5-20.5-87 20.5-87 54-56.5T355 114q39 0 72.5 20t54 57 20.5 88q0 50-20.5 86.5z"/><glyph glyph-name="c" unicode="c" horiz-adv-x="602" d="M68 427.5q35 64.5 97 100T307 563q103 0 170.5-51.5T568 367H417q-12 36-40.5 56.5T306 444q-60 0-95-43.5T176 277q0-79 35-122.5t95-43.5q85 0 111 76h151q-23-90-91-143T307-9q-80 0-142 35.5t-97 100T33 277t35 150.5z"/><glyph glyph-name="d" unicode="d" horiz-adv-x="678" d="M66.5 428Q100 493 158 528t129 35q54 0 103-23.5t78-62.5v263h142V0H468v82q-26-41-73-66T286-9q-70 0-128 36T66.5 128.5 33 279q0 84 33.5 149zM449 364.5q-20 36.5-54 56T322 440t-72-19-53.5-55.5T176 279t20.5-87.5 54-57.5 71.5-20q39 0 73 19.5t54 56 20 87.5-20 87.5z"/><glyph glyph-name="e" unicode="e" horiz-adv-x="617" d="M580 235H175q5-60 42-94t91-34q78 0 111 67h151q-24-80-92-131.5T311-9q-80 0-143.5 35.5T68.5 127 33 277q0 86 35 151t98 100 145 35q79 0 141.5-34t97-96.5T584 289q0-30-4-54zm-141 94q-1 54-39 86.5T307 448q-52 0-87.5-31.5T176 329h263z"/><glyph glyph-name="f" unicode="f" horiz-adv-x="345" d="M323 439h-97V0H84v439H21v115h63v28q0 102 58 150t175 45V659q-51 1-71-17t-20-65v-23h97V439z"/><glyph glyph-name="g" unicode="g" horiz-adv-x="678" d="M395 538.5q47-24.5 74-63.5v79h141V-4q0-77-31-137.5t-93-96T336-273q-118 0-193.5 55T57-68h139q11-38 47.5-60.5T332-151q61 0 99 36.5T469-4v86q-27-39-74.5-65T286-9q-70 0-128 36T66.5 128.5 33 279q0 84 33.5 149t91 100T286 563q62 0 109-24.5zm54-174q-20 36.5-54 56T322 440t-72-19-53.5-55.5T176 279t20.5-87.5 54-57.5 71.5-20q39 0 73 19.5t54 56 20 87.5-20 87.5z"/><glyph glyph-name="h" unicode="h" horiz-adv-x="661" d="M493 534.5q49-27.5 76.5-81T597 325V0H457v306q0 66-33 101.5T334 443q-58 0-91.5-35.5T209 306V0H69v740h140V485q27 36 72 56.5T381 562q63 0 112-27.5z"/><glyph glyph-name="i" unicode="i" horiz-adv-x="278" d="M78.5 643.5Q54 667 54 702t24.5 58.5T140 784t61.5-23.5T226 702t-24.5-58.5T140 620t-61.5 23.5zM209 554V0H69v554h140z"/><glyph glyph-name="j" unicode="j" horiz-adv-x="278" d="M77.5 643.5Q53 667 53 702t24.5 58.5T140 784q37 0 61-23.5t24-58.5-24-58.5-61-23.5q-38 0-62.5 23.5zM209-91q0-92-45.5-132.5T33-264h-62v119h40q32 0 45 12.5T69-92v646h140V-91z"/><glyph glyph-name="k" unicode="k" horiz-adv-x="584" d="M397 0 209 236V0H69v740h140V319l186 235h182L333 276 579 0H397z"/><glyph glyph-name="l" unicode="l" horiz-adv-x="278" d="M209 740V0H69v740h140z"/><glyph glyph-name="m" unicode="m" horiz-adv-x="1048" d="M921.5 499.5Q984 437 984 325V0H844v306q0 65-33 99.5T721 440t-90.5-34.5T597 306V0H457v306q0 65-33 99.5T334 440q-58 0-91.5-34.5T209 306V0H69v554h140v-67q27 35 69.5 55t93.5 20q65 0 116-27.5t79-78.5q27 48 78.5 77T757 562q102 0 164.5-62.5z"/><glyph glyph-name="n" unicode="n" horiz-adv-x="661" d="M536 499.5Q597 437 597 325V0H457v306q0 66-33 101.5T334 443q-58 0-91.5-35.5T209 306V0H69v554h140v-69q28 36 71.5 56.5T376 562q99 0 160-62.5z"/><glyph glyph-name="o" unicode="o" horiz-adv-x="638" d="M171 26.5Q107 62 70.5 127T34 277t37.5 150T174 527.5 319 563t145-35.5T566.5 427 604 277t-38.5-150-104-100.5T315-9q-80 0-144 35.5zm215.5 105Q420 150 440 187t20 90q0 79-41.5 121.5T317 441t-100.5-42.5T176 277t39.5-121.5T315 113q38 0 71.5 18.5z"/><glyph glyph-name="p" unicode="p" horiz-adv-x="678" d="M283.5 537.5Q331 563 392 563q71 0 128.5-35t91-99.5T645 279t-33.5-150.5-91-101.5T392-9q-61 0-107.5 25T209 79v-343H69v818h140v-80q27 38 74.5 63.5zm198-172Q461 402 427.5 421T355 440q-38 0-71.5-19.5t-54-56.5-20.5-87 20.5-87 54-56.5T355 114q39 0 72.5 20t54 57 20.5 88q0 50-20.5 86.5z"/><glyph glyph-name="q" unicode="q" horiz-adv-x="678" d="M67.5 425.5Q102 490 161 526t130 36q59 0 104.5-22.5T469 482v72h141v-818H469V76q-28-36-75-60T288-8q-70 0-128.5 36.5T67 130 33 278t34.5 147.5zM448 365q-21 37-54.5 56T322 440q-37 0-70.5-19T197 365.5 176 278t21-88.5 54.5-56.5 70.5-19q38 0 71.5 19t54.5 56 21 88-21 88z"/><glyph glyph-name="r" unicode="r" horiz-adv-x="404" d="M279.5 537q43.5 25 99.5 25V415h-37q-66 0-99.5-31T209 276V0H69v554h140v-86q27 44 70.5 69z"/><glyph glyph-name="s" unicode="s" horiz-adv-x="545" d="M159 15.5Q105 40 73.5 82T39 175h141q4-32 31.5-53t68.5-21q40 0 62.5 16t22.5 41q0 27-27.5 40.5T250 228q-62 15-101.5 31t-68 49T52 397q0 46 26.5 84t76 60T271 563q99 0 158-49.5T494 380H360q-3 33-27.5 52.5T267 452q-38 0-58.5-14T188 399q0-28 28-42.5t87-29.5q60-15 99-31t67.5-49.5T499 158q0-48-26.5-86t-76-59.5T281-9q-68 0-122 24.5z"/><glyph glyph-name="t" unicode="t" horiz-adv-x="388" d="M232 439V171q0-28 13.5-40.5T291 118h65V0h-88Q91 0 91 172v267H25v115h66v137h141V554h124V439H232z"/><glyph glyph-name="u" unicode="u" horiz-adv-x="661" d="M592 554V0H451v70q-27-36-70.5-56.5T286-7q-65 0-115 27.5t-78.5 81T64 229v325h140V249q0-66 33-101.5t90-35.5q58 0 91 35.5T451 249v305h141z"/><glyph glyph-name="v" unicode="v" horiz-adv-x="599" d="m300 129 140 425h149L384 0H214L10 554h150z"/><glyph glyph-name="w" unicode="w" horiz-adv-x="844" d="M837 554 675 0H524L423 387 322 0H170L7 554h142l98-422 106 422h148l104-421 98 421h134z"/><glyph glyph-name="x" unicode="x" horiz-adv-x="540" d="M375 0 261 172 160 0H10l181 278L8 554h158l113-171 102 171h150L349 278 533 0H375z"/><glyph glyph-name="y" unicode="y" horiz-adv-x="605" d="M599 554 256-262H107L227 14 5 554h157l143-387 145 387h149z"/><glyph glyph-name="z" unicode="z" horiz-adv-x="483" d="M197 115h247V0H38v113l242 326H39v115h402V441z"/><glyph glyph-name="braceleft" unicode="{" horiz-adv-x="508" d="M110 418q48 4 72.5 26t24.5 59q0 42-9 121-10 94-10 137 0 78 46.5 121.5T358 926h69V808h-42q-62 0-62-59 0-28 8-112 1-10 5-56.5t4-82.5q0-53-26-88t-79-45v-2q53-11 79-45.5t26-88.5q0-34-4-80.5T331 90q-8-84-8-111 0-31 15-45t47-14h42v-119h-69q-77 0-123.5 43.5T188-34q0 44 10 138 9 79 9 120 0 37-24.5 59T110 309v109z"/><glyph glyph-name="bar" unicode="|" d="M225-121H84v929h141v-929z"/><glyph glyph-name="braceright" unicode="}" horiz-adv-x="508" d="M325.5 283Q301 261 301 224q0-41 9-120 10-94 10-138 0-78-46.5-121.5T150-199H81v119h42q32 0 47 14t15 45q0 27-8 111-1 12-5 58.5t-4 80.5q0 54 26 88.5t79 45.5v2q-53 10-79 45t-26 88q0 36 4 82.5t5 56.5q8 84 8 112 0 59-62 59H81v118h69q77 0 123.5-43.5T320 761q0-43-10-137-9-79-9-121 0-37 24.5-59t72.5-26V309q-48-4-72.5-26z"/><glyph glyph-name="asciitilde" unicode="~" horiz-adv-x="592" d="M95 367q46 46 115 46 30 0 54.5-9.5T317 376q23-14 39.5-21t34.5-7q26 0 43.5 16t21.5 48h104q-17-97-63.5-143T381 223q-30 0-53.5 9.5T275 260q-25 14-40.5 21t-33.5 7q-26 0-44-16.5T134 224H32q17 97 63 143z"/><glyph glyph-name="uni00A0" horiz-adv-x="238"/><glyph glyph-name="exclamdown" unicode="¡" horiz-adv-x="354" d="M239 545.5q24-23.5 24-58.5t-24-58.5-61-23.5q-38 0-62.5 23.5T91 487t24.5 58.5T178 569q37 0 61-23.5zM116 335h118l16-483H99z"/><glyph glyph-name="cent" unicode="¢" horiz-adv-x="663" d="M395.5 129.5Q424 148 434 182h130q-7-76-65.5-126T352-2v-85h-64v85Q177 8 116 79T55 258t61 179 172 81v85h64v-85q88-8 146.5-58T564 334H434q-23 71-112 71-62 0-98-39t-36-108 36-108 98-39q45 0 73.5 18.5z"/><glyph glyph-name="sterling" unicode="£" horiz-adv-x="654" d="M572 109V-3H87L65 69q45 44 66 89.5T152 272q0 7-2 23H39v96h83q-20 68-20 123 0 68 29.5 117.5T214 707t122 26q111 0 169.5-61.5T567 514H438q-1 48-25 75.5T338 617q-47 0-74.5-28T236 503q0-26 5.5-51.5T258 391h188v-96H283q2-16 2-24 0-43-16.5-85.5T218 109h354z"/><glyph glyph-name="currency" unicode="¤" horiz-adv-x="561" d="m445 272 56-56-57-58-63 62q-46-22-101-22-56 0-100 22l-62-62-58 58 57 57q-31 43-31 104t32 106l-58 58 58 58 64-64q42 21 99 21t99-21l64 64 57-58-56-57q33-44 33-107 0-59-33-105zm-105.5 35q24.5 25 24.5 70 0 46-24 71t-59 25-59-25-24-71 23.5-70.5T280 282t59.5 25z"/><glyph glyph-name="yen" unicode="¥" horiz-adv-x="636" d="M474 409h114v-97l-165-2-35-67v-9h200v-97H388V0H248v137H48v97h200v9l-35 68-165 1v97h114L11 698h158l149-326 148 326h158z"/><glyph glyph-name="brokenbar" unicode="¦" horiz-adv-x="350" d="M105 808h140V409H105v399zm140-929H105v399h140v-399z"/><glyph glyph-name="section" unicode="§" horiz-adv-x="582" d="M512-46q0-48-26.5-87t-77-62T290-218q-97 0-156 47.5T73-42h140q6-78 78-78 38 0 59 16.5T371-56q0 22-13.5 38.5t-46 33T216 57q-91 36-135.5 79.5T36 244q0 52 28 92t86 63q-80 54-80 135 0 48 26.5 87t77 62T292 706q97 0 156-47.5T509 530H369q-2 38-21.5 58T291 608q-38 0-59-16.5T211 544q0-22 13.5-38.5t46-33T366 431q91-36 135.5-79.5T546 244q0-105-114-155 80-54 80-135zM213 178.5q30-26.5 79-26.5t78.5 26.5T400 244t-30 65.5-79 26.5-78.5-26.5T183 244t30-65.5z"/><glyph glyph-name="dieresis" unicode="¨" horiz-adv-x="338" d="M29 639q-19 19-19 47t19 47.5T76 753t47.5-19.5T143 686t-19.5-47T76 620t-47 19zm185 0q-19 19-19 47t19 47.5 47 19.5 47.5-19.5T328 686t-19.5-47-47.5-19-47 19z"/><glyph glyph-name="copyright" unicode="©" horiz-adv-x="785" d="M574.5 662.5q79.5-45.5 124-127T743 350t-44.5-185.5-124-127T393-8Q290-8 210.5 37.5t-124 127T42 350t44.5 185.5 124 127T393 708q102 0 181.5-45.5zm-338.5-43q-67-37.5-103-107T97 350q0-92 36-161.5t103-108T393 42q89 0 156 38.5t103 108T688 350q0 93-36 162.5t-102.5 107T393 657t-157-37.5zm43-69.5q-50-28-78.5-79.5T172 351t28.5-120 78.5-80 113-28q77 0 133 42.5T598 278H475q-11-28-31.5-43T389 220q-46 0-72.5 33.5T290 351t26.5 97 72.5 33q32 0 54.5-15t31.5-43h123q-17 72-72.5 113.5T392 578q-63 0-113-28z"/><glyph glyph-name="ordfeminine" unicode="ª" horiz-adv-x="462" d="M50.5 624Q73 665 111 687.5t84 22.5q82 0 123-52v46h108V353H318v45q-18-23-48.5-36.5T198 348q-47 0-86 23t-61.5 64.5T28 530t22.5 94zm115-166q26.5-26 63.5-26t63 26 26 71-26 71-63 26-63.5-26-26.5-71 26.5-71z"/><glyph glyph-name="guillemotleft" unicode="«" horiz-adv-x="521" d="M133 120 45 295l88 175h133l-92-175 92-175H133zm208 0-89 175 89 175h132l-92-175 92-175H341z"/><glyph glyph-name="logicalnot" unicode="¬" horiz-adv-x="681" d="M631 438V195H491v135H41v108h590z"/><glyph glyph-name="uni00AD" unicode="­" horiz-adv-x="583" d="M495 416V298H71v118h424z"/><glyph glyph-name="registered" unicode="®" horiz-adv-x="516" d="M367.5 682q48.5-27 75.5-75.5T470 496q0-61-27-109t-75.5-75.5T258 284t-109.5 27.5-76 75.5T45 496q0 62 27.5 110.5t76 75.5T258 709t109.5-27zm6-302.5Q417 424 417 496q0 73-43.5 117.5T258 658t-115-44.5T100 496t43-117 115-44 115.5 44.5zm-32 118.5Q331 482 312 474l52-82h-78l-43 75h-6v-75h-67v214h105q35 0 56-19.5t21-50.5q0-22-10.5-38zM236 517h32q7 0 12 4t5 12q0 15-17 15h-32v-31z"/><glyph glyph-name="macron" unicode="¯" horiz-adv-x="402" d="M392 732V632H10v100h382z"/><glyph glyph-name="degree" unicode="°" horiz-adv-x="444" d="M81.5 657Q136 705 223 705q86 0 140-48.5T417 527q0-82-54.5-131T221 347q-86 0-140 49T27 527t54.5 130zM282 601.5Q257 628 221 628q-35 0-60-26.5T136 526q0-48 24.5-74t60.5-26q35 0 60.5 26t25.5 74q0 49-25 75.5z"/><glyph glyph-name="plusminus" unicode="±" horiz-adv-x="676" d="M405 365V241h188V119H83v122h189v124H83v122h189v136h133V487h188V365H405z"/><glyph glyph-name="twosuperior" unicode="²" horiz-adv-x="360" d="M149 437h172v-85H34v80l114 77q31 21 46.5 41.5T210 593q0 18-10 29t-26 11q-31 0-36-37H30q3 52 43 84t109 32q44 0 76-16t48.5-41.5T323 600q0-36-24-63.5T218 476z"/><glyph glyph-name="threesuperior" unicode="³" horiz-adv-x="357" d="M64.5 681Q105 712 177 712q63 0 104.5-30t41.5-75q0-30-17-49.5T259 531v-3q32-9 50.5-30t18.5-51q0-44-43-72t-110-28q-74 0-114.5 31T17 463h108q6-38 45-38 19 0 31 10.5t12 28.5-13 28.5-35 10.5h-35v57h31q47 0 47 38 0 17-11 26.5t-30 9.5q-37 0-43-33H22q2 49 42.5 80z"/><glyph glyph-name="acute" unicode="´" horiz-adv-x="250" d="M240 698 10 593v100l230 119V698z"/><glyph glyph-name="uni00B5" unicode="µ" horiz-adv-x="678" d="M603 554V0H462v85q-26-44-70.5-68T289-7q-44 0-75 19v-276H75v818h139V249q0-65 33.5-100t90.5-35 90.5 35T462 249v305h141z"/><glyph glyph-name="paragraph" unicode="¶" horiz-adv-x="666" d="M591 0H472v590h-65V0H287v278h-18q-118 0-177.5 59.5T32 488q0 58 25.5 105.5t78.5 76T269 698h322V0z"/><glyph glyph-name="periodcentered" unicode="·" horiz-adv-x="270" d="M75.5 267.5Q51 291 51 326t24.5 58.5T138 408q37 0 61-23.5t24-58.5-24-58.5-61-23.5q-38 0-62.5 23.5z"/><glyph glyph-name="cedilla" unicode="¸" horiz-adv-x="295" d="M247.5-71Q285-99 285-152q0-54-38.5-83T152-264H10v82h119q24 0 36.5 7t12.5 25-12.5 24.5T129-119H67V7h88v-50q55 0 92.5-28z"/><glyph glyph-name="onesuperior" unicode="¹" horiz-adv-x="228" d="M20 622v82h164V352H77v270H20z"/><glyph glyph-name="ordmasculine" unicode="º" horiz-adv-x="450" d="M53.5 623q25.5 41 70 63.5T225 709t102-22.5 70-63.5 25-95q0-53-25.5-94T326 370t-102-23-101.5 23T53 434t-25 94q0 54 25.5 95zm233-23Q261 626 224 626q-36 0-60.5-26T139 527q0-45 24.5-70.5T224 431t62 25.5 26 70.5q0 47-25.5 73z"/><glyph glyph-name="guillemotright" unicode="»" horiz-adv-x="521" d="M141 295 50 470h132l89-175-89-175H50zm208 0-92 175h132l89-175-89-175H257z"/><glyph glyph-name="onequarter" unicode="¼" horiz-adv-x="730" d="M37 622v82h164V352H94v270H37zm555 77L209 0H75l384 699h133zM695 65h-42V0H545v65H355v58l149 230h149V129h42V65zM549 276l-89-146h89v146z"/><glyph glyph-name="onehalf" unicode="½" horiz-adv-x="757" d="M94 622H37v82h164V352H94v270zm493 78L209 0H75l377 700h135zM531 84h172V-1H416v80l114 77q31 21 46.5 41.5T592 240q0 18-10 29t-26 11q-31 0-36-37H412q3 52 43 84t109 32q44 0 76-16t48.5-41.5T705 247q0-36-24-63.5T600 123z"/><glyph glyph-name="threequarters" unicode="¾" horiz-adv-x="811" d="M88.5 681Q129 712 201 712q63 0 104.5-30t41.5-75q0-30-17-49.5T283 531v-3q32-9 50.5-30t18.5-51q0-44-43-72t-110-28q-74 0-114.5 31T41 463h108q6-38 45-38 19 0 31 10.5t12 28.5-13 28.5-35 10.5h-35v57h31q47 0 47 38 0 17-11 26.5t-30 9.5q-37 0-43-33H46q2 49 42.5 80zM697 700 303 0H169l394 700h134zm91-635h-43V0H638v65H448v58l143 230h154V129h43V65zM642 281l-90-152h90v152z"/><glyph glyph-name="questiondown" unicode="¿" horiz-adv-x="538" d="M401.5 542.5Q426 519 426 484t-24.5-58.5T339 402q-37 0-61 23.5T254 484t24 58.5 61 23.5q38 0 62.5-23.5zm-295-649Q43-50 43 49q0 98 63 149.5T273 250l4 77h123l5-170h-45q-88 0-135-23t-46-86q0-44 25.5-69T274-46q46 0 71.5 25T371 48h132q1-61-26-109t-79.5-75T274-163q-104 0-167.5 56.5z"/><glyph glyph-name="Agrave" unicode="À" horiz-adv-x="716" d="M497 133H219L173 0H26l251 699h163L691 0H543zm-38 112L358 537 257 245h202zm8 593V738L237 843v114z"/><glyph glyph-name="Aacute" unicode="Á" horiz-adv-x="716" d="M497 133H219L173 0H26l251 699h163L691 0H543zm-38 112L358 537 257 245h202zm8 598L237 738v100l230 119V843z"/><glyph glyph-name="Acircumflex" unicode="Â" horiz-adv-x="716" d="M497 133H219L173 0H26l251 699h163L691 0H543zm-38 112L358 537 257 245h202zM359 822l-149-84v102l149 81 148-81V738z"/><glyph glyph-name="Atilde" unicode="Ã" horiz-adv-x="716" d="M497 133H219L173 0H26l251 699h163L691 0H543zm-38 112L358 537 257 245h202zM219.5 850.5Q252 883 302 883q21 0 37-6.5t36-18.5q30-19 50-19 37 0 43 43h75q-9-66-41.5-98.5T419 751q-21 0-37 6.5T346 776q-29 20-50 20-37 0-44-44h-74q9 66 41.5 98.5z"/><glyph glyph-name="Adieresis" unicode="Ä" horiz-adv-x="716" d="M497 133H219L173 0H26l251 699h163L691 0H543zm-38 112L358 537 257 245h202zM218 784q-19 19-19 47t19 47.5 47 19.5 47.5-19.5T332 831t-19.5-47-47.5-19-47 19zm185 0q-19 19-19 47t19 47.5 47 19.5 47.5-19.5T517 831t-19.5-47-47.5-19-47 19z"/><glyph glyph-name="Aring" unicode="Å" horiz-adv-x="716" d="M497 133H219L173 0H26l251 699h163L691 0H543zm-38 112L358 537 257 245h202zm-16.5 533.5Q409 747 359 747q-49 0-83 31.5T242 862t34 83.5 83 31.5q50 0 83.5-31.5T476 862t-33.5-83.5zm-49.5 120Q379 912 359 912t-34-13.5-14-36.5q0-21 14-35.5t34-14.5 34 14.5 14 35.5q0 23-14 36.5z"/><glyph glyph-name="AE" unicode="Æ" horiz-adv-x="937" d="M617 589V409h232V301H617V111h262V0H476v131H231L162 0H9l372 699h498V589H617zM476 239v358L288 239h188z"/><glyph glyph-name="Ccedilla" unicode="Ç" horiz-adv-x="768" d="M488.5 144.5Q532 170 556 220h161q-31-96-106.5-154.5T433-4v-41q55 0 92.5-28t37.5-81q0-54-38.5-83T430-266H288v82h119q24 0 36.5 7t12.5 25-12.5 24.5T407-121h-62V-4Q256 6 185.5 53.5T75 178 35 350q0 103 46.5 184.5t127 127T389 707q117 0 205-60t123-166H556q-24 50-67.5 75T388 581q-61 0-108.5-28.5t-74-80.5T179 350q0-69 26.5-121.5t74-81T388 119q57 0 100.5 25.5z"/><glyph glyph-name="Egrave" unicode="È" horiz-adv-x="532" d="M209 585V410h235V299H209V114h265V0H69v699h405V585H209zm167 253V738L146 843v114z"/><glyph glyph-name="Eacute" unicode="É" horiz-adv-x="532" d="M209 585V410h235V299H209V114h265V0H69v699h405V585H209zm167 258L146 738v100l230 119V843z"/><glyph glyph-name="Ecircumflex" unicode="Ê" horiz-adv-x="532" d="M209 585V410h235V299H209V114h265V0H69v699h405V585H209zm58 237-149-84v102l149 81 148-81V738z"/><glyph glyph-name="Edieresis" unicode="Ë" horiz-adv-x="532" d="M209 585V410h235V299H209V114h265V0H69v699h405V585H209zm-82 199q-19 19-19 47t19 47.5 47 19.5 47.5-19.5T241 831t-19.5-47-47.5-19-47 19zm185 0q-19 19-19 47t19 47.5 47 19.5 47.5-19.5T426 831t-19.5-47-47.5-19-47 19z"/><glyph glyph-name="Igrave" unicode="Ì" horiz-adv-x="278" d="M209 698V0H69v698h140zm39 140V738L18 843v114z"/><glyph glyph-name="Iacute" unicode="Í" horiz-adv-x="278" d="M209 698V0H69v698h140zm39 145L18 738v100l230 119V843z"/><glyph glyph-name="Icircumflex" unicode="Î" horiz-adv-x="278" d="M209 698V0H69v698h140zm-69 124L-9 738v102l149 81 148-81V738z"/><glyph glyph-name="Idieresis" unicode="Ï" horiz-adv-x="278" d="M209 698V0H69v698h140zM-1 784q-19 19-19 47t19 47.5T46 898t47.5-19.5T113 831t-19.5-47T46 765t-47 19zm185 0q-19 19-19 47t19 47.5 47 19.5 47.5-19.5T298 831t-19.5-47-47.5-19-47 19z"/><glyph glyph-name="Eth" unicode="Ð" horiz-adv-x="726" d="M515.5 655q83.5-43 129-122.5T690 348t-45.5-183.5T515.5 43 322 0H77v287H7v122h70v289h245q110 0 193.5-43zM486 176q60 62 60 172t-60 171.5T317 581h-99V409h167V287H218V114h99q109 0 169 62z"/><glyph glyph-name="Ntilde" unicode="Ñ" horiz-adv-x="735" d="M666 0H526L209 479V0H69v699h140l317-480v480h140V0zM229.5 850.5Q262 883 312 883q21 0 37-6.5t36-18.5q30-19 50-19 37 0 43 43h75q-9-66-41.5-98.5T429 751q-21 0-37 6.5T356 776q-29 20-50 20-37 0-44-44h-74q9 66 41.5 98.5z"/><glyph glyph-name="Ograve" unicode="Ò" horiz-adv-x="785" d="M213 39Q131 85 83 166.5T35 351q0 102 48 183.5T213 662t180 46q99 0 180.5-46t129-127.5T750 351q0-103-47.5-184.5T573 39 393-7 213 39zm291 107.5q48 28.5 75 81.5t27 123-27 122.5-75 80.5-111 28-111.5-28-75.5-80.5T179 351t27-123 75.5-81.5T393 118t111 28.5zM502 838V738L272 843v114z"/><glyph glyph-name="Oacute" unicode="Ó" horiz-adv-x="785" d="M213 39Q131 85 83 166.5T35 351q0 102 48 183.5T213 662t180 46q99 0 180.5-46t129-127.5T750 351q0-103-47.5-184.5T573 39 393-7 213 39zm291 107.5q48 28.5 75 81.5t27 123-27 122.5-75 80.5-111 28-111.5-28-75.5-80.5T179 351t27-123 75.5-81.5T393 118t111 28.5zM502 843 272 738v100l230 119V843z"/><glyph glyph-name="Ocircumflex" unicode="Ô" horiz-adv-x="785" d="M213 39Q131 85 83 166.5T35 351q0 102 48 183.5T213 662t180 46q99 0 180.5-46t129-127.5T750 351q0-103-47.5-184.5T573 39 393-7 213 39zm291 107.5q48 28.5 75 81.5t27 123-27 122.5-75 80.5-111 28-111.5-28-75.5-80.5T179 351t27-123 75.5-81.5T393 118t111 28.5zM393 822l-149-84v102l149 81 148-81V738z"/><glyph glyph-name="Otilde" unicode="Õ" horiz-adv-x="785" d="M213 39Q131 85 83 166.5T35 351q0 102 48 183.5T213 662t180 46q99 0 180.5-46t129-127.5T750 351q0-103-47.5-184.5T573 39 393-7 213 39zm291 107.5q48 28.5 75 81.5t27 123-27 122.5-75 80.5-111 28-111.5-28-75.5-80.5T179 351t27-123 75.5-81.5T393 118t111 28.5zm-249.5 704Q287 883 337 883q21 0 37-6.5t36-18.5q30-19 50-19 37 0 43 43h75q-9-66-41.5-98.5T454 751q-21 0-37 6.5T381 776q-29 20-50 20-37 0-44-44h-74q9 66 41.5 98.5z"/><glyph glyph-name="Odieresis" unicode="Ö" horiz-adv-x="785" d="M213 39Q131 85 83 166.5T35 351q0 102 48 183.5T213 662t180 46q99 0 180.5-46t129-127.5T750 351q0-103-47.5-184.5T573 39 393-7 213 39zm291 107.5q48 28.5 75 81.5t27 123-27 122.5-75 80.5-111 28-111.5-28-75.5-80.5T179 351t27-123 75.5-81.5T393 118t111 28.5zM253 784q-19 19-19 47t19 47.5 47 19.5 47.5-19.5T367 831t-19.5-47-47.5-19-47 19zm185 0q-19 19-19 47t19 47.5 47 19.5 47.5-19.5T552 831t-19.5-47-47.5-19-47 19z"/><glyph glyph-name="multiply" unicode="×" horiz-adv-x="670" d="M480 123 334 269 189 124l-91 91 145 146-141 141 91 91 141-141 141 141 92-91-141-141 146-147z"/><glyph glyph-name="Oslash" unicode="Ø" horiz-adv-x="785" d="M662 591q42-47 65-108t23-132q0-103-47.5-184.5T573 39 393-7q-60 0-115.5 18T177 62L121 0H24l100 110q-42 48-65.5 109.5T35 351q0 102 48 183.5T213 662t180 46q60 0 115-17.5T609 640l55 60h97zM216 210l304 333q-53 39-127 39-63 0-111.5-28T206 473.5 179 351q0-82 37-141zm353 280L265 157q55-39 128-39 63 0 111 28.5t75 81.5 27 123q0 82-37 139z"/><glyph glyph-name="Ugrave" unicode="Ù" horiz-adv-x="697" d="M207 698V266q0-71 37-108.5T348 120q68 0 105 37.5T490 266v432h141V267q0-89-38.5-150.5T489.5 24 346-7q-78 0-141.5 31T104 116.5 67 267v431h140zm250 140V738L227 843v114z"/><glyph glyph-name="Uacute" unicode="Ú" horiz-adv-x="697" d="M207 698V266q0-71 37-108.5T348 120q68 0 105 37.5T490 266v432h141V267q0-89-38.5-150.5T489.5 24 346-7q-78 0-141.5 31T104 116.5 67 267v431h140zm250 145L227 738v100l230 119V843z"/><glyph glyph-name="Ucircumflex" unicode="Û" horiz-adv-x="697" d="M207 698V266q0-71 37-108.5T348 120q68 0 105 37.5T490 266v432h141V267q0-89-38.5-150.5T489.5 24 346-7q-78 0-141.5 31T104 116.5 67 267v431h140zm142 124-149-84v102l149 81 148-81V738z"/><glyph glyph-name="Udieresis" unicode="Ü" horiz-adv-x="697" d="M207 698V266q0-71 37-108.5T348 120q68 0 105 37.5T490 266v432h141V267q0-89-38.5-150.5T489.5 24 346-7q-78 0-141.5 31T104 116.5 67 267v431h140zm2 86q-19 19-19 47t19 47.5 47 19.5 47.5-19.5T323 831t-19.5-47-47.5-19-47 19zm185 0q-19 19-19 47t19 47.5 47 19.5 47.5-19.5T508 831t-19.5-47-47.5-19-47 19z"/><glyph glyph-name="Yacute" unicode="Ý" horiz-adv-x="636" d="M624 698 388 243V0H248v243L11 698h158l150-319 149 319h156zM427 843 197 738v100l230 119V843z"/><glyph glyph-name="Thorn" unicode="Þ" horiz-adv-x="608" d="M551.5 246q-26.5-48-83-78T326 138H209V0H69v699h139V563h118q81 0 138-28t85.5-76T578 350q0-56-26.5-104zm-146 27q28.5 28 28.5 77t-28.5 77-85.5 28H209V245h111q57 0 85.5 28z"/><glyph glyph-name="germandbls" unicode="ß" horiz-adv-x="727" d="M82 663.5q30 50.5 89.5 79T316 771q74 0 129-24.5t83.5-65T557 594q0-49-22-81t-61-68q-21-19-30.5-30.5T434 392q0-17 19.5-30t78.5-34q76-27 110-66.5T676 161q0-77-56.5-124T467-10q-95 0-153.5 49T245 177h135q3-38 25-59.5T465 96q35 0 53.5 14t18.5 42-18.5 45.5T450 232q-84 29-120.5 60T293 370q0 33 17.5 59t50.5 58q29 29 42.5 48t13.5 42q0 36-28.5 56.5T311 654q-62 0-90.5-30.5T192 535V0H52v549q0 64 30 114.5z"/><glyph glyph-name="agrave" unicode="à" horiz-adv-x="678" d="M66.5 428q33.5 65 91 100T286 563q62 0 108.5-25t74.5-63v79h141V0H469v81q-27-39-74.5-64.5T285-9q-70 0-127.5 36t-91 101.5T33 279q0 84 33.5 149zM449 364.5q-20 36.5-54 56T322 440t-72-19-53.5-55.5T176 279t20.5-87.5 54-57.5 71.5-20q39 0 73 19.5t54 56 20 87.5-20 87.5zm1 328.5V593L220 698v114z"/><glyph glyph-name="aacute" unicode="á" horiz-adv-x="678" d="M66.5 428q33.5 65 91 100T286 563q62 0 108.5-25t74.5-63v79h141V0H469v81q-27-39-74.5-64.5T285-9q-70 0-127.5 36t-91 101.5T33 279q0 84 33.5 149zM449 364.5q-20 36.5-54 56T322 440t-72-19-53.5-55.5T176 279t20.5-87.5 54-57.5 71.5-20q39 0 73 19.5t54 56 20 87.5-20 87.5zm1 333.5L220 593v100l230 119V698z"/><glyph glyph-name="acircumflex" unicode="â" horiz-adv-x="678" d="M66.5 428q33.5 65 91 100T286 563q62 0 108.5-25t74.5-63v79h141V0H469v81q-27-39-74.5-64.5T285-9q-70 0-127.5 36t-91 101.5T33 279q0 84 33.5 149zM449 364.5q-20 36.5-54 56T322 440t-72-19-53.5-55.5T176 279t20.5-87.5 54-57.5 71.5-20q39 0 73 19.5t54 56 20 87.5-20 87.5zM341 677l-149-84v102l149 81 148-81V593z"/><glyph glyph-name="atilde" unicode="ã" horiz-adv-x="678" d="M66.5 428q33.5 65 91 100T286 563q62 0 108.5-25t74.5-63v79h141V0H469v81q-27-39-74.5-64.5T285-9q-70 0-127.5 36t-91 101.5T33 279q0 84 33.5 149zM449 364.5q-20 36.5-54 56T322 440t-72-19-53.5-55.5T176 279t20.5-87.5 54-57.5 71.5-20q39 0 73 19.5t54 56 20 87.5-20 87.5zm-246.5 341Q235 738 285 738q21 0 37-6.5t36-18.5q30-19 50-19 37 0 43 43h75q-9-66-41.5-98.5T402 606q-21 0-37 6.5T329 631q-29 20-50 20-37 0-44-44h-74q9 66 41.5 98.5z"/><glyph glyph-name="adieresis" unicode="ä" horiz-adv-x="678" d="M66.5 428q33.5 65 91 100T286 563q62 0 108.5-25t74.5-63v79h141V0H469v81q-27-39-74.5-64.5T285-9q-70 0-127.5 36t-91 101.5T33 279q0 84 33.5 149zM449 364.5q-20 36.5-54 56T322 440t-72-19-53.5-55.5T176 279t20.5-87.5 54-57.5 71.5-20q39 0 73 19.5t54 56 20 87.5-20 87.5zM201 639q-19 19-19 47t19 47.5 47 19.5 47.5-19.5T315 686t-19.5-47-47.5-19-47 19zm185 0q-19 19-19 47t19 47.5 47 19.5 47.5-19.5T500 686t-19.5-47-47.5-19-47 19z"/><glyph glyph-name="aring" unicode="å" horiz-adv-x="678" d="M66.5 428q33.5 65 91 100T286 563q62 0 108.5-25t74.5-63v79h141V0H469v81q-27-39-74.5-64.5T285-9q-70 0-127.5 36t-91 101.5T33 279q0 84 33.5 149zM449 364.5q-20 36.5-54 56T322 440t-72-19-53.5-55.5T176 279t20.5-87.5 54-57.5 71.5-20q39 0 73 19.5t54 56 20 87.5-20 87.5zm-24.5 269Q391 602 341 602q-49 0-83 31.5T224 717t34 83.5 83 31.5q50 0 83.5-31.5T458 717t-33.5-83.5zm-49.5 120Q361 767 341 767t-34-13.5-14-36.5q0-21 14-35.5t34-14.5 34 14.5 14 35.5q0 23-14 36.5z"/><glyph glyph-name="ae" unicode="æ" horiz-adv-x="1077" d="M1040 238H613q8-63 49.5-97t93.5-34q48 0 79 18t44 49h151q-23-80-86-131.5T791-9q-61 0-111.5 25T600 82V0H472v82q-31-41-79-66T286-9q-70 0-128 36T66.5 128.5 33 279t33.5 149.5T159 528t132 35q116 0 183-87v78h126v-78q36 45 83 66t108 21q74 0 131.5-34.5t90-97T1045 290q0-22-5-52zm-140 85q-1 57-41 91t-100 34q-55 0-95.5-33.5T613 323h287zM395 133.5q34 19.5 54 56t20 87.5-20 87.5-54 56-73 19.5-72-19-53.5-55.5T176 279t20.5-87.5 54-57.5 71.5-20q39 0 73 19.5z"/><glyph glyph-name="ccedilla" unicode="ç" horiz-adv-x="602" d="M417 187h151q-21-81-77.5-132T349-6v-39q55 0 92.5-28t37.5-81q0-54-38.5-83T346-266H204v82h119q24 0 36.5 7t12.5 25-12.5 24.5T323-121h-62V-6Q193 4 141.5 41.5t-80 98T33 277q0 86 35 150.5t97 100T307 563q103 0 170.5-51.5T568 367H417q-12 36-40.5 56.5T306 444q-60 0-95-43.5T176 277q0-79 35-122.5t95-43.5q85 0 111 76z"/><glyph glyph-name="egrave" unicode="è" horiz-adv-x="617" d="M580 235H175q5-60 42-94t91-34q78 0 111 67h151q-24-80-92-131.5T311-9q-80 0-143.5 35.5T68.5 127 33 277q0 86 35 151t98 100 145 35q79 0 141.5-34t97-96.5T584 289q0-30-4-54zm-141 94q-1 54-39 86.5T307 448q-52 0-87.5-31.5T176 329h263zm-21 366V595L188 700v114z"/><glyph glyph-name="eacute" unicode="é" horiz-adv-x="617" d="M580 235H175q5-60 42-94t91-34q78 0 111 67h151q-24-80-92-131.5T311-9q-80 0-143.5 35.5T68.5 127 33 277q0 86 35 151t98 100 145 35q79 0 141.5-34t97-96.5T584 289q0-30-4-54zm-141 94q-1 54-39 86.5T307 448q-52 0-87.5-31.5T176 329h263zm-21 371L188 595v100l230 119V700z"/><glyph glyph-name="ecircumflex" unicode="ê" horiz-adv-x="617" d="M580 235H175q5-60 42-94t91-34q78 0 111 67h151q-24-80-92-131.5T311-9q-80 0-143.5 35.5T68.5 127 33 277q0 86 35 151t98 100 145 35q79 0 141.5-34t97-96.5T584 289q0-30-4-54zm-141 94q-1 54-39 86.5T307 448q-52 0-87.5-31.5T176 329h263zM309 679l-149-84v102l149 81 148-81V595z"/><glyph glyph-name="edieresis" unicode="ë" horiz-adv-x="617" d="M580 235H175q5-60 42-94t91-34q78 0 111 67h151q-24-80-92-131.5T311-9q-80 0-143.5 35.5T68.5 127 33 277q0 86 35 151t98 100 145 35q79 0 141.5-34t97-96.5T584 289q0-30-4-54zm-141 94q-1 54-39 86.5T307 448q-52 0-87.5-31.5T176 329h263zM169 641q-19 19-19 47t19 47.5 47 19.5 47.5-19.5T283 688t-19.5-47-47.5-19-47 19zm185 0q-19 19-19 47t19 47.5 47 19.5 47.5-19.5T468 688t-19.5-47-47.5-19-47 19z"/><glyph glyph-name="igrave" unicode="ì" horiz-adv-x="290" d="M215 554V0H75v554h140zm39 139V593L24 698v114z"/><glyph glyph-name="iacute" unicode="í" horiz-adv-x="290" d="M215 554V0H75v554h140zm39 144L24 593v100l230 119V698z"/><glyph glyph-name="icircumflex" unicode="î" horiz-adv-x="290" d="M215 554V0H75v554h140zm-69 123L-3 593v102l149 81 148-81V593z"/><glyph glyph-name="idieresis" unicode="ï" horiz-adv-x="290" d="M215 554V0H75v554h140zM5 639q-19 19-19 47t19 47.5T52 753t47.5-19.5T119 686t-19.5-47T52 620 5 639zm185 0q-19 19-19 47t19 47.5 47 19.5 47.5-19.5T304 686t-19.5-47-47.5-19-47 19z"/><glyph glyph-name="eth" unicode="ð" horiz-adv-x="638" d="M572.5 494.5Q605 409 605 317q0-104-37.5-177.5T465 29 317-8q-80 0-144.5 35.5T70.5 128 33 278t36.5 149.5T168 527t138 35q77 0 139-45-24 55-65 107l-116-36v64l71 23q-24 26-71 65h134q13-11 36-34l112 35v-64l-67-21q61-76 93.5-161.5zM388 129.5q33 18.5 53 56t20 91.5-20 91.5-53 56-70 18.5q-38 0-70-18.5t-51.5-56T177 277q0-80 40.5-123t99.5-43q38 0 71 18.5z"/><glyph glyph-name="ntilde" unicode="ñ" horiz-adv-x="661" d="M536 499.5Q597 437 597 325V0H457v306q0 66-33 101.5T334 443q-58 0-91.5-35.5T209 306V0H69v554h140v-69q28 36 71.5 56.5T376 562q99 0 160-62.5zm-327.5 206Q241 738 291 738q21 0 37-6.5t36-18.5q30-19 50-19 37 0 43 43h75q-9-66-41.5-98.5T408 606q-21 0-37 6.5T335 631q-29 20-50 20-37 0-44-44h-74q9 66 41.5 98.5z"/><glyph glyph-name="ograve" unicode="ò" horiz-adv-x="638" d="M171 26.5Q107 62 70.5 127T34 277t37.5 150T174 527.5 319 563t145-35.5T566.5 427 604 277t-38.5-150-104-100.5T315-9q-80 0-144 35.5zm215.5 105Q420 150 440 187t20 90q0 79-41.5 121.5T317 441t-100.5-42.5T176 277t39.5-121.5T315 113q38 0 71.5 18.5zM434 700V600L204 705v114z"/><glyph glyph-name="oacute" unicode="ó" horiz-adv-x="638" d="M171 26.5Q107 62 70.5 127T34 277t37.5 150T174 527.5 319 563t145-35.5T566.5 427 604 277t-38.5-150-104-100.5T315-9q-80 0-144 35.5zm215.5 105Q420 150 440 187t20 90q0 79-41.5 121.5T317 441t-100.5-42.5T176 277t39.5-121.5T315 113q38 0 71.5 18.5zM434 705 204 600v100l230 119V705z"/><glyph glyph-name="ocircumflex" unicode="ô" horiz-adv-x="638" d="M171 26.5Q107 62 70.5 127T34 277t37.5 150T174 527.5 319 563t145-35.5T566.5 427 604 277t-38.5-150-104-100.5T315-9q-80 0-144 35.5zm215.5 105Q420 150 440 187t20 90q0 79-41.5 121.5T317 441t-100.5-42.5T176 277t39.5-121.5T315 113q38 0 71.5 18.5zM325 684l-149-84v102l149 81 148-81V600z"/><glyph glyph-name="otilde" unicode="õ" horiz-adv-x="638" d="M171 26.5Q107 62 70.5 127T34 277t37.5 150T174 527.5 319 563t145-35.5T566.5 427 604 277t-38.5-150-104-100.5T315-9q-80 0-144 35.5zm215.5 105Q420 150 440 187t20 90q0 79-41.5 121.5T317 441t-100.5-42.5T176 277t39.5-121.5T315 113q38 0 71.5 18.5zm-200 581Q219 745 269 745q21 0 37-6.5t36-18.5q30-19 50-19 37 0 43 43h75q-9-66-41.5-98.5T386 613q-21 0-37 6.5T313 638q-29 20-50 20-37 0-44-44h-74q9 66 41.5 98.5z"/><glyph glyph-name="odieresis" unicode="ö" horiz-adv-x="638" d="M171 26.5Q107 62 70.5 127T34 277t37.5 150T174 527.5 319 563t145-35.5T566.5 427 604 277t-38.5-150-104-100.5T315-9q-80 0-144 35.5zm215.5 105Q420 150 440 187t20 90q0 79-41.5 121.5T317 441t-100.5-42.5T176 277t39.5-121.5T315 113q38 0 71.5 18.5zM185 646q-19 19-19 47t19 47.5 47 19.5 47.5-19.5T299 693t-19.5-47-47.5-19-47 19zm185 0q-19 19-19 47t19 47.5 47 19.5 47.5-19.5T484 693t-19.5-47-47.5-19-47 19z"/><glyph glyph-name="divide" unicode="÷" horiz-adv-x="648" d="M268.5 519.5Q244 543 244 578t24.5 58.5T331 660q37 0 61-23.5t24-58.5-24-58.5-61-23.5q-38 0-62.5 23.5zM583 418V296H73v122h510zM268.5 78.5Q244 102 244 137t24.5 58.5T331 219q37 0 61-23.5t24-58.5-24-58.5T331 55q-38 0-62.5 23.5z"/><glyph glyph-name="oslash" unicode="ø" horiz-adv-x="634" d="M535 469q32-37 49.5-86T602 277q0-85-38.5-150t-104-100.5T313-9q-96 0-169 51L106 0H21l77 84q-32 38-49 87T32 277q0 85 37.5 150T172 527.5 317 563q99 0 172-52l39 43h85zM192 187l208 227q-37 27-85 27-60 0-100.5-42.5T174 277q0-51 18-90zm248 178L233 138q34-25 80-25 38 0 71.5 18.5T438 187t20 90q0 49-18 88z"/><glyph glyph-name="ugrave" unicode="ù" horiz-adv-x="661" d="M592 554V0H451v70q-27-36-70.5-56.5T286-7q-65 0-115 27.5t-78.5 81T64 229v325h140V249q0-66 33-101.5t90-35.5q58 0 91 35.5T451 249v305h141zM440 693V593L210 698v114z"/><glyph glyph-name="uacute" unicode="ú" horiz-adv-x="661" d="M592 554V0H451v70q-27-36-70.5-56.5T286-7q-65 0-115 27.5t-78.5 81T64 229v325h140V249q0-66 33-101.5t90-35.5q58 0 91 35.5T451 249v305h141zM440 698 210 593v100l230 119V698z"/><glyph glyph-name="ucircumflex" unicode="û" horiz-adv-x="661" d="M592 554V0H451v70q-27-36-70.5-56.5T286-7q-65 0-115 27.5t-78.5 81T64 229v325h140V249q0-66 33-101.5t90-35.5q58 0 91 35.5T451 249v305h141zM331 677l-149-84v102l149 81 148-81V593z"/><glyph glyph-name="udieresis" unicode="ü" horiz-adv-x="661" d="M592 554V0H451v70q-27-36-70.5-56.5T286-7q-65 0-115 27.5t-78.5 81T64 229v325h140V249q0-66 33-101.5t90-35.5q58 0 91 35.5T451 249v305h141zm-401 85q-19 19-19 47t19 47.5 47 19.5 47.5-19.5T305 686t-19.5-47-47.5-19-47 19zm185 0q-19 19-19 47t19 47.5 47 19.5 47.5-19.5T490 686t-19.5-47-47.5-19-47 19z"/><glyph glyph-name="yacute" unicode="ý" horiz-adv-x="605" d="M599 554 256-262H107L227 14 5 554h157l143-387 145 387h149zM412 698 182 593v100l230 119V698z"/><glyph glyph-name="thorn" unicode="þ" horiz-adv-x="678" d="M282.5 537Q328 562 388 562q71 0 130-36t93-100.5T645 278t-34-148.5T518 28 388-8q-60 0-105 27t-74 74v-357H69V740h140V468q28 44 73.5 69zm199-171q-20.5 37-54 55.5T356 440t-71.5-19-54.5-56-21-88 21-88 54.5-56 71.5-19 71.5 19 54 56.5T502 278t-20.5 88z"/><glyph glyph-name="ydieresis" unicode="ÿ" horiz-adv-x="605" d="M599 554 256-262H107L227 14 5 554h157l143-387 145 387h149zm-436 85q-19 19-19 47t19 47.5 47 19.5 47.5-19.5T277 686t-19.5-47-47.5-19-47 19zm185 0q-19 19-19 47t19 47.5 47 19.5 47.5-19.5T462 686t-19.5-47-47.5-19-47 19z"/><glyph glyph-name="Amacron" unicode="Ā" horiz-adv-x="716" d="M497 133H219L173 0H26l251 699h163L691 0H543zm-38 112L358 537 257 245h202zm90 632V777H167v100h382z"/><glyph glyph-name="amacron" unicode="ā" horiz-adv-x="678" d="M66.5 428q33.5 65 91 100T286 563q62 0 108.5-25t74.5-63v79h141V0H469v81q-27-39-74.5-64.5T285-9q-70 0-127.5 36t-91 101.5T33 279q0 84 33.5 149zM449 364.5q-20 36.5-54 56T322 440t-72-19-53.5-55.5T176 279t20.5-87.5 54-57.5 71.5-20q39 0 73 19.5t54 56 20 87.5-20 87.5zM532 732V632H150v100h382z"/><glyph glyph-name="Abreve" unicode="Ă" horiz-adv-x="716" d="M497 133H219L173 0H26l251 699h163L691 0H543zm-38 112L358 537 257 245h202zm16 539q-43-41-117-41-72 0-115.5 41.5T199 898v20h74q0-34 19-51.5t66-17.5 66 17.5 19 51.5h75v-21q0-72-43-113z"/><glyph glyph-name="abreve" unicode="ă" horiz-adv-x="678" d="M66.5 428q33.5 65 91 100T286 563q62 0 108.5-25t74.5-63v79h141V0H469v81q-27-39-74.5-64.5T285-9q-70 0-127.5 36t-91 101.5T33 279q0 84 33.5 149zM449 364.5q-20 36.5-54 56T322 440t-72-19-53.5-55.5T176 279t20.5-87.5 54-57.5 71.5-20q39 0 73 19.5t54 56 20 87.5-20 87.5zm9 274.5q-43-41-117-41-72 0-115.5 41.5T182 753v20h74q0-34 19-51.5t66-17.5 66 17.5 19 51.5h75v-21q0-72-43-113z"/><glyph glyph-name="Aogonek" unicode="Ą" horiz-adv-x="716" d="M702-115v-84q-42-15-89-15-59 0-99.5 28T473-102q0 31 15.5 58.5T540 10l-43 123H219L173 0H26l251 699h163L691 0l-48-24q-34-16-47.5-31.5T582-89q0-19 13.5-30t36.5-11q33 0 70 15zM459 245 358 537 257 245h202z"/><glyph glyph-name="aogonek" unicode="ą" horiz-adv-x="678" d="M621-115v-84q-43-15-89-15-59 0-99.5 27.5T392-103q0 33 18 61.5T469 14v67q-27-39-74.5-64.5T285-9q-70 0-127.5 36t-91 101.5T33 279q0 84 33.5 149t91 100T286 563q62 0 108.5-25t74.5-63v79h141V0h-1l-47-24q-34-17-48-32.5T500-90t13.5-29 36.5-11q32 0 71 15zM395 133.5q34 19.5 54 56t20 87.5-20 87.5-54 56-73 19.5-72-19-53.5-55.5T176 279t20.5-87.5 54-57.5 71.5-20q39 0 73 19.5z"/><glyph glyph-name="Cacute" unicode="Ć" horiz-adv-x="768" d="M81.5 534.5q46.5 81.5 127 127T389 707q117 0 205-60t123-166H556q-24 50-67.5 75T388 581q-61 0-108.5-28.5t-74-80.5T179 350q0-69 26.5-121.5t74-81T388 119q57 0 100.5 25.5T556 220h161Q682 113 594.5 53.5T389-6Q289-6 208.5 39.5T81.5 166 35 350t46.5 184.5zM497 850 267 745v100l230 119V850z"/><glyph glyph-name="cacute" unicode="ć" horiz-adv-x="602" d="M68 427.5q35 64.5 97 100T307 563q103 0 170.5-51.5T568 367H417q-12 36-40.5 56.5T306 444q-60 0-95-43.5T176 277q0-79 35-122.5t95-43.5q85 0 111 76h151q-23-90-91-143T307-9q-80 0-142 35.5t-97 100T33 277t35 150.5zM409 698 179 593v100l230 119V698z"/><glyph glyph-name="Cdotaccent" unicode="Ċ" horiz-adv-x="768" d="M81.5 534.5q46.5 81.5 127 127T389 707q117 0 205-60t123-166H556q-24 50-67.5 75T388 581q-61 0-108.5-28.5t-74-80.5T179 350q0-69 26.5-121.5t74-81T388 119q57 0 100.5 25.5T556 220h161Q682 113 594.5 53.5T389-6Q289-6 208.5 39.5T81.5 166 35 350t46.5 184.5zM341 791q-19 19-19 47t19 47.5 47 19.5 47.5-19.5T455 838t-19.5-47-47.5-19-47 19z"/><glyph glyph-name="cdotaccent" unicode="ċ" horiz-adv-x="602" d="M68 427.5q35 64.5 97 100T307 563q103 0 170.5-51.5T568 367H417q-12 36-40.5 56.5T306 444q-60 0-95-43.5T176 277q0-79 35-122.5t95-43.5q85 0 111 76h151q-23-90-91-143T307-9q-80 0-142 35.5t-97 100T33 277t35 150.5zM252 639q-19 19-19 47t19 47.5 47 19.5 47.5-19.5T366 686t-19.5-47-47.5-19-47 19z"/><glyph glyph-name="Ccaron" unicode="Č" horiz-adv-x="768" d="M81.5 534.5q46.5 81.5 127 127T389 707q117 0 205-60t123-166H556q-24 50-67.5 75T388 581q-61 0-108.5-28.5t-74-80.5T179 350q0-69 26.5-121.5t74-81T388 119q57 0 100.5 25.5T556 220h161Q682 113 594.5 53.5T389-6Q289-6 208.5 39.5T81.5 166 35 350t46.5 184.5zM537 826l-148-81-149 81v102l149-86 148 86V826z"/><glyph glyph-name="ccaron" unicode="č" horiz-adv-x="602" d="M68 427.5q35 64.5 97 100T307 563q103 0 170.5-51.5T568 367H417q-12 36-40.5 56.5T306 444q-60 0-95-43.5T176 277q0-79 35-122.5t95-43.5q85 0 111 76h151q-23-90-91-143T307-9q-80 0-142 35.5t-97 100T33 277t35 150.5zM448 674l-148-81-149 81v102l149-86 148 86V674z"/><glyph glyph-name="Dcaron" unicode="Ď" horiz-adv-x="717" d="M506.5 655q83.5-43 129-122.5T681 348t-45.5-183.5T506.5 43 313 0H69v698h244q110 0 193.5-43zM478 179q60 60 60 169t-60 170.5T308 580h-99V119h99q110 0 170 60zm26 640-148-81-149 81v102l149-86 148 86V819z"/><glyph glyph-name="dcaron" unicode="ď" horiz-adv-x="806" d="M66.5 428Q100 493 158 528t129 35q54 0 103-23.5t78-62.5v263h142V0H468v82q-26-41-73-66T286-9q-70 0-128 36T66.5 128.5 33 279q0 84 33.5 149zM796 632q0-66-31.5-101.5T670 495v57q50 0 50 60v19h-57v109h116q17-60 17-108zM449 364.5q-20 36.5-54 56T322 440t-72-19-53.5-55.5T176 279t20.5-87.5 54-57.5 71.5-20q39 0 73 19.5t54 56 20 87.5-20 87.5z"/><glyph glyph-name="Dcroat" unicode="Đ" horiz-adv-x="726" d="M515.5 655q83.5-43 129-122.5T690 348t-45.5-183.5T515.5 43 322 0H77v287H7v122h70v289h245q110 0 193.5-43zM486 176q60 62 60 172t-60 171.5T317 581h-99V409h167V287H218V114h99q109 0 169 62z"/><glyph glyph-name="dcroat" unicode="đ" horiz-adv-x="684" d="M670 590h-60V0H468v82q-26-41-73-66T286-9q-70 0-128 36T66.5 128.5 33 279q0 84 33.5 149T158 528t129 35q54 0 103-23.5t78-62.5v113h-76v74h76v76h142v-76h60v-74zM395 133.5q34 19.5 54 56t20 87.5-20 87.5-54 56-73 19.5-72-19-53.5-55.5T176 279t20.5-87.5 54-57.5 71.5-20q39 0 73 19.5z"/><glyph glyph-name="Emacron" unicode="Ē" horiz-adv-x="532" d="M209 585V410h235V299H209V114h265V0H69v699h405V585H209zm249 292V777H76v100h382z"/><glyph glyph-name="emacron" unicode="ē" horiz-adv-x="617" d="M580 235H175q5-60 42-94t91-34q78 0 111 67h151q-24-80-92-131.5T311-9q-80 0-143.5 35.5T68.5 127 33 277q0 86 35 151t98 100 145 35q79 0 141.5-34t97-96.5T584 289q0-30-4-54zm-141 94q-1 54-39 86.5T307 448q-52 0-87.5-31.5T176 329h263zm61 405V634H118v100h382z"/><glyph glyph-name="Ebreve" unicode="Ĕ" horiz-adv-x="532" d="M209 585V410h235V299H209V114h265V0H69v699h405V585H209zm175 199q-43-41-117-41-72 0-115.5 41.5T108 898v20h74q0-34 19-51.5t66-17.5 66 17.5 19 51.5h75v-21q0-72-43-113z"/><glyph glyph-name="ebreve" unicode="ĕ" horiz-adv-x="617" d="M580 235H175q5-60 42-94t91-34q78 0 111 67h151q-24-80-92-131.5T311-9q-80 0-143.5 35.5T68.5 127 33 277q0 86 35 151t98 100 145 35q79 0 141.5-34t97-96.5T584 289q0-30-4-54zm-141 94q-1 54-39 86.5T307 448q-52 0-87.5-31.5T176 329h263zm-14 312q-43-41-117-41-72 0-115.5 41.5T149 755v20h74q0-34 19-51.5t66-17.5 66 17.5 19 51.5h75v-21q0-72-43-113z"/><glyph glyph-name="Edotaccent" unicode="Ė" horiz-adv-x="532" d="M209 585V410h235V299H209V114h265V0H69v699h405V585H209zm10 199q-19 19-19 47t19 47.5 47 19.5 47.5-19.5T333 831t-19.5-47-47.5-19-47 19z"/><glyph glyph-name="edotaccent" unicode="ė" horiz-adv-x="617" d="M580 235H175q5-60 42-94t91-34q78 0 111 67h151q-24-80-92-131.5T311-9q-80 0-143.5 35.5T68.5 127 33 277q0 86 35 151t98 100 145 35q79 0 141.5-34t97-96.5T584 289q0-30-4-54zm-141 94q-1 54-39 86.5T307 448q-52 0-87.5-31.5T176 329h263zM261 641q-19 19-19 47t19 47.5 47 19.5 47.5-19.5T375 688t-19.5-47-47.5-19-47 19z"/><glyph glyph-name="Eogonek" unicode="Ę" horiz-adv-x="532" d="M486-115v-84q-43-15-89-15-59 0-99.5 27.5T257-103q0 58 57 103H69v699h405V585H209V410h235V299H209V114h265V0l-47-24q-34-17-48-32.5T365-90t13.5-29 36.5-11q32 0 71 15z"/><glyph glyph-name="eogonek" unicode="ę" horiz-adv-x="617" d="M580 235H175q5-60 42-94t91-34q78 0 111 67h151q-19-63-65-109T390 1l-23-12q-34-17-48-32.5T305-77t13.5-29 36.5-11q32 0 71 15v-84q-43-15-89-15-59 0-99.5 27.5T197-90q0 51 41 89-93 22-149 96T33 277q0 86 35 151t98 100 145 35q79 0 141.5-34t97-96.5T584 289q0-30-4-54zm-141 94q-1 54-39 86.5T307 448q-52 0-87.5-31.5T176 329h263z"/><glyph glyph-name="Ecaron" unicode="Ě" horiz-adv-x="532" d="M209 585V410h235V299H209V114h265V0H69v699h405V585H209zm206 234-148-81-149 81v102l149-86 148 86V819z"/><glyph glyph-name="ecaron" unicode="ě" horiz-adv-x="617" d="M580 235H175q5-60 42-94t91-34q78 0 111 67h151q-24-80-92-131.5T311-9q-80 0-143.5 35.5T68.5 127 33 277q0 86 35 151t98 100 145 35q79 0 141.5-34t97-96.5T584 289q0-30-4-54zm-141 94q-1 54-39 86.5T307 448q-52 0-87.5-31.5T176 329h263zm18 347-148-81-149 81v102l149-86 148 86V676z"/><glyph glyph-name="Gbreve" unicode="Ğ" horiz-adv-x="768" d="M555 488q-24 44-66 67t-98 23q-62 0-110-28t-75-80-27-120q0-70 27.5-122t76.5-80 114-28q80 0 131 42.5T595 281H355v107h378V266q-14-73-60-135T554.5 31.5 392-6Q291-6 209.5 39.5T81.5 166 35 350t46.5 184.5 128 127T391 707q118 0 205-57.5T716 488H555zm-55 296q-43-41-117-41-72 0-115.5 41.5T224 898v20h74q0-34 19-51.5t66-17.5 66 17.5 19 51.5h75v-21q0-72-43-113z"/><glyph glyph-name="gbreve" unicode="ğ" horiz-adv-x="678" d="M395 538.5q47-24.5 74-63.5v79h141V-4q0-77-31-137.5t-93-96T336-273q-118 0-193.5 55T57-68h139q11-38 47.5-60.5T332-151q61 0 99 36.5T469-4v86q-27-39-74.5-65T286-9q-70 0-128 36T66.5 128.5 33 279q0 84 33.5 149t91 100T286 563q62 0 109-24.5zm54-174q-20 36.5-54 56T322 440t-72-19-53.5-55.5T176 279t20.5-87.5 54-57.5 71.5-20q39 0 73 19.5t54 56 20 87.5-20 87.5zm9 274.5q-43-41-117-41-72 0-115.5 41.5T182 753v20h74q0-34 19-51.5t66-17.5 66 17.5 19 51.5h75v-21q0-72-43-113z"/><glyph glyph-name="Gdotaccent" unicode="Ġ" horiz-adv-x="768" d="M555 488q-24 44-66 67t-98 23q-62 0-110-28t-75-80-27-120q0-70 27.5-122t76.5-80 114-28q80 0 131 42.5T595 281H355v107h378V266q-14-73-60-135T554.5 31.5 392-6Q291-6 209.5 39.5T81.5 166 35 350t46.5 184.5 128 127T391 707q118 0 205-57.5T716 488H555zM336 784q-19 19-19 47t19 47.5 47 19.5 47.5-19.5T450 831t-19.5-47-47.5-19-47 19z"/><glyph glyph-name="gdotaccent" unicode="ġ" horiz-adv-x="678" d="M395 538.5q47-24.5 74-63.5v79h141V-4q0-77-31-137.5t-93-96T336-273q-118 0-193.5 55T57-68h139q11-38 47.5-60.5T332-151q61 0 99 36.5T469-4v86q-27-39-74.5-65T286-9q-70 0-128 36T66.5 128.5 33 279q0 84 33.5 149t91 100T286 563q62 0 109-24.5zm54-174q-20 36.5-54 56T322 440t-72-19-53.5-55.5T176 279t20.5-87.5 54-57.5 71.5-20q39 0 73 19.5t54 56 20 87.5-20 87.5zM293 639q-19 19-19 47t19 47.5 47 19.5 47.5-19.5T407 686t-19.5-47-47.5-19-47 19z"/><glyph glyph-name="uni0122" unicode="Ģ" horiz-adv-x="769" d="M555 488q-24 44-66 67t-98 23q-62 0-110-28t-75-80-27-120q0-70 27.5-122t76.5-80 114-28q80 0 131 42.5T595 281H355v107h378V266q-14-73-60-135T554.5 31.5 392-6Q291-6 209.5 39.5T81.5 166 35 350t46.5 184.5 128 127T391 707q118 0 205-57.5T716 488H555zm-98-639q0-66-32-102t-94-36v57q50 0 50 62v18h-57v109h116q17-62 17-108z"/><glyph glyph-name="uni0123" unicode="ģ" horiz-adv-x="678" d="M272 705q0 66 31.5 102t93.5 36v-57q-50 0-50-61v-18h57V597H288q-16 58-16 108zm123-166.5q47-24.5 74-63.5v79h141V-4q0-77-31-137.5t-93-96T336-273q-118 0-193.5 55T57-68h139q11-38 47.5-60.5T332-151q61 0 99 36.5T469-4v86q-27-39-74.5-65T286-9q-70 0-128 36T66.5 128.5 33 279q0 84 33.5 149t91 100T286 563q62 0 109-24.5zm54-174q-20 36.5-54 56T322 440t-72-19-53.5-55.5T176 279t20.5-87.5 54-57.5 71.5-20q39 0 73 19.5t54 56 20 87.5-20 87.5z"/><glyph glyph-name="Itilde" unicode="Ĩ" horiz-adv-x="278" d="M209 698V0H69v698h140zM.5 850.5Q33 883 83 883q21 0 37-6.5t36-18.5q30-19 50-19 37 0 43 43h75q-9-66-41.5-98.5T200 751q-21 0-37 6.5T127 776q-29 20-50 20-37 0-44-44h-74q9 66 41.5 98.5z"/><glyph glyph-name="itilde" unicode="ĩ" horiz-adv-x="290" d="M215 554V0H75v554h140zM7.5 705.5Q40 738 90 738q21 0 37-6.5t36-18.5q30-19 50-19 37 0 43 43h75q-9-66-41.5-98.5T207 606q-21 0-37 6.5T134 631q-29 20-50 20-37 0-44-44h-74q9 66 41.5 98.5z"/><glyph glyph-name="Imacron" unicode="Ī" horiz-adv-x="278" d="M209 698V0H69v698h140zm122 179V777H-51v100h382z"/><glyph glyph-name="imacron" unicode="ī" horiz-adv-x="290" d="M215 554V0H75v554h140zm122 178V632H-45v100h382z"/><glyph glyph-name="uni012C" unicode="Ĭ" horiz-adv-x="278" d="M209 698V0H69v698h140zm47 86q-43-41-117-41-72 0-115.5 41.5T-20 898v20h74q0-34 19-51.5t66-17.5 66 17.5 19 51.5h75v-21q0-72-43-113z"/><glyph glyph-name="uni012D" unicode="ĭ" horiz-adv-x="290" d="M215 554V0H75v554h140zm47 85q-43-41-117-41-72 0-115.5 41.5T-14 753v20h74q0-34 19-51.5t66-17.5 66 17.5 19 51.5h75v-21q0-72-43-113z"/><glyph glyph-name="Iogonek" unicode="Į" horiz-adv-x="278" d="M221-114v-84q-43-15-89-15-59 0-99.5 27.5T-8-102q0 33 18 61.5T69 15v683h140V0h-2l-45-23q-34-17-48-32.5T100-89t13.5-29 36.5-11q32 0 71 15z"/><glyph glyph-name="iogonek" unicode="į" horiz-adv-x="278" d="M78.5 643.5Q54 667 54 702t24.5 58.5T140 784t61.5-23.5T226 702t-24.5-58.5T140 620t-61.5 23.5zm35-761.5q13.5-11 36.5-11 32 0 71 15v-84q-43-15-89-15-59 0-99.5 27.5T-8-102q0 33 18 61.5T69 15v539h140V0h-2l-45-23q-34-17-48-32.5T100-89t13.5-29z"/><glyph glyph-name="Idotaccent" unicode="İ" horiz-adv-x="278" d="M209 698V0H69v698h140zM92 784q-19 19-19 47t19 47.5 47 19.5 47.5-19.5T206 831t-19.5-47-47.5-19-47 19z"/><glyph glyph-name="dotlessi" unicode="ı" horiz-adv-x="290" d="M215 554V0H75v554h140z"/><glyph glyph-name="uni0136" unicode="Ķ" horiz-adv-x="673" d="M640 0H463L209 311V0H69v698h140V385l254 313h169L344 352zM392-43q17-57 17-108 0-66-32-102t-93-36v57q50 0 50 62v18h-58v109h116z"/><glyph glyph-name="uni0137" unicode="ķ" horiz-adv-x="584" d="M579 0H397L209 236V0H69v740h140V319l186 235h182L333 276zM349-43q16-58 16-108 0-66-32-102t-93-36v57q50 0 50 62v18h-57v109h116z"/><glyph glyph-name="Lacute" unicode="Ĺ" horiz-adv-x="459" d="M209 111h230V0H69v698h140V111zm124 732L103 738v100l230 119V843z"/><glyph glyph-name="lacute" unicode="ĺ" horiz-adv-x="278" d="M209 740V0H69v740h140zm39 144L18 779v100l230 119V884z"/><glyph glyph-name="uni013B" unicode="Ļ" horiz-adv-x="460" d="M209 111h230V0H69v698h140V111zm121-262q0-66-31.5-102T204-289v57q26 0 38.5 15t12.5 47v18h-58v109h116q17-57 17-108z"/><glyph glyph-name="uni013C" unicode="ļ" horiz-adv-x="278" d="M209 740V0H69v740h140zm4-891q0-66-32-102t-94-36v57q51 0 51 62v18H80v109h116q17-62 17-108z"/><glyph glyph-name="Lcaron" unicode="Ľ" horiz-adv-x="491" d="M209 111h230V0H69v698h140V111zm238 480q0-66-31.5-102T323 453v57q49 0 49 61v19h-57v108h116q16-52 16-107z"/><glyph glyph-name="lcaron" unicode="ľ" horiz-adv-x="449" d="M209 740V0H69v740h140zm205-108q0-66-31.5-101.5T289 495v57q50 0 50 60v19h-58v109h116q17-55 17-108z"/><glyph glyph-name="Ldot" unicode="Ŀ" horiz-adv-x="459" d="M69 698h140V111h230V0H69v698zm251-361q-19 19-19 47t19 47.5 47 19.5 47.5-19.5T434 384t-19.5-47-47.5-19-47 19z"/><glyph glyph-name="ldot" unicode="ŀ" horiz-adv-x="345" d="M69 740h140V0H69v740zm194.5-423Q244 336 244 364t19.5 47.5T311 431t47-19.5 19-47.5-19-47-47-19-47.5 19z"/><glyph glyph-name="Lslash" unicode="Ł" horiz-adv-x="463" d="M451 107V0H81v283L9 261v113l72 22v302h141V441l88 27V354l-88-27V107h229z"/><glyph glyph-name="lslash" unicode="ł" horiz-adv-x="290" d="m282 353-67-22V0H75v286L9 265v115l66 21v339h140V446l67 21V353z"/><glyph glyph-name="Nacute" unicode="Ń" horiz-adv-x="735" d="M666 0H526L209 479V0H69v699h140l317-480v480h140V0zM477 843 247 738v100l230 119V843z"/><glyph glyph-name="nacute" unicode="ń" horiz-adv-x="661" d="M536 499.5Q597 437 597 325V0H457v306q0 66-33 101.5T334 443q-58 0-91.5-35.5T209 306V0H69v554h140v-69q28 36 71.5 56.5T376 562q99 0 160-62.5zM456 698 226 593v100l230 119V698z"/><glyph glyph-name="uni0145" unicode="Ņ" horiz-adv-x="747" d="M666 0H526L209 479V0H69v699h140l317-480v480h140V0zM446-151q0-66-31.5-102T321-289v57q50 0 50 62v18h-58v109h116q17-57 17-108z"/><glyph glyph-name="uni0146" unicode="ņ" horiz-adv-x="661" d="M536 499.5Q597 437 597 325V0H457v306q0 66-33 101.5T334 443q-58 0-91.5-35.5T209 306V0H69v554h140v-69q28 36 71.5 56.5T376 562q99 0 160-62.5zM392-43q16-53 16-108 0-66-31.5-102T284-289v57q49 0 49 62v18h-57v109h116z"/><glyph glyph-name="Ncaron" unicode="Ň" horiz-adv-x="735" d="M666 0H526L209 479V0H69v699h140l317-480v480h140V0zM516 819l-148-81-149 81v102l149-86 148 86V819z"/><glyph glyph-name="ncaron" unicode="ň" horiz-adv-x="661" d="M536 499.5Q597 437 597 325V0H457v306q0 66-33 101.5T334 443q-58 0-91.5-35.5T209 306V0H69v554h140v-69q28 36 71.5 56.5T376 562q99 0 160-62.5zM495 674l-148-81-149 81v102l149-86 148 86V674z"/><glyph glyph-name="Omacron" unicode="Ō" horiz-adv-x="785" d="M213 39Q131 85 83 166.5T35 351q0 102 48 183.5T213 662t180 46q99 0 180.5-46t129-127.5T750 351q0-103-47.5-184.5T573 39 393-7 213 39zm291 107.5q48 28.5 75 81.5t27 123-27 122.5-75 80.5-111 28-111.5-28-75.5-80.5T179 351t27-123 75.5-81.5T393 118t111 28.5zM584 877V777H202v100h382z"/><glyph glyph-name="omacron" unicode="ō" horiz-adv-x="638" d="M171 26.5Q107 62 70.5 127T34 277t37.5 150T174 527.5 319 563t145-35.5T566.5 427 604 277t-38.5-150-104-100.5T315-9q-80 0-144 35.5zm215.5 105Q420 150 440 187t20 90q0 79-41.5 121.5T317 441t-100.5-42.5T176 277t39.5-121.5T315 113q38 0 71.5 18.5zM516 739V639H134v100h382z"/><glyph glyph-name="uni014E" unicode="Ŏ" horiz-adv-x="785" d="M213 39Q131 85 83 166.5T35 351q0 102 48 183.5T213 662t180 46q99 0 180.5-46t129-127.5T750 351q0-103-47.5-184.5T573 39 393-7 213 39zm291 107.5q48 28.5 75 81.5t27 123-27 122.5-75 80.5-111 28-111.5-28-75.5-80.5T179 351t27-123 75.5-81.5T393 118t111 28.5zm5 637.5q-43-41-117-41-72 0-115.5 41.5T233 898v20h74q0-34 19-51.5t66-17.5 66 17.5 19 51.5h75v-21q0-72-43-113z"/><glyph glyph-name="uni014F" unicode="ŏ" horiz-adv-x="638" d="M171 26.5Q107 62 70.5 127T34 277t37.5 150T174 527.5 319 563t145-35.5T566.5 427 604 277t-38.5-150-104-100.5T315-9q-80 0-144 35.5zm215.5 105Q420 150 440 187t20 90q0 79-41.5 121.5T317 441t-100.5-42.5T176 277t39.5-121.5T315 113q38 0 71.5 18.5zM442 646q-43-41-117-41-72 0-115.5 41.5T166 760v20h74q0-34 19-51.5t66-17.5 66 17.5 19 51.5h75v-21q0-72-43-113z"/><glyph glyph-name="Ohungarumlaut" unicode="Ő" horiz-adv-x="785" d="M213 39Q131 85 83 166.5T35 351q0 102 48 183.5T213 662t180 46q99 0 180.5-46t129-127.5T750 351q0-103-47.5-184.5T573 39 393-7 213 39zm291 107.5q48 28.5 75 81.5t27 123-27 122.5-75 80.5-111 28-111.5-28-75.5-80.5T179 351t27-123 75.5-81.5T393 118t111 28.5zM337 746h-88l72 188h116zm176 0h-89l82 188h116z"/><glyph glyph-name="ohungarumlaut" unicode="ő" horiz-adv-x="638" d="M171 26.5Q107 62 70.5 127T34 277t37.5 150T174 527.5 319 563t145-35.5T566.5 427 604 277t-38.5-150-104-100.5T315-9q-80 0-144 35.5zm215.5 105Q420 150 440 187t20 90q0 79-41.5 121.5T317 441t-100.5-42.5T176 277t39.5-121.5T315 113q38 0 71.5 18.5zM269 608h-88l72 188h116zm176 0h-89l82 188h116z"/><glyph glyph-name="OE" unicode="Œ" horiz-adv-x="1072" d="M749 407h235V300H749V111h265V0H609v93Q529-6 382-8q-95 0-174.5 46t-126 127.5T35 350t46.5 184.5 126 127.5T381 708q71 0 129-25t99-74v89h405V588H749V407zM206 229q27-52 75.5-80.5T393 120t111 28.5 75 80.5 27 121-27 121-75 80-111 28-111.5-28-75.5-80-27-121 27-121z"/><glyph glyph-name="oe" unicode="œ" horiz-adv-x="1052" d="M1009 238H604q4-63 39.5-97t90.5-34q78 0 111 67h151q-24-80-92.5-131.5T736-9q-65 0-117.5 26.5T530 93q-37-49-93.5-75.5T315-9q-80 0-144.5 35.5T69.5 127 33 277t37.5 150 103 100.5T319 563q64 0 119-26t93-74q35 48 89 74t120 26q79 0 141.5-34t97-96 34.5-143q0-28-4-52zm-141 82q-1 59-38.5 93.5T736 448q-53 0-89-34t-42-94h263zM386.5 130q33.5 19 53.5 56.5t20 90.5-20 90.5-52.5 56.5-71.5 19q-38 0-69.5-19t-51-56.5T176 277q0-79 40-122.5t99-43.5q38 0 71.5 19z"/><glyph glyph-name="Racute" unicode="Ŕ" horiz-adv-x="641" d="M429 0 275 272h-66V0H69v698h262q81 0 138-28.5t85.5-77T583 484q0-69-40-124.5T424 283L591 0H429zM209 377h117q57 0 85 27.5t28 76.5q0 48-28 74.5T326 582H209V377zm218 466L197 738v100l230 119V843z"/><glyph glyph-name="racute" unicode="ŕ" horiz-adv-x="404" d="M279.5 537q43.5 25 99.5 25V415h-37q-66 0-99.5-31T209 276V0H69v554h140v-86q27 44 70.5 69zM358 698 128 593v100l230 119V698z"/><glyph glyph-name="uni0156" unicode="Ŗ" horiz-adv-x="649" d="M591 0H429L275 272h-66V0H69v698h262q81 0 138-28.5t85.5-77T583 484q0-69-40-124.5T424 283zM209 377h117q57 0 85 27.5t28 76.5q0 48-28 74.5T326 582H209V377zM380-43q16-58 16-108 0-66-31.5-102T271-289v57q50 0 50 62v18h-57v109h116z"/><glyph glyph-name="uni0157" unicode="ŗ" horiz-adv-x="404" d="M279.5 537q43.5 25 99.5 25V415h-37q-66 0-99.5-31T209 276V0H69v554h140v-86q27 44 70.5 69zM194-43q16-53 16-108 0-66-31.5-102T86-289v57q49 0 49 62v18H78v109h116z"/><glyph glyph-name="Rcaron" unicode="Ř" horiz-adv-x="641" d="M429 0 275 272h-66V0H69v698h262q81 0 138-28.5t85.5-77T583 484q0-69-40-124.5T424 283L591 0H429zM209 377h117q57 0 85 27.5t28 76.5q0 48-28 74.5T326 582H209V377zm258 442-148-81-149 81v102l149-86 148 86V819z"/><glyph glyph-name="rcaron" unicode="ř" horiz-adv-x="404" d="M279.5 537q43.5 25 99.5 25V415h-37q-66 0-99.5-31T209 276V0H69v554h140v-86q27 44 70.5 69zM398 674l-148-81-149 81v102l149-86 148 86V674z"/><glyph glyph-name="Sacute" unicode="Ś" horiz-adv-x="609" d="M178.5 18Q120 43 86 90T51 201h150q3-43 30.5-68t75.5-25q49 0 77 23.5t28 61.5q0 31-19 51t-47.5 31.5T267 301q-68 20-110.5 39.5t-73 59T53 505q0 62 31 108t87 70.5T299 708q108 0 175.5-52.5T549 509H395q-2 36-30.5 59.5T289 592q-41 0-65.5-21T199 510q0-28 18.5-46.5t46-30T341 407q68-20 111-40t74-60 31-105q0-56-29-104t-85-76.5T310-7q-73 0-131.5 25zM411 850 181 745v100l230 119V850z"/><glyph glyph-name="sacute" unicode="ś" horiz-adv-x="545" d="M159 15.5Q105 40 73.5 82T39 175h141q4-32 31.5-53t68.5-21q40 0 62.5 16t22.5 41q0 27-27.5 40.5T250 228q-62 15-101.5 31t-68 49T52 397q0 46 26.5 84t76 60T271 563q99 0 158-49.5T494 380H360q-3 33-27.5 52.5T267 452q-38 0-58.5-14T188 399q0-28 28-42.5t87-29.5q60-15 99-31t67.5-49.5T499 158q0-48-26.5-86t-76-59.5T281-9q-68 0-122 24.5zM384 705 154 600v100l230 119V705z"/><glyph glyph-name="uni015E" unicode="Ş" horiz-adv-x="609" d="M533.5 108q-23.5-44-69-74T356-4v-46q55 0 92.5-28t37.5-81q0-54-38.5-83T353-271H211v82h119q24 0 36.5 7t12.5 25-12.5 24.5T330-126h-62V-5Q172 6 112 60T51 201h150q3-43 30.5-68t75.5-25q49 0 77 23.5t28 61.5q0 31-19 51t-47.5 31.5T267 301q-68 20-110.5 39.5t-73 59T53 505q0 62 31 108t87 70.5T299 708q108 0 175.5-52.5T549 509H395q-2 36-30.5 59.5T289 592q-41 0-65.5-21T199 510q0-28 18.5-46.5t46-30T341 407q68-20 111-40t74-60 31-105q0-50-23.5-94z"/><glyph glyph-name="uni015F" unicode="ş" horiz-adv-x="545" d="M417.5-73q37.5-28 37.5-81 0-54-38.5-83T322-266H180v82h119q24 0 36.5 7t12.5 25-12.5 24.5T299-121h-62V-6Q151 5 97 55T39 175h141q4-32 31.5-53t68.5-21q40 0 62.5 16t22.5 41q0 27-27.5 40.5T250 228q-62 15-101.5 31t-68 49T52 397q0 46 26.5 84t76 60T271 563q99 0 158-49.5T494 380H360q-3 33-27.5 52.5T267 452q-38 0-58.5-14T188 399q0-28 28-42.5t87-29.5q60-15 99-31t67.5-49.5T499 158q0-64-46.5-109T325-6v-39q55 0 92.5-28z"/><glyph glyph-name="Scaron" unicode="Š" horiz-adv-x="609" d="M178.5 18Q120 43 86 90T51 201h150q3-43 30.5-68t75.5-25q49 0 77 23.5t28 61.5q0 31-19 51t-47.5 31.5T267 301q-68 20-110.5 39.5t-73 59T53 505q0 62 31 108t87 70.5T299 708q108 0 175.5-52.5T549 509H395q-2 36-30.5 59.5T289 592q-41 0-65.5-21T199 510q0-28 18.5-46.5t46-30T341 407q68-20 111-40t74-60 31-105q0-56-29-104t-85-76.5T310-7q-73 0-131.5 25zM451 826l-148-81-149 81v102l149-86 148 86V826z"/><glyph glyph-name="scaron" unicode="š" horiz-adv-x="545" d="M159 15.5Q105 40 73.5 82T39 175h141q4-32 31.5-53t68.5-21q40 0 62.5 16t22.5 41q0 27-27.5 40.5T250 228q-62 15-101.5 31t-68 49T52 397q0 46 26.5 84t76 60T271 563q99 0 158-49.5T494 380H360q-3 33-27.5 52.5T267 452q-38 0-58.5-14T188 399q0-28 28-42.5t87-29.5q60-15 99-31t67.5-49.5T499 158q0-48-26.5-86t-76-59.5T281-9q-68 0-122 24.5zM423 681l-148-81-149 81v102l149-86 148 86V681z"/><glyph glyph-name="uni0162" unicode="Ţ" horiz-adv-x="577" d="M335 0v-45q55 0 92.5-28t37.5-81q0-54-38.5-83T332-266H190v82h119q24 0 36.5 7t12.5 25-12.5 24.5T309-121h-62V0h-29v585H32v113h512V585H358V0h-23z"/><glyph glyph-name="uni0163" unicode="ţ" horiz-adv-x="388" d="M341.5-71Q379-99 379-152q0-54-38.5-83T246-264H104v82h119q24 0 36.5 7t12.5 25-12.5 24.5T223-119h-62V23Q91 63 91 172v267H25v115h66v137h141V554h124V439H232V171q0-28 13.5-40.5T291 118h65V0h-88q-13 0-19 1v-44q55 0 92.5-28z"/><glyph glyph-name="Tcaron" unicode="Ť" horiz-adv-x="577" d="M544 698V585H358V0H218v585H32v113h512zM436 819l-148-81-149 81v102l149-86 148 86V819z"/><glyph glyph-name="tcaron" unicode="ť" horiz-adv-x="391" d="M424 756.5q4-21.5 4-44.5 0-57-31.5-87T302 595v57q51 0 51 33v16h-58v109h116q9-32 13-53.5zM232 554h124V439H232V171q0-28 13.5-40.5T291 118h65V0h-88Q91 0 91 172v267H25v115h66v137h141V554z"/><glyph glyph-name="Utilde" unicode="Ũ" horiz-adv-x="697" d="M207 698V266q0-71 37-108.5T348 120q68 0 105 37.5T490 266v432h141V267q0-89-38.5-150.5T489.5 24 346-7q-78 0-141.5 31T104 116.5 67 267v431h140zm3.5 152.5Q243 883 293 883q21 0 37-6.5t36-18.5q30-19 50-19 37 0 43 43h75q-9-66-41.5-98.5T410 751q-21 0-37 6.5T337 776q-29 20-50 20-37 0-44-44h-74q9 66 41.5 98.5z"/><glyph glyph-name="utilde" unicode="ũ" horiz-adv-x="661" d="M592 554V0H451v70q-27-36-70.5-56.5T286-7q-65 0-115 27.5t-78.5 81T64 229v325h140V249q0-66 33-101.5t90-35.5q58 0 91 35.5T451 249v305h141zM192.5 705.5Q225 738 275 738q21 0 37-6.5t36-18.5q30-19 50-19 37 0 43 43h75q-9-66-41.5-98.5T392 606q-21 0-37 6.5T319 631q-29 20-50 20-37 0-44-44h-74q9 66 41.5 98.5z"/><glyph glyph-name="Umacron" unicode="Ū" horiz-adv-x="697" d="M207 698V266q0-71 37-108.5T348 120q68 0 105 37.5T490 266v432h141V267q0-89-38.5-150.5T489.5 24 346-7q-78 0-141.5 31T104 116.5 67 267v431h140zm333 179V777H158v100h382z"/><glyph glyph-name="umacron" unicode="ū" horiz-adv-x="661" d="M592 554V0H451v70q-27-36-70.5-56.5T286-7q-65 0-115 27.5t-78.5 81T64 229v325h140V249q0-66 33-101.5t90-35.5q58 0 91 35.5T451 249v305h141zm-70 178V632H140v100h382z"/><glyph glyph-name="Ubreve" unicode="Ŭ" horiz-adv-x="697" d="M207 698V266q0-71 37-108.5T348 120q68 0 105 37.5T490 266v432h141V267q0-89-38.5-150.5T489.5 24 346-7q-78 0-141.5 31T104 116.5 67 267v431h140zm258 86q-43-41-117-41-72 0-115.5 41.5T189 898v20h74q0-34 19-51.5t66-17.5 66 17.5 19 51.5h75v-21q0-72-43-113z"/><glyph glyph-name="ubreve" unicode="ŭ" horiz-adv-x="661" d="M592 554V0H451v70q-27-36-70.5-56.5T286-7q-65 0-115 27.5t-78.5 81T64 229v325h140V249q0-66 33-101.5t90-35.5q58 0 91 35.5T451 249v305h141zm-144 85q-43-41-117-41-72 0-115.5 41.5T172 753v20h74q0-34 19-51.5t66-17.5 66 17.5 19 51.5h75v-21q0-72-43-113z"/><glyph glyph-name="Uring" unicode="Ů" horiz-adv-x="697" d="M207 698V266q0-71 37-108.5T348 120q68 0 105 37.5T490 266v432h141V267q0-89-38.5-150.5T489.5 24 346-7q-78 0-141.5 31T104 116.5 67 267v431h140zm225.5 80.5Q399 747 349 747q-49 0-83 31.5T232 862t34 83.5 83 31.5q50 0 83.5-31.5T466 862t-33.5-83.5zm-49.5 120Q369 912 349 912t-34-13.5-14-36.5q0-21 14-35.5t34-14.5 34 14.5 14 35.5q0 23-14 36.5z"/><glyph glyph-name="uring" unicode="ů" horiz-adv-x="661" d="M592 554V0H451v70q-27-36-70.5-56.5T286-7q-65 0-115 27.5t-78.5 81T64 229v325h140V249q0-66 33-101.5t90-35.5q58 0 91 35.5T451 249v305h141zm-177.5 79.5Q381 602 331 602q-49 0-83 31.5T214 717t34 83.5 83 31.5q50 0 83.5-31.5T448 717t-33.5-83.5zm-49.5 120Q351 767 331 767t-34-13.5-14-36.5q0-21 14-35.5t34-14.5 34 14.5 14 35.5q0 23-14 36.5z"/><glyph glyph-name="Uhungarumlaut" unicode="Ű" horiz-adv-x="697" d="M207 698V266q0-71 37-108.5T348 120q68 0 105 37.5T490 266v432h141V267q0-89-38.5-150.5T489.5 24 346-7q-78 0-141.5 31T104 116.5 67 267v431h140zm86 48h-88l72 188h116zm176 0h-89l82 188h116z"/><glyph glyph-name="uhungarumlaut" unicode="ű" horiz-adv-x="661" d="M592 554V0H451v70q-27-36-70.5-56.5T286-7q-65 0-115 27.5t-78.5 81T64 229v325h140V249q0-66 33-101.5t90-35.5q58 0 91 35.5T451 249v305h141zm-317 47h-88l72 188h116zm176 0h-89l82 188h116z"/><glyph glyph-name="Uogonek" unicode="Ų" horiz-adv-x="697" d="M631 698V267q0-109-57-176.5T425 2V1l-47-24q-34-17-48-32.5T316-89t13.5-29 36.5-11q32 0 71 15v-84q-43-15-89-15-59 0-99.5 27.5T208-102q0 59 58 104-90 21-144.5 88.5T67 267v431h140V266q0-71 37-108.5T348 120q68 0 105 37.5T490 266v432h141z"/><glyph glyph-name="uogonek" unicode="ų" horiz-adv-x="661" d="M604-116v-84q-43-15-89-15-59 0-99.5 27.5T375-104q0 68 76 116v58q-27-36-70.5-56.5T286-7q-65 0-115 27.5t-78.5 81T64 229v325h140V249q0-66 33-101.5t90-35.5q58 0 91 35.5T451 249v305h141V-1l-47-24q-34-17-48-32.5T483-91t13.5-29 36.5-11q32 0 71 15z"/><glyph glyph-name="Wcircumflex" unicode="Ŵ" horiz-adv-x="1024" d="M1002 698 807 0H642L511 497 374 0 210-1 22 698h150l123-542 142 542h156l134-539 124 539h151zM509 826l-149-84v102l149 81 148-81V742z"/><glyph glyph-name="wcircumflex" unicode="ŵ" horiz-adv-x="844" d="M837 554 675 0H524L423 387 322 0H170L7 554h142l98-422 106 422h148l104-421 98 421h134zM423 677l-149-84v102l149 81 148-81V593z"/><glyph glyph-name="Ycircumflex" unicode="Ŷ" horiz-adv-x="636" d="M624 698 388 243V0H248v243L11 698h158l150-319 149 319h156zM319 822l-149-84v102l149 81 148-81V738z"/><glyph glyph-name="ycircumflex" unicode="ŷ" horiz-adv-x="605" d="M599 554 256-262H107L227 14 5 554h157l143-387 145 387h149zM303 677l-149-84v102l149 81 148-81V593z"/><glyph glyph-name="Ydieresis" unicode="Ÿ" horiz-adv-x="636" d="M624 698 388 243V0H248v243L11 698h158l150-319 149 319h156zm-446 86q-19 19-19 47t19 47.5 47 19.5 47.5-19.5T292 831t-19.5-47-47.5-19-47 19zm185 0q-19 19-19 47t19 47.5 47 19.5 47.5-19.5T477 831t-19.5-47-47.5-19-47 19z"/><glyph glyph-name="Zacute" unicode="Ź" horiz-adv-x="576" d="M212 118h314V0H50v108l312 472H50v118h476V590zm185 725L167 738v100l230 119V843z"/><glyph glyph-name="zacute" unicode="ź" horiz-adv-x="483" d="M197 115h247V0H38v113l242 326H39v115h402V441zm155 583L122 593v100l230 119V698z"/><glyph glyph-name="Zdotaccent" unicode="Ż" horiz-adv-x="576" d="M212 118h314V0H50v108l312 472H50v118h476V590zm28 666q-19 19-19 47t19 47.5 47 19.5 47.5-19.5T354 831t-19.5-47-47.5-19-47 19z"/><glyph glyph-name="zdotaccent" unicode="ż" horiz-adv-x="483" d="M197 115h247V0H38v113l242 326H39v115h402V441zm-1 524q-19 19-19 47t19 47.5 47 19.5 47.5-19.5T310 686t-19.5-47-47.5-19-47 19z"/><glyph glyph-name="Zcaron" unicode="Ž" horiz-adv-x="576" d="M212 118h314V0H50v108l312 472H50v118h476V590zm224 701-148-81-149 81v102l149-86 148 86V819z"/><glyph glyph-name="zcaron" unicode="ž" horiz-adv-x="483" d="M197 115h247V0H38v113l242 326H39v115h402V441zm195 559-148-81-149 81v102l149-86 148 86V674z"/><glyph glyph-name="uni018F" unicode="Ə" horiz-adv-x="781" d="M567.5 665Q645 620 688 538.5T731 351t-42.5-187T569 38 391-7Q291-7 214.5 33T96 149 54 330q0 36 4 65h523q-5 86-57.5 137T391 583q-61 0-106-27.5T220 479H64q33 105 119.5 168T390 710q100 0 177.5-45zm-47-500Q574 209 581 285H199q3-74 56-119t135-45q77 0 130.5 44z"/><glyph glyph-name="florin" unicode="ƒ" horiz-adv-x="334" d="M254 642q-21-17-25-57l-3-31h91l-11-115h-93L159-72q-9-91-58.5-129.5T-35-240h-24l12 118h21q20 0 31 12t14 38l54 511H13l12 115h60l3 31q11 100 70 146t175 46l-12-118q-46 0-67-17z"/><glyph glyph-name="uni01FC" unicode="Ǽ" horiz-adv-x="937" d="M617 589V409h232V301H617V111h262V0H476v131H231L162 0H9l372 699h498V589H617zM476 239v358L288 239h188zm171 605L417 739v100l230 119V844z"/><glyph glyph-name="uni01FD" unicode="ǽ" horiz-adv-x="1080" d="M1040 238H613q8-63 49.5-97t93.5-34q48 0 79 18t44 49h151q-23-80-86-131.5T791-9q-61 0-111.5 25T600 82V0H472v82q-31-41-79-66T286-9q-70 0-128 36T66.5 128.5 33 279t33.5 149.5T159 528t132 35q116 0 183-87v78h126v-78q36 45 83 66t108 21q74 0 131.5-34.5t90-97T1045 290q0-22-5-52zm-140 85q-1 57-41 91t-100 34q-55 0-95.5-33.5T613 323h287zM395 133.5q34 19.5 54 56t20 87.5-20 87.5-54 56-73 19.5-72-19-53.5-55.5T176 279t20.5-87.5 54-57.5 71.5-20q39 0 73 19.5zM697 698 467 593v100l230 119V698z"/><glyph glyph-name="uni0218" unicode="Ș" horiz-adv-x="624" d="M178.5 18Q120 43 86 90T51 201h150q3-43 30.5-68t75.5-25q49 0 77 23.5t28 61.5q0 31-19 51t-47.5 31.5T267 301q-68 20-110.5 39.5t-73 59T53 505q0 62 31 108t87 70.5T299 708q108 0 175.5-52.5T549 509H395q-2 36-30.5 59.5T289 592q-41 0-65.5-21T199 510q0-28 18.5-46.5t46-30T341 407q68-20 111-40t74-60 31-105q0-56-29-104t-85-76.5T310-7q-73 0-131.5 25zM385-151q0-66-32-102t-94-36v57q50 0 50 62v18h-57v109h116q17-57 17-108z"/><glyph glyph-name="uni0219" unicode="ș" horiz-adv-x="545" d="M159 15.5Q105 40 73.5 82T39 175h141q4-32 31.5-53t68.5-21q40 0 62.5 16t22.5 41q0 27-27.5 40.5T250 228q-62 15-101.5 31t-68 49T52 397q0 46 26.5 84t76 60T271 563q99 0 158-49.5T494 380H360q-3 33-27.5 52.5T267 452q-38 0-58.5-14T188 399q0-28 28-42.5t87-29.5q60-15 99-31t67.5-49.5T499 158q0-48-26.5-86t-76-59.5T281-9q-68 0-122 24.5zM344-151q0-66-31.5-102T219-289v57q50 0 50 62v18h-57v109h116q16-58 16-108z"/><glyph glyph-name="uni021A" unicode="Ț" horiz-adv-x="577" d="M544 698V585H358V0H218v585H32v113h512zM360-151q0-66-31.5-102T235-289v57q51 0 51 62v18h-58v109h116q16-58 16-108z"/><glyph glyph-name="uni021B" unicode="ț" horiz-adv-x="388" d="M232 439V171q0-28 13.5-40.5T291 118h65V0h-88Q91 0 91 172v267H25v115h66v137h141V554h124V439H232zm20-482q17-57 17-108 0-66-32-102t-94-36v57q50 0 50 62v18h-57v109h116z"/><glyph glyph-name="uni0259" unicode="ə" horiz-adv-x="617" d="M449.5 527.5Q513 492 548.5 427T584 277q0-86-35-151T451 26 306-9q-79 0-141.5 34t-97 96.5T33 265q0 30 4 54h405q-5 60-42 94t-91 34q-78 0-111-67H47q24 80 92 131.5T306 563q80 0 143.5-35.5zm-52-390Q433 169 441 225H178q1-54 39-86.5t93-32.5q52 0 87.5 31.5z"/><glyph glyph-name="uni02BC" unicode="ʼ" horiz-adv-x="275" d="M97 698h147L136 446H40z"/><glyph glyph-name="circumflex" unicode="ˆ" horiz-adv-x="317" d="M159 677 10 593v102l149 81 148-81V593z"/><glyph glyph-name="caron" unicode="ˇ" horiz-adv-x="317" d="m307 674-148-81-149 81v102l149-86 148 86V674z"/><glyph glyph-name="uni02C9" unicode="ˉ" horiz-adv-x="402" d="M392 732V632H10v100h382z"/><glyph glyph-name="breve" unicode="˘" horiz-adv-x="339" d="M286 639q-43-41-117-41-72 0-115.5 41.5T10 753v20h74q0-34 19-51.5t66-17.5 66 17.5 19 51.5h75v-21q0-72-43-113z"/><glyph glyph-name="dotaccent" unicode="˙" horiz-adv-x="153" d="M29 639q-19 19-19 47t19 47.5T76 753t47.5-19.5T143 686t-19.5-47T76 620t-47 19z"/><glyph glyph-name="ring" unicode="˚" horiz-adv-x="249" d="M208.5 633.5Q175 602 125 602q-49 0-83 31.5T8 717t34 83.5 83 31.5q50 0 83.5-31.5T242 717t-33.5-83.5zm-49.5 120Q145 767 125 767t-34-13.5T77 717q0-21 14-35.5t34-14.5 34 14.5 14 35.5q0 23-14 36.5z"/><glyph glyph-name="ogonek" unicode="˛" horiz-adv-x="251" d="m229 0-47-24q-34-17-48-32.5T120-90t13.5-29 36.5-11q32 0 71 15v-84q-43-15-89-15-59 0-99.5 27.5T12-103q0 44 32.5 81T156 49l40 18z"/><glyph glyph-name="tilde" unicode="˜" horiz-adv-x="381" d="M49.5 705.5Q82 738 132 738q21 0 37-6.5t36-18.5q30-19 50-19 37 0 43 43h75q-9-66-41.5-98.5T249 606q-21 0-37 6.5T176 631q-29 20-50 20-37 0-44-44H8q9 66 41.5 98.5z"/><glyph glyph-name="hungarumlaut" unicode="˝" horiz-adv-x="401" d="M98 601H10l72 188h116zm176 0h-89l82 188h116z"/><glyph glyph-name="pi" unicode="π" horiz-adv-x="706" d="M678 554V446h-74V0H464v446H240V0H99v446H26v108h652z"/><glyph glyph-name="dvCandrabindu" unicode="ँ" horiz-adv-x="0" d="M-123.5 999.5Q-139 984-162 984q-22 0-37.5 16t-15.5 38 15.5 37.5 37.5 15.5q23 0 38.5-15.5t15.5-37.5q0-23-15.5-38.5zm129-132Q-53 814-161 814q-109 0-167.5 53.5T-387 1011h103q0-43 32.5-74t90.5-31q57 0 89 31t32 74H64q0-90-58.5-143.5z"/><glyph glyph-name="dvAnusvara" unicode="ं" horiz-adv-x="0" d="M-100.5 844.5Q-123 822-156 822t-55.5 22.5T-234 899q0 33 22.5 55.5T-156 977t55.5-22.5T-78 899q0-32-22.5-54.5z"/><glyph glyph-name="dvVisarga" unicode="ः" horiz-adv-x="262" d="M186 422.5Q163 400 131 400q-33 0-56 22.5T52 477q0 33 23 55.5t56 22.5q32 0 55-22.5t23-55.5q0-32-23-54.5zm0-296Q163 104 131 104q-33 0-56 22.5T52 182q0 32 23 54.5t56 22.5q32 0 55-22.5t23-54.5q0-33-23-55.5z"/><glyph glyph-name="dvA" unicode="अ" horiz-adv-x="835" d="M855 740V632H744V0H615v287l-117 1q3-19 3-37 0-88-56-141T296 57q-68 0-120.5 26T94 156.5 65 265h121q0-42 28-69.5t73-27.5 71 26.5 26 68.5q0 41-28 69.5T273 361h-43v104h43q48 0 75 25t27 61q0 40-25.5 64.5T286 640q-41 0-68-24t-27-62H72q0 58 27 102.5t75.5 68.5T286 749q92 0 148-49t56-131q0-55-29-95.5T379 417v-2q26-5 50-21h186v346h240z"/><glyph glyph-name="dvAA" unicode="आ" horiz-adv-x="1139" d="M1165 632h-111V0H925v632H744V0H615v287l-117 1q3-19 3-37 0-88-56-141T296 57q-68 0-120.5 26T94 156.5 65 265h121q0-42 28-69.5t73-27.5 71 26.5 26 68.5q0 41-28 69.5T273 361h-43v104h43q48 0 75 25t27 61q0 40-25.5 64.5T286 640q-41 0-68-24t-27-62H72q0 58 27 102.5t75.5 68.5T286 749q92 0 148-49t56-131q0-55-29-95.5T379 417v-2q26-5 50-21h186v346h550V632z"/><glyph glyph-name="dvI" unicode="इ" horiz-adv-x="579" d="M223.5 435Q198 421 198 388q0-30 21.5-44.5T277 329h44q88 0 147-41.5T527 153q0-74-46.5-121.5T351-16q-54 0-89.5 21T208 51V-81H86v256h116q4-44 33.5-69.5T314 80q44 0 67.5 21.5T405 156q0 43-30 62.5T297 238h-59q-71 3-120 40T69 389q0 78 52 115.5T252 542h91v90H-27v108h633V632H467V449H286q-37 0-62.5-14z"/><glyph glyph-name="dvII" unicode="ई" horiz-adv-x="579" d="M599 825q1 38-16.5 60.5T534 908q-35 0-52-25t-17-74v-69h141V632H467V449H286q-37 0-62.5-14T198 388q0-30 21.5-44.5T277 329h44q88 0 147-41.5T527 153q0-74-46.5-121.5T351-16q-54 0-89.5 21T208 51V-81H86v256h116q4-44 33.5-69.5T314 80q44 0 67.5 21.5T405 156q0 43-30 62.5T297 238h-59q-71 3-120 40T69 389q0 78 52 115.5T252 542h91v90H-27v108h372v68q0 90 44 149t142 59q89 0 137-51.5T712 825H599z"/><glyph glyph-name="dvU" unicode="उ" horiz-adv-x="569" d="M461.5 455Q434 415 390 406v-2q57-15 91.5-65.5T516 220q0-64-27-113t-77.5-76.5T291 3q-72 0-128 28.5t-87.5 81T44 234h123q0-50 33.5-82.5T285 119q50 0 79.5 31t29.5 80q0 47-29 81t-87 34h-55v113h37q50 0 77.5 27.5T365 562v70H-21v108h611V632H489v-77q0-60-27.5-100z"/><glyph glyph-name="dvUU" unicode="ऊ" horiz-adv-x="857" d="M461.5 455Q434 415 390 406v-2h189q107 0 170-49t63-148q0-87-51.5-136T620 22q-22 0-54 5v98q11-1 32-1 41 0 65.5 21.5T688 212t-29.5 67-77.5 22h-84q18-39 18-88 0-60-27-108t-77.5-75T291 3q-72 0-128 28.5t-87.5 81T44 234h123q0-50 33.5-82.5T285 119q50 0 79.5 31t29.5 80q0 47-29 81t-87 34h-55v113h37q50 0 77.5 27.5T365 562v70H-21v108h898V632H489v-77q0-60-27.5-100z"/><glyph glyph-name="dvvR" unicode="ऋ" horiz-adv-x="1040" d="M604 632V446h158q71 0 71 62v45h111V202h-23q-47 0-71.5-23.5T825 118q0-42 27.5-62T926 36q25 0 57 8V-59q-40-8-75-8-91 0-149 45.5T701 106q0 64 35.5 107t96.5 59v89q-38-17-90-17H604V0H485v209L265 0H102v6l382 331q-12 45-48 72t-87 27q-70 0-112-43.5T195 277H66q0 79 30 140t85.5 94.5T311 545q114 0 174-80v167H-21v108h1082V632H604z"/><glyph glyph-name="dvvL" unicode="ऌ" horiz-adv-x="904" d="M701 632V526q65-20 104.5-79T845 299q0-52-16-100h-7q-57 0-84.5-23.5T710 114q0-41 28.5-60.5T813 34q34 0 58 7V-62q-40-7-74-7-94 0-152.5 45.5T586 108q0 58 36 101t92 57q2 11 2 34 0 54-26.5 88T615 422q-53 0-79.5-39.5T509 279v-25H401v25q0 63-26 103t-77 40q-52 0-80-34.5T190 297q0-65 33.5-100.5T317 161l27 2V50q-13-1-34-1-120 0-185.5 68T59 299q0 76 29 129.5t79.5 80.5T280 536q68 0 110.5-36t61.5-91h3q15 42 45 74t76 45v104H-21v108h945V632H701z"/><glyph glyph-name="dvEcandra" unicode="ऍ" horiz-adv-x="652" d="M673 632h-97v-93q0-104-41-157t-135-53q-23 0-49 3v116q7-1 21-1 41 0 60 23.5t19 72.5v89H219V266q0-66 31-101.5t87-35.5q53 0 83 31t30 86h126q0-107-63.5-167T340 19q-123 0-186.5 68T90 271l-1 361H-21v108h694V632zM496.5 880.5Q440 826 328 826t-169 54.5-57 142.5h111q0-43 28.5-72t86.5-29q57 0 86 29t29 72h110q0-88-56.5-142.5z"/><glyph glyph-name="dvE" unicode="ए" horiz-adv-x="652" d="M673 632h-97v-93q0-104-41-157t-135-53q-23 0-49 3v116q7-1 21-1 41 0 60 23.5t19 72.5v89H219V266q0-66 31-101.5t87-35.5q53 0 83 31t30 86h126q0-107-63.5-167T340 19q-123 0-186.5 68T90 271l-1 361H-21v108h694V632z"/><glyph glyph-name="dvAI" unicode="ऐ" horiz-adv-x="652" d="M673 632h-97v-93q0-104-41-157t-135-53q-23 0-49 3v116q7-1 21-1 41 0 60 23.5t19 72.5v89H219V266q0-66 31-101.5t87-35.5q53 0 83 31t30 86h126q0-107-63.5-167T340 19q-123 0-186.5 68T90 271l-1 361H-21v108h468q-44 68-71.5 98.5t-55.5 40-77 9.5h-49v105h46q80-1 126.5-17t92-68.5T570 740h103V632z"/><glyph glyph-name="dvOcandra" unicode="ऑ" horiz-adv-x="1144" d="M1165 632h-111V0H925v632H744V0H615v287l-117 1q3-19 3-37 0-88-56-141T296 57q-68 0-120.5 26T94 156.5 65 265h121q0-42 28-69.5t73-27.5 71 26.5 26 68.5q0 41-28 69.5T273 361h-43v104h43q48 0 75 25t27 61q0 40-25.5 64.5T286 640q-41 0-68-24t-27-62H72q0 58 27 102.5t75.5 68.5T286 749q92 0 148-49t56-131q0-55-29-95.5T379 417v-2q26-5 50-21h186v346h550V632zm-158.5 248.5Q950 826 838 826t-169 54.5-57 142.5h111q0-43 28.5-72t86.5-29q57 0 86 29t29 72h110q0-88-56.5-142.5z"/><glyph glyph-name="dvO" unicode="ओ" horiz-adv-x="1144" d="M1165 740V632h-111V0H925v632H744V0H615v287l-117 1q3-19 3-37 0-88-56-141T296 57q-68 0-120.5 26T94 156.5 65 265h121q0-42 28-69.5t73-27.5 71 26.5 26 68.5q0 41-28 69.5T273 361h-43v104h43q48 0 75 25t27 61q0 40-25.5 64.5T286 640q-41 0-68-24t-27-62H72q0 58 27 102.5t75.5 68.5T286 749q92 0 148-49t56-131q0-55-29-95.5T379 417v-2q26-5 50-21h186v346h310q-44 68-71.5 98.5t-55.5 40-77 9.5h-49v105h46q80-1 126.5-17t92-68.5T1048 740h117z"/><glyph glyph-name="dvAU" unicode="औ" horiz-adv-x="1144" d="M1165 740V632h-111V0H925v632H744V0H615v287l-117 1q3-19 3-37 0-88-56-141T296 57q-68 0-120.5 26T94 156.5 65 265h121q0-42 28-69.5t73-27.5 71 26.5 26 68.5q0 41-28 69.5T273 361h-43v104h43q48 0 75 25t27 61q0 40-25.5 64.5T286 640q-41 0-68-24t-27-62H72q0 58 27 102.5t75.5 68.5T286 749q92 0 148-49t56-131q0-55-29-95.5T379 417v-2q26-5 50-21h186v346h318q-60 41-86.5 55.5T794 814t-84 4h-50v81h47q56 0 83-3.5t54.5-17T913 833q-38 68-69 99t-58.5 38.5T712 978h-52v82h50q80 0 121.5-17.5t87.5-82T1045 740h120z"/><glyph glyph-name="dvKA" unicode="क" horiz-adv-x="976" d="M557 632V459q22 38 61.5 60.5T712 542q62 0 108.5-30t71.5-82 25-117q0-71-26.5-122.5T817 112 710 85q-35 0-66 7v102q12-4 31-4 49 0 80 32t31 88q0 53-32 87t-82 34q-56 0-85.5-38T557 301V0H433v162q-23-40-65-62.5T268 77q-63 0-110 29t-73 82-26 122 26.5 121.5 75 81.5T273 542q56 0 96-21.5t64-59.5v171H-21v108H996V632H557zM377.5 203q27.5 18 41.5 46.5t14 59.5q0 50-31.5 86.5T312 432q-52 0-87-34t-35-89q0-56 34-90t87-34q39 0 66.5 18z"/><glyph glyph-name="dvKHA" unicode="ख" horiz-adv-x="950" d="M971 740V632H860V0H732v181q-43-60-131-60-11 0-33 2-34-58-91.5-93T342-5Q217-5 144.5 66T72 264v137h30q67 0 102 32t35 106v93H-21v108h992zM469 170q-30 28-46 68.5T407 328q0 59 25 105.5t69.5 72.5 99.5 26q86 0 131-60v160H369V522q0-100-46-153t-123-59v-61q0-64 38.5-103.5T345 106q83 0 124 64zm236 82q27 32 27 75t-26.5 74.5T629 433q-46 0-76.5-28.5T522 328q0-51 30.5-79.5T629 220q49 0 76 32z"/><glyph glyph-name="dvGA" unicode="ग" horiz-adv-x="789" d="M809 740V632H698V0H569v632H424V390q0-89-47-144.5T234 190q-93 0-143.5 51T40 383q0 21 1 31h125v-31q0-36 15.5-59.5T231 300q63 0 63 84v248H-21v108h830z"/><glyph glyph-name="dvGHA" unicode="घ" horiz-adv-x="703" d="M724 632H614V0H484v189q-31-44-81-67.5T291 98q-96 0-157.5 48T72 281q0 58 34 97t83 50v3q-47 11-75 45.5T86 574v58H-21v108h745V632zm-240 0H215v-52q0-47 25.5-72t82.5-25h42V379h-52q-55 0-82.5-23.5T203 294q0-44 33-67t86-23q45 0 82 19t58.5 54.5T484 358v274z"/><glyph glyph-name="dvNGA" unicode="ङ" horiz-adv-x="686" d="M707 740V632H471V449H289q-37 0-62-13.5T202 389q0-31 22-45.5t56-14.5h45q86 0 145.5-41.5T530 156q0-80-57-127T311-18q-111 0-180 51.5T58 175h129q1-44 33.5-69.5T307 80q48 0 74.5 21t26.5 56q0 42-29.5 61.5T301 238h-37q-77 0-134 34.5T73 393q0 74 51.5 110.5T255 540h91v92H-21v108h728zm-55.5-311.5Q672 408 672 378q0-29-20.5-49.5T601 308t-50.5 20.5T530 378q0 30 20.5 50.5T601 449t50.5-20.5z"/><glyph glyph-name="dvCA" unicode="च" horiz-adv-x="746" d="M767 632H656V0H527v176q-29-41-76-64T346 89q-59 0-106 23t-74.5 67T138 283q0 41 16 75.5t46 57.5H50v102h367V416h-39q-53 0-85.5-31T260 305q0-51 35.5-80t88.5-29q65 1 104 47t39 118v271H-21v108h788V632z"/><glyph glyph-name="dvCHA" unicode="छ" horiz-adv-x="821" d="M642 632v-97q62-17 98.5-69.5T777 332q0-94-45.5-164T601 60.5 400 23q-152 0-243 56.5T66 244q0 62 32.5 102t88.5 56v3q-46 10-74.5 45T84 548v84H-21v108h863V632H642zm-119 0H213v-79q0-96 100-96h20V353h-18q-58 0-88-27t-30-70q0-60 51.5-91.5T401 133q123 0 193 53.5T664 337q0 51-23.5 81T582 448q-33 0-56-24t-23-69q0-36 15-83H411q-16 43-16 97 0 70 35 111.5t93 55.5v96z"/><glyph glyph-name="dvJA" unicode="ज" horiz-adv-x="852" d="M873 632H762V0H633v382H490v-55q0-63-26-111.5t-74.5-76T276 112q-103 0-159.5 59T60 327v165h131V330q0-48 22.5-76.5T276 225q42 0 65 28t23 77v162h269v140H-21v108h894V632z"/><glyph glyph-name="dvJHA" unicode="झ" horiz-adv-x="862" d="M882 632H771V0H645v232H497q27-37 27-92 0-67-44-109.5T356-12q-91 0-144 62V-81H90v251h116q4-38 33-62.5T317 83q43 0 65.5 21t22.5 52q0 39-27.5 60.5T297 238h-59q-71 3-120 40T69 389q0 78 52 115.5T252 542h91v90H-21v108h903V632zM645 329v303H467V449H286q-37 0-62.5-14T198 388q0-30 21.5-44.5T277 329h368z"/><glyph glyph-name="dvNYA" unicode="ञ" horiz-adv-x="825" d="M846 632H735V0H606v256h-90q-14-87-74.5-138T288 67q-97 0-159 52T59 254h122q9-34 37.5-56t70.5-22q55 0 85 37t30 93q0 54-30.5 91T289 434q-42 0-70.5-22.5T181 356H59q8 84 69.5 136T288 544q91 0 150.5-48.5T514 365h92v267H-21v108h867V632z"/><glyph glyph-name="dvTTA" unicode="ट" horiz-adv-x="648" d="M236 393.5Q189 355 189 283q0-63 41.5-103T338 140q68 0 109.5 42T489 290h123q0-78-33.5-137.5t-95-92T340 28q-81 0-145 32T95 150 59 283q0 80 35.5 138t101 89T349 541h5v91H-21v108h689V632H480V432H357q-74 0-121-38.5z"/><glyph glyph-name="dvTTHA" unicode="ठ" horiz-adv-x="673" d="M399 632v-94q94-17 154.5-82T614 290q0-76-36.5-134T478 67 336 36q-78 0-141 31t-99.5 89T59 290q0 101 59.5 165.5T271 538v94H-21v108h714V632H399zm45.5-237.5Q403 435 336 435q-65 0-106.5-40.5T188 290t41.5-105T336 144q67 0 108.5 41T486 290t-41.5 104.5z"/><glyph glyph-name="dvDDA" unicode="ड" horiz-adv-x="569" d="M227 435.5Q202 422 202 389q0-31 22-45.5t56-14.5h45q86 0 145.5-41.5T530 156q0-80-57-127T311-18q-111 0-180 51.5T58 175h129q1-44 33.5-69.5T307 80q48 0 74.5 21t26.5 56q0 42-29.5 61.5T301 238h-37q-77 0-134 34.5T73 393q0 74 51.5 110.5T255 540h88v92H-21v108h610V632H467V449H289q-37 0-62-13.5z"/><glyph glyph-name="dvDDHA" unicode="ढ" horiz-adv-x="650" d="M242 410q-58-48-58-138 0-80 51-130.5T376 91q62 0 102.5 29t40.5 78q0 32-20.5 53T447 272q-28 0-47-17.5T381 209q0-10 3-18h-93q-4 24-4 36 0 65 46 101.5T452 365q82 0 129.5-46T629 198q0-93-67.5-146.5T373-2q-89 0-160.5 33.5T100 128 59 276q0 87 38 148t104 92 150 31h27v85H-21v108h691V632H500V458H392q-92 0-150-48z"/><glyph glyph-name="dvNNA" unicode="ण" horiz-adv-x="880" d="M901 632H790V0H661v632H504V372q0-95-54.5-154T294 159q-100 0-154.5 60T85 372v260H-21v108h922V632zm-524 0H211V360q0-41 22.5-66.5T295 268t60.5 25 21.5 67v272z"/><glyph glyph-name="dvTA" unicode="त" horiz-adv-x="703" d="M723 632H613V0H483v383H350q-74 0-117-36t-43-103q0-66 38-103.5T339 103h20V2h-40Q203 2 131 64T59 247q0 124 79 185.5T344 494h139v138H-21v108h744V632z"/><glyph glyph-name="dvTHA" unicode="थ" horiz-adv-x="783" d="M804 740V632H693V0H564v204q-23-48-81-81.5T343 89q-84 0-147 34t-97.5 97T64 369q0 37 5 64h91q88 0 140.5 27.5T353 556q0 36-21 59.5T275 639q-38 0-60-23.5T193 552q0-14 4-38H80q-4 26-4 41 0 61 26.5 105t72 66.5T276 749q58 0 103-24.5t70-69.5 25-103q0-100-69.5-156T210 340h-21q3-64 46.5-104T362 196q56 0 102 24t73 71 27 112v337h240z"/><glyph glyph-name="dvDA" unicode="द" horiz-adv-x="611" d="M232 396q-41-34-41-95 0-55 33-87.5t88-32.5q45 0 77.5 28t32.5 80h119V-27H415v165q-22-29-58-44.5T275 78q-60 0-109 26t-78 77-29 124q0 75 34.5 128.5t95 80.5T326 541h50v91H-21v108h653l-1-108H506V430H339q-66 0-107-34z"/><glyph glyph-name="dvDHA" unicode="ध" horiz-adv-x="724" d="M751 632H642V0H513v185q-32-48-86.5-74T300 85q-96 0-159 47T78 264q0 60 35 97.5t82 46.5v4q-53 14-89 56T70 577q0 77 50.5 124.5T251 749q82 0 128.5-45.5T426 584q0-16-2-38h-96l1 22q0 32-20 52.5T255 641t-54.5-22-20.5-56q0-48 38.5-73.5T316 464h59V360h-53q-54 0-83.5-22T209 278q0-42 33.5-64t89.5-22q81 0 131 51t50 134v363h238V632z"/><glyph glyph-name="dvNA" unicode="न" horiz-adv-x="810" d="M831 632H720V0H591v391H440q35-48 35-115 0-59-27-102t-73.5-65T271 87q-60 0-109 25t-78 71.5T55 293q0 66 30 112.5t81.5 70T282 499h309v133H-21v108h852V632zM344 223.5q28 27.5 28 70.5 0 42-28 69.5T273 391q-45 0-73.5-27.5T171 293t28.5-70 73.5-27q43 0 71 27.5z"/><glyph glyph-name="dvPA" unicode="प" horiz-adv-x="668" d="M689 632H578V0H450v241q-53-67-156-67-106 0-163 69.5T74 428v204h-95v108h710V632zm-239 0H204V428q0-68 30.5-106.5T327 283q58 0 90.5 37.5T450 414v218z"/><glyph glyph-name="dvPHA" unicode="फ" horiz-adv-x="985" d="M561 632V460q24 38 65 60t97 22q61 0 107-29.5t71.5-80.5T927 317q0-72-26.5-124.5t-74-80T719 85q-38 0-70 9v100q18-5 37-5 49 0 79.5 33t30.5 88q0 53-32 87t-82 34q-60 0-90.5-41T561 287V0H432v239q-49-65-146-65-102 0-157 68T74 422v210h-95v108h1027V632H561zm-129 0H204V422q0-65 28.5-102t85.5-37q54 0 84 35.5t30 89.5v224z"/><glyph glyph-name="dvBA" unicode="ब" horiz-adv-x="689" d="M709 740V632H599V0H474v151q-25-37-69-58.5T303 71q-69 0-124.5 30.5t-87.5 86T59 314q0 70 31.5 124t86.5 84 124 30q57 0 100.5-21t72.5-57v158H-21v108h730zM227 433l237-191q17 36 17 73 0 40-18 75t-52.5 56-82.5 21q-59 0-101-34zm-34-199q21-34 57-52t78-18q60 0 102 35L191 390q-19-35-19-76 0-46 21-80z"/><glyph glyph-name="dvBHA" unicode="भ" horiz-adv-x="831" d="M852 740V632H740V0H611v355H472v-59q0-104-52.5-162T270 76q-61 0-108 24t-73 68-26 101q0 92 60 141.5T277 460h74v83q0 45-16.5 70.5T283 639q-31 0-50-22t-19-58q0-18 4-34H88q-4 22-4 39 0 83 50.5 134T278 749q102 0 148-62t46-167v-60h139v280h241zM351 355h-71q-44 0-70.5-22.5T183 270q0-39 24-62t61-23q40 0 61.5 28t21.5 76v66z"/><glyph glyph-name="dvMA" unicode="म" horiz-adv-x="822" d="M842 632H731V0H601v355H452v-59q0-104-52.5-162T249 76q-93 0-149.5 53T43 269q0 92 59.5 141.5T256 460h76v172H-21v108h863V632zm-241 0H452V460h149v172zM332 355h-72q-44 0-70.5-22.5T163 270q0-39 23.5-62t60.5-23q40 0 62.5 28t22.5 76v66z"/><glyph glyph-name="dvYA" unicode="य" horiz-adv-x="749" d="M770 632H659V0H530v179q-31-40-82-63T329 93q-128 0-198.5 76T60 375q0 18 4 56h12q84 0 121.5 36T235 578v54H-21v108h791V632zm-240 0H363v-77q0-87-43.5-136.5T188 362q0-73 44.5-117T356 201q78 0 126 48t48 123v260z"/><glyph glyph-name="dvRA" unicode="र" horiz-adv-x="533" d="M198 314V201q0-45 20.5-72.5T279 101q37 0 58.5 25.5T359 194v25h124q1-9 1-21 0-95-54-151T281-9Q179-9 124.5 51T70 207v212h103q80 0 116.5 36.5T326 563v69H-21v108h574V632h-98v-69q0-249-235-249h-22z"/><glyph glyph-name="dvRxA" unicode="ऱ" horiz-adv-x="533" d="M198 314V201q0-45 20.5-72.5T279 101q37 0 58.5 25.5T359 194v25h124q1-9 1-21 0-95-54-151T281-9Q179-9 124.5 51T70 207v212h103q80 0 116.5 36.5T326 563v69H-21v108h574V632h-98v-69q0-249-235-249h-22zm-31-484.5Q144-193 111-193q-32 0-55 22.5T33-116q0 33 23 56t55 23q33 0 56-23t23-56q0-32-23-54.5z"/><glyph glyph-name="dvLA" unicode="ल" horiz-adv-x="910" d="M717 632V517q61-23 97.5-80.5T851 295q0-73-29-130t-85.5-89T600 44q-8 0-34 2v113l27-2q59 0 93 37t34 99q0 55-27.5 90T615 418q-53 0-79.5-39.5T509 275v-21H401v21q0 63-26 103t-77 40q-52 0-80-34.5T190 293q0-62 34-99t93-37l27 2V46q-26-2-34-2-79 0-136 32.5t-86 89T59 295q0 76 29 129t79.5 80T280 531q69 0 111.5-35t61.5-90h3q17 46 49.5 78t84.5 43v105H-21v108h951V632H717z"/><glyph glyph-name="dvLLA" unicode="ळ" horiz-adv-x="975" d="M767 632V517q67-22 108-80t41-139q0-68-30-120t-82-80.5T688 69q-70 0-122.5 33.5T489 194h-4q-23-58-75.5-91.5T287 69q-64 0-116 28.5T89 178 59 298q0 69 30 122t82 81.5T286 530q67 0 118-31.5t82-91.5h3q49 99 153 119v106H-21v108H995V632H767zM391 212.5q33 33.5 33 85.5 0 54-33 88t-86 34-86.5-34-33.5-89q0-53 34-85.5t86-32.5q53 0 86 33.5zm364.5-1Q789 244 789 297q0 55-33 89t-86 34-86-34-33-88q0-53 33-86t85-33q53 0 86.5 32.5z"/><glyph glyph-name="dvVA" unicode="व" horiz-adv-x="670" d="M690 740V632H580V0H454v158q-26-39-69.5-61T285 75q-68 0-119.5 30.5t-79 84.5T59 314q0 67 28 120t79.5 82.5T285 546q57 0 100-22t69-61v169H-21v108h711zM392.5 197q30.5 19 46 49t15.5 63v1q0 54-35.5 93T319 442q-58 0-95.5-36T186 311q0-60 37.5-96.5T319 178q43 0 73.5 19z"/><glyph glyph-name="dvSHA" unicode="श" horiz-adv-x="840" d="M206 299v-85q0-50 23-80t73-30q42 0 66 27.5t24 73.5v14h126v-16q0-99-57-155T305-8Q197-8 136 54.5T75 223v185h142q79 0 130 31.5t51 98.5q0 45-24.5 72T307 637t-66-27-24-72l1-38H90q-3 21-3 42 0 61 27 108t77 73 116 26q100 0 160.5-57.5T528 530q0-113-73.5-172T264 299h-58zm655 441V632H750V0H619v740h242z"/><glyph glyph-name="dvSSA" unicode="ष" horiz-adv-x="680" d="M701 632H590V0H463v235q-52-70-161-70-110 0-169 72T74 428v204h-95v108h722V632zm-238 0H201l262-192v192zm-56-336q32 22 46 59L199 539V424q0-69 32.5-109.5T329 274q46 0 78 22z"/><glyph glyph-name="dvSA" unicode="स" horiz-adv-x="825" d="M846 632H734V0H606v319H198V203q0-46 21-74t63-28q39 0 61 26t22 67v13h124q1-8 1-19 0-91-55-144T284-9Q182-9 126 51.5T70 209v202h81q80 0 117 38.5T305 556v76H-21v108h867V632zm-240 0H433v-76q0-76-35-132h208v208z"/><glyph glyph-name="dvHA" unicode="ह" horiz-adv-x="586" d="M239 438q-22-14-22-46 0-20 11-35t30-23q21 4 50 4 103 0 161-50t68-128H413q-7 30-35 52.5T306 235q-52 0-83.5-33T191 116t31.5-85.5T306-2q42 0 70.5 21.5T413 71h124q-9-80-71.5-130T306-109q-74 0-128.5 29T94 .5 65 119q0 59 25.5 105.5T162 300q-35 19-54 48.5T89 417q0 60 43.5 94T250 545h100v87H-21v108h627V632H473V452H296q-35 0-57-14z"/><glyph glyph-name="dvNukta" unicode="़" horiz-adv-x="0" d="M-256-196.5q-23-22.5-56-22.5-32 0-55 22.5t-23 54.5q0 33 23 56t55 23q33 0 56-23t23-56q0-32-23-54.5z"/><glyph glyph-name="dvAvagraha" unicode="ऽ" horiz-adv-x="589" d="M64 52v109h235q31 0 48 13t17 35q0 26-22 50t-69 61q-46 37-76 65.5T146 453t-21 85q0 67 44.5 100.5T287 672h218V563H319q-28 0-45-9.5T257 518t22-50 69-61q46-37 75.5-65.5T474 274t21-84q0-63-44.5-100.5T331 52H64z"/><glyph glyph-name="dvmAA" unicode="ा" d="M90 0v632H-21v108h351V632H219V0H90z"/><glyph glyph-name="dvmI" unicode="ि" d="M704 983q92-35 144-101t52-154v-17H771v15q0 63-39.5 104.5T629 892t-134 20q-113 0-192.5-41T218 740h112V632H219V0H90v632H-21v108H90q3 88 55.5 150.5t143 95T495 1018q117 0 209-35z"/><glyph glyph-name="dvmII" unicode="ी" d="M330 740V632H219V0H90v632H-21v108H94v40q0 54-20 91.5T1 909q-54 0-74.5-37.5T-94 780v-69h-125v62q0 113 52.5 179T1 1018q218 0 218-245v-33h111z"/><glyph glyph-name="dvmU" unicode="ु" horiz-adv-x="0" d="M-51-275q-57-49-155-49-107 0-178 55t-69 168h114q-2-62 34-92.5t96-30.5q49 0 77 22t28 62q0 33-22 55t-63 22h-30V38h30q95 0 145-48.5T6-141q0-85-57-134z"/><glyph glyph-name="dvmUU" unicode="ू" horiz-adv-x="0" d="M-185-312q-78 0-129.5 44T-366-143q0 82 57.5 129.5T-159 34q134 0 196-82t62-211q0-17-2-47H-8v54q0 91-39.5 140T-160-63q-45 0-74-21.5t-29-59.5q0-35 25-55t61-20q19 0 30 1v-93q-13-1-38-1z"/><glyph glyph-name="dvmvR" unicode="ृ" horiz-adv-x="0" d="M-137-326q-87 0-148 44.5T-346-144q0 80 55 129.5T-139 35q40 0 49-1v-88h-39q-44 0-68-24t-24-61q0-44 29.5-64t75.5-20q38 0 79 12v-100q-45-15-100-15z"/><glyph glyph-name="dvmvRR" unicode="ॄ" horiz-adv-x="0" d="M-59-463q-33-5-65-5-82 0-139 35.5T-320-323q0 47 27 78.5t70 40.5v4q-43 10-69.5 37.5T-319-88q0 64 46.5 93.5T-165 35h75v-71h-25q-80 0-80-59 0-30 23-43.5t59-13.5h54v-96h-48q-89 0-89-61 0-32 26-45.5t66-13.5q28 0 56.5 5T-5-353v-97q-21-8-54-13z"/><glyph glyph-name="dvmEcandra" unicode="ॅ" horiz-adv-x="0" d="M7.5 868.5Q-49 814-161 814t-169 54.5-57 142.5h111q0-43 28.5-72t86.5-29q57 0 86 29t29 72H64q0-88-56.5-142.5z"/><glyph glyph-name="dvmE" unicode="े" horiz-adv-x="0" d="M-213 736q-45 70-73 101t-56.5 41-77.5 10h-49v105h46q80-1 127-17t93-69.5T-91 736h-122z"/><glyph glyph-name="dvmAI" unicode="ै" horiz-adv-x="0" d="M-307.5 1042.5q41.5-17.5 88-82.5T-92 737h-110q-63 43-90 58t-53 19-84 4h-50v81h47q56 0 83-3.5t54.5-17T-226 833q-38 68-69 99t-58.5 38.5-73.5 7.5h-52v82h50q80 0 121.5-17.5z"/><glyph glyph-name="dvmOcandra" unicode="ॉ" horiz-adv-x="311" d="M90 0v632H-21v108h351V632H219V0H90zm234.5 868.5Q268 814 156 814t-169 54.5-57 142.5H41q0-43 28.5-72t86.5-29q57 0 86 29t29 72h110q0-88-56.5-142.5z"/><glyph glyph-name="dvmO" unicode="ो" horiz-adv-x="310" d="M330 740V632H219V0H90v632H-21v108H94q-44 68-71.5 98.5t-55.5 40-77 9.5h-49v105h46q80-1 126.5-17t92-68.5T217 740h113z"/><glyph glyph-name="dvmAU" unicode="ौ" d="M330 740V632H219V0H90v632H-21v108h121q-60 41-86.5 55.5T-39 814t-84 4h-50v81h47q56 0 83-3.5t54.5-17T80 833q-38 68-69 99t-58.5 38.5-73.5 7.5h-52v82h50q80 0 121.5-17.5t87.5-82T212 740h118z"/><glyph glyph-name="dvVirama" unicode="्" horiz-adv-x="0" d="M-90-271-216-57h129L43-271H-90z"/><glyph glyph-name="dvOm" unicode="ॐ" horiz-adv-x="1066" d="M529 919q-15 15-15 38t15.5 38.5T567 1011q23 0 38-15.5t15-38.5-15-38-38-15-38 15zM400 786.5Q342 840 342 930h102q0-43 32.5-73.5T567 826q57 0 89.5 30.5T689 930h104q0-90-58.5-143.5T567 733t-167 53.5zm539.5-165Q989 559 989 437V310q0-143-66-217T725 19q-40 0-100 10v108q45-8 77-8 90 0 126 46.5T864 314v139q0 59-19.5 90T779 574q-82 0-82-101 0-73-19-117t-61.5-64.5T502 269q9-28 9-60 0-60-26.5-104.5t-74-69T301 11q-68 0-120 26t-80.5 73T72 219h122q0-42 27.5-69.5T294 122t71.5 27.5T392 221q0 42-28 71.5T280 322h-43v109h43q48 0 75.5 25.5T383 521q0 42-26 67t-65 25q-41 0-67-23.5T199 527H79q0 58 27 102.5t75.5 68.5T293 722q94 0 150.5-50T500 538q0-58-29-99t-83-57v-4q9-2 25-8h59q55 0 80 22.5t25 81.5q0 102 47 156t155 54q111 0 160.5-62.5z"/><glyph glyph-name="dvKxA" unicode="क़" horiz-adv-x="976" d="M557 632V459q22 38 61.5 60.5T712 542q62 0 108.5-30t71.5-82 25-117q0-71-26.5-122.5T817 112 710 85q-35 0-66 7v102q12-4 31-4 49 0 80 32t31 88q0 53-32 87t-82 34q-56 0-85.5-38T557 301V0H433v162q-23-40-65-62.5T268 77q-63 0-110 29t-73 82-26 122 26.5 121.5 75 81.5T273 542q56 0 96-21.5t64-59.5v171H-21v108H996V632H557zM377.5 203q27.5 18 41.5 46.5t14 59.5q0 50-31.5 86.5T312 432q-52 0-87-34t-35-89q0-56 34-90t87-34q39 0 66.5 18zM305-122.5Q282-145 249-145q-32 0-55 22.5T171-68q0 33 23 56t55 23q33 0 56-23t23-56q0-32-23-54.5z"/><glyph glyph-name="dvKHxA" unicode="ख़" horiz-adv-x="950" d="M971 740V632H860V0H732v181q-43-60-131-60-11 0-33 2-34-58-91.5-93T342-5Q217-5 144.5 66T72 264v137h30q67 0 102 32t35 106v93H-21v108h992zM469 170q-30 28-46 68.5T407 328q0 59 25 105.5t69.5 72.5 99.5 26q86 0 131-60v160H369V522q0-100-46-153t-123-59v-61q0-64 38.5-103.5T345 106q83 0 124 64zm236 82q27 32 27 75t-26.5 74.5T629 433q-46 0-76.5-28.5T522 328q0-51 30.5-79.5T629 220q49 0 76 32zM377-201.5Q354-224 321-224q-32 0-55 22.5T243-147q0 33 23 56t55 23q33 0 56-23t23-56q0-32-23-54.5z"/><glyph glyph-name="dvGxA" unicode="ग़" horiz-adv-x="788" d="M809 740V632H698V0H569v632H424V390q0-89-47-144.5T234 190q-93 0-143.5 51T40 383q0 21 1 31h125v-31q0-36 15.5-59.5T231 300q63 0 63 84v248H-21v108h830zM292-11.5Q269-34 236-34q-32 0-55 22.5T158 43q0 33 23 56t55 23q33 0 56-23t23-56q0-32-23-54.5z"/><glyph glyph-name="dvJxA" unicode="ज़" horiz-adv-x="852" d="M873 632H762V0H633v382H490v-55q0-63-26-111.5t-74.5-76T276 112q-103 0-159.5 59T60 327v165h131V330q0-48 22.5-76.5T276 225q42 0 65 28t23 77v162h269v140H-21v108h894V632zM334-86.5Q311-109 278-109q-32 0-55 22.5T200-32q0 33 23 56t55 23q33 0 56-23t23-56q0-32-23-54.5z"/><glyph glyph-name="dvDDxA" unicode="ड़" horiz-adv-x="569" d="M227 435.5Q202 422 202 389q0-31 22-45.5t56-14.5h45q86 0 145.5-41.5T530 156q0-80-57-127T311-18q-111 0-180 51.5T58 175h129q1-44 33.5-69.5T307 80q48 0 74.5 21t26.5 56q0 42-29.5 61.5T301 238h-37q-77 0-134 34.5T73 393q0 74 51.5 110.5T255 540h88v92H-21v108h610V632H467V449H289q-37 0-62-13.5zm137-652Q341-239 308-239q-32 0-55 22.5T230-162q0 33 23 56t55 23q33 0 56-23t23-56q0-32-23-54.5z"/><glyph glyph-name="dvDDHxA" unicode="ढ़" horiz-adv-x="650" d="M242 410q-58-48-58-138 0-80 51-130.5T376 91q62 0 102.5 29t40.5 78q0 32-20.5 53T447 272q-28 0-47-17.5T381 209q0-10 3-18h-93q-4 24-4 36 0 65 46 101.5T452 365q82 0 129.5-46T629 198q0-93-67.5-146.5T373-2q-89 0-160.5 33.5T100 128 59 276q0 87 38 148t104 92 150 31h27v85H-21v108h691V632H500V458H392q-92 0-150-48zm166-609.5Q385-222 352-222q-32 0-55 22.5T274-145q0 33 23 56t55 23q33 0 56-23t23-56q0-32-23-54.5z"/><glyph glyph-name="dvPHxA" unicode="फ़" horiz-adv-x="985" d="M561 632V460q24 38 65 60t97 22q61 0 107-29.5t71.5-80.5T927 317q0-72-26.5-124.5t-74-80T719 85q-38 0-70 9v100q18-5 37-5 49 0 79.5 33t30.5 88q0 53-32 87t-82 34q-60 0-90.5-41T561 287V0H432v239q-49-65-146-65-102 0-157 68T74 422v210h-95v108h1027V632H561zm-129 0H204V422q0-65 28.5-102t85.5-37q54 0 84 35.5t30 89.5v224zM295-20.5Q272-43 239-43q-32 0-55 22.5T161 34q0 33 23 56t55 23q33 0 56-23t23-56q0-32-23-54.5z"/><glyph glyph-name="dvvRR" unicode="ॠ" horiz-adv-x="1014" d="M604 632V446h158q71 0 71 62v45h111V199h-37q-80 0-80-59 0-29 23.5-43T910 83h53v-96h-49q-88 0-88-61 0-32 26-45.5t66-13.5q49 0 100 15v-96q-22-9-55-14.5t-65-5.5q-82 0-138.5 36.5T703-87q0 45 27 77t69 41v4q-43 10-69.5 37.5T703 147q0 57 38 87t92 35v92q-38-17-90-17H604V0H485v209L265 0H102v6l382 331q-12 45-48 72t-87 27q-70 0-112-43.5T195 277H66q0 79 30 140t85.5 94.5T311 545q114 0 174-80v167H-21v108h1083V632H604z"/><glyph glyph-name="dvvLL" unicode="ॡ" horiz-adv-x="913" d="M701 632V526q65-20 104.5-79T845 299q0-52-16-100h-33q-80 0-80-59 0-29 23.5-43T799 83h54v-96h-49q-89 0-89-61 0-32 26-45.5t66-13.5q27 0 55 5t45 10v-96q-22-9-55-14.5t-64-5.5q-83 0-139.5 36.5T592-86q0 44 27 76t69 41v4q-43 10-69.5 37.5T592 147q0 55 35 84t87 37q2 20 2 32 0 54-26.5 88T615 422q-53 0-79.5-39.5T509 279v-25H401v25q0 63-26 103t-77 40q-52 0-80-34.5T190 297q0-65 33.5-100.5T317 161l27 2V50q-13-1-34-1-120 0-185.5 68T59 299q0 76 29 129.5t79.5 80.5T280 536q68 0 110.5-36t61.5-91h3q15 42 45 74t76 45v104H-21v108h952V632H701z"/><glyph glyph-name="dvmvL" unicode="ॢ" horiz-adv-x="0" d="M158-386v-81q-28-5-55-5-72 0-116.5 34.5T-58-339q0 44 26.5 76T37-220q1 7 1 21 0 40-18.5 64.5T-34-110q-38 0-57-28.5t-19-74.5v-18h-84v18q0 46-18.5 74.5T-268-110t-57.5-24.5T-346-200q0-46 24.5-71.5T-255-297q15 0 21 2v-88q-10-1-25-1-90 0-139 50.5T-447-199q0 85 47 131.5T-283-21q51 0 82.5-26t45.5-67h3q14 40 48 66.5T-18-21q44 0 80-20.5t57.5-61T141-199q0-34-12-73h-6q-43 0-63.5-17T39-333q0-28 21.5-43t53.5-15q29 0 44 5z"/><glyph glyph-name="dvmvLL" unicode="ॣ" horiz-adv-x="0" d="M151.5-512.5Q172-509 184-505v-75q-16-6-40.5-9.5T95-593q-62 0-104 26t-42 82q0 35 20 58.5T20-396v2q-32 7-51.5 28.5T-51-309q0 41 25 63t63 28q1 6 1 19 0 40-18.5 64.5T-34-110q-38 0-57-28.5t-19-74.5v-18h-84v18q0 46-18.5 74.5T-268-110t-57.5-24.5T-346-200q0-46 24.5-71.5T-255-297q15 0 21 2v-88q-10-1-25-1-90 0-139 50.5T-447-199q0 85 47 131.5T-283-21q51 0 82.5-26t45.5-67h3q14 40 48 66.5T-18-21q44 0 80-20.5t57.5-61T141-199q0-34-12-73h-26q-58 0-58-42 0-21 16.5-31t44.5-10h38v-75h-35q-65 0-65-44 0-42 66-42 21 0 41.5 3.5z"/><glyph glyph-name="danda" unicode="।" horiz-adv-x="320" d="M279 741V0H151v741h128z"/><glyph glyph-name="doubledanda" unicode="॥" horiz-adv-x="570" d="M279 741V0H151v741h128zm248 0V0H399v741h128z"/><glyph glyph-name="dvZero" unicode="०" horiz-adv-x="646" d="M115.5 645Q178 743 323 743t207.5-98T593 374q0-174-62.5-273T323 2t-207.5 99T53 374q0 173 62.5 271zm330-146.5q-9.5 50.5-38 82.5T323 613t-84.5-32-38-82.5T191 374q0-76 9-127.5t38-83 85-31.5 85 31.5 38 83 9 127.5q0 74-9.5 124.5z"/><glyph glyph-name="dvOne" unicode="१" horiz-adv-x="362" d="M36 600v129h241V0H133v600H36z"/><glyph glyph-name="dvTwo" unicode="२" horiz-adv-x="574" d="M97 158q96 80 153 133.5T345 403t38 114q0 51-24 80t-74 29-77-33.5-28-91.5H44q4 120 71.5 182T287 745q114 0 175-60.5T523 525q0-78-42-149t-96-123.5T244 126h295V10H45v104z"/><glyph glyph-name="dvThree" unicode="३" horiz-adv-x="599" d="M125.5 691.5Q191 746 298 746q73 0 125-25.5t78.5-69T528 553q0-63-32.5-106.5T418 388v-4q58-18 90.5-64T541 202q0-60-27.5-107t-81-73.5T304-5Q191-5 120 52T45 220h136q2-49 33.5-78.5T301 112q51 0 78.5 28.5T407 214q0 60-38 86t-118 26h-29v115h29q142 0 142 95 0 43-25.5 67T294 627q-47 0-72.5-25.5T192 537H55q5 100 70.5 154.5z"/><glyph glyph-name="dvFour" unicode="४" horiz-adv-x="661" d="M47 142v110l327 468h163V264h88V142h-88V0H397v142H47zm359 428L201 264h205v306z"/><glyph glyph-name="dvFive" unicode="५" horiz-adv-x="644" d="M543 608H219V437q21 26 60 42.5t83 16.5q80 0 131-35t74-89.5T590 255q0-115-65.5-185T338 0Q224 0 156 57T79 206h136q9-40 40.5-64t80.5-24q59 0 89 37t30 98q0 62-30.5 94.5T335 380q-42 0-70-21t-40-56H91v428h452V608z"/><glyph glyph-name="dvSix" unicode="६" horiz-adv-x="640" d="M396.5 610Q372 631 326 631q-69 0-101.5-55.5T191 395q24 40 70 62.5T361 480q65 0 115-28t78-81.5T582 242q0-71-28.5-126.5T470 29 339-2Q235-2 175.5 44t-83 128.5T69 376q0 183 63 276.5T331 746q105 0 163-57t67-142H431q-10 42-34.5 63zM240 334q-36-31-36-90t33.5-93 94.5-34q54 0 85.5 33t31.5 89q0 58-30.5 92T329 365q-53 0-89-31z"/><glyph glyph-name="dvSeven" unicode="७" horiz-adv-x="548" d="M517 623 251 0H109l268 607H35v120h482V623z"/><glyph glyph-name="dvEight" unicode="८" horiz-adv-x="643" d="M75 547q0 54 27.5 98.5t83 71T321 743t135.5-26.5 83-71T567 547q0-55-27-96.5T468 386q55-24 86-70t31-109q0-68-34.5-118.5T456 11 321-16 186.5 11t-94 77.5T58 207q0 63 31 109.5t86 69.5Q75 438 75 547zm326.5 56Q372 630 321 630q-50 0-79.5-27T212 526q0-45 30.5-72t78.5-27 79 27.5 31 72.5q0 49-29.5 76zm-173-307Q193 267 193 213q0-50 34.5-81.5T321 100t93 32 34 81q0 53-35 82.5T321 325t-92.5-29z"/><glyph glyph-name="dvNine" unicode="९" horiz-adv-x="626" d="M251.5 137.5Q280 114 328 114q62 0 90 51.5T446 339q-23-32-64.5-50T292 271q-64 0-115.5 26.5t-81.5 79T65 504q0 111 66 176.5T311 746q142 0 200.5-91T570 381q0-130-22.5-213t-77-126T322-1q-74 0-126 28.5t-79.5 75T85 205h130q8-44 36.5-67.5zM403 417q30 32 30 86 0 59-31.5 91.5T316 627t-85.5-33.5T199 505q0-53 30.5-86.5T321 385q52 0 82 32z"/><glyph glyph-name="dvAbbreviationsign" unicode="॰" horiz-adv-x="482" d="M364 459.5Q411 413 411 340q0-72-47-118t-121-46q-49 0-88 21t-61 59-22 85q0 73 48 119t123 46q74 0 121-46.5zM177 404q-26-25-26-63 0-39 26-63.5t66-24.5q38 0 63 24.5t25 62.5-25 63.5-63 25.5q-40 0-66-25z"/><glyph glyph-name="dvAcandra" unicode="ॲ" horiz-adv-x="838" d="M855 740V632H744V0H615v287l-117 1q3-19 3-37 0-88-56-141T296 57q-68 0-120.5 26T94 156.5 65 265h121q0-42 28-69.5t73-27.5 71 26.5 26 68.5q0 41-28 69.5T273 361h-43v104h43q48 0 75 25t27 61q0 40-25.5 64.5T286 640q-41 0-68-24t-27-62H72q0 58 27 102.5t75.5 68.5T286 749q92 0 148-49t56-131q0-55-29-95.5T379 417v-2q26-5 50-21h186v346h240zm1.5 144.5Q800 830 688 830t-169 54.5-57 142.5h111q0-43 28.5-72t86.5-29q57 0 86 29t29 72h110q0-88-56.5-142.5z"/><glyph glyph-name="Wgrave" unicode="Ẁ" horiz-adv-x="1024" d="M1002 698 807 0H642L511 497 374 0 210-1 22 698h150l123-542 142 542h156l134-539 124 539h151zM597 838V738L367 843v114z"/><glyph glyph-name="wgrave" unicode="ẁ" horiz-adv-x="844" d="M837 554 675 0H524L423 387 322 0H170L7 554h142l98-422 106 422h148l104-421 98 421h134zM500 693V593L270 698v114z"/><glyph glyph-name="Wacute" unicode="Ẃ" horiz-adv-x="1024" d="M1002 698 807 0H642L511 497 374 0 210-1 22 698h150l123-542 142 542h156l134-539 124 539h151zM665 847 435 742v100l230 119V847z"/><glyph glyph-name="wacute" unicode="ẃ" horiz-adv-x="844" d="M837 554 675 0H524L423 387 322 0H170L7 554h142l98-422 106 422h148l104-421 98 421h134zM578 698 348 593v100l230 119V698z"/><glyph glyph-name="Wdieresis" unicode="Ẅ" horiz-adv-x="1024" d="M1002 698 807 0H642L511 497 374 0 210-1 22 698h150l123-542 142 542h156l134-539 124 539h151zm-633 87q-19 19-19 47t19 47.5 47 19.5 47.5-19.5T483 832t-19.5-47-47.5-19-47 19zm185 0q-19 19-19 47t19 47.5 47 19.5 47.5-19.5T668 832t-19.5-47-47.5-19-47 19z"/><glyph glyph-name="wdieresis" unicode="ẅ" horiz-adv-x="844" d="M837 554 675 0H524L423 387 322 0H170L7 554h142l98-422 106 422h148l104-421 98 421h134zm-554 85q-19 19-19 47t19 47.5 47 19.5 47.5-19.5T397 686t-19.5-47-47.5-19-47 19zm185 0q-19 19-19 47t19 47.5 47 19.5 47.5-19.5T582 686t-19.5-47-47.5-19-47 19z"/><glyph glyph-name="uni1EBC" unicode="Ẽ" horiz-adv-x="532" d="M209 585V410h235V299H209V114h265V0H69v699h405V585H209zm-80.5 265.5Q161 883 211 883q21 0 37-6.5t36-18.5q30-19 50-19 37 0 43 43h75q-9-66-41.5-98.5T328 751q-21 0-37 6.5T255 776q-29 20-50 20-37 0-44-44H87q9 66 41.5 98.5z"/><glyph glyph-name="uni1EBD" unicode="ẽ" horiz-adv-x="617" d="M580 235H175q5-60 42-94t91-34q78 0 111 67h151q-24-80-92-131.5T311-9q-80 0-143.5 35.5T68.5 127 33 277q0 86 35 151t98 100 145 35q79 0 141.5-34t97-96.5T584 289q0-30-4-54zm-141 94q-1 54-39 86.5T307 448q-52 0-87.5-31.5T176 329h263zM170.5 707.5Q203 740 253 740q21 0 37-6.5t36-18.5q30-19 50-19 37 0 43 43h75q-9-66-41.5-98.5T370 608q-21 0-37 6.5T297 633q-29 20-50 20-37 0-44-44h-74q9 66 41.5 98.5z"/><glyph glyph-name="Ygrave" unicode="Ỳ" horiz-adv-x="636" d="M624 698 388 243V0H248v243L11 698h158l150-319 149 319h156zM427 838V738L197 843v114z"/><glyph glyph-name="ygrave" unicode="ỳ" horiz-adv-x="605" d="M599 554 256-262H107L227 14 5 554h157l143-387 145 387h149zM412 693V593L182 698v114z"/><glyph glyph-name="uni1EF8" unicode="Ỹ" horiz-adv-x="636" d="M624 698 388 243V0H248v243L11 698h158l150-319 149 319h156zM179.5 850.5Q212 883 262 883q21 0 37-6.5t36-18.5q30-19 50-19 37 0 43 43h75q-9-66-41.5-98.5T379 751q-21 0-37 6.5T306 776q-29 20-50 20-37 0-44-44h-74q9 66 41.5 98.5z"/><glyph glyph-name="uni1EF9" unicode="ỹ" horiz-adv-x="605" d="M599 554 256-262H107L227 14 5 554h157l143-387 145 387h149zM164.5 705.5Q197 738 247 738q21 0 37-6.5t36-18.5q30-19 50-19 37 0 43 43h75q-9-66-41.5-98.5T364 606q-21 0-37 6.5T291 631q-29 20-50 20-37 0-44-44h-74q9 66 41.5 98.5z"/><glyph glyph-name="zerowidthnonjoiner" unicode="‌" horiz-adv-x="0" d="M-23-230V811h47V-230h-47z"/><glyph glyph-name="zerowidthjoiner" unicode="‍" horiz-adv-x="0" d="m95 560-72 75v-865h-47v865l-69-73-33 33 93 93-95 95 33 33 95-95 96 95 32-32-96-96 96-95z"/><glyph glyph-name="endash" unicode="–" horiz-adv-x="702" d="M623 416V298H79v118h544z"/><glyph glyph-name="emdash" unicode="—" horiz-adv-x="927" d="M848 416V298H79v118h769z"/><glyph glyph-name="quoteleft" unicode="‘" horiz-adv-x="275" d="M179 446H31l108 252h97z"/><glyph glyph-name="quoteright" unicode="’" horiz-adv-x="275" d="M97 698h147L136 446H40z"/><glyph glyph-name="quotesinglbase" unicode="‚" horiz-adv-x="251" d="M71 148h148L111-104H14z"/><glyph glyph-name="quotedblleft" unicode="“" horiz-adv-x="477" d="M179 446H31l108 252h97zm202 0H233l108 252h97z"/><glyph glyph-name="quotedblright" unicode="”" horiz-adv-x="477" d="M97 698h147L136 446H40zm202 0h147L338 446h-96z"/><glyph glyph-name="quotedblbase" unicode="„" horiz-adv-x="454" d="M72 148h147L111-104H15zm202 0h148L314-104h-97z"/><glyph glyph-name="dagger" unicode="†" horiz-adv-x="617" d="m567 446-203 12 14-722H238l14 722-203-12v108l203-11-14 243h140l-14-243 203 11V446z"/><glyph glyph-name="daggerdbl" unicode="‡" horiz-adv-x="617" d="M364 458V65l203 11V-32L364-20l14-244H238l14 244L50-32V76l202-11v393L50 446v108l202-11-14 243h140l-14-243 203 11V446z"/><glyph glyph-name="bullet" unicode="•" horiz-adv-x="480" d="M169 212.5Q137 231 118.5 263T100 333q0 39 18.5 71t50.5 50.5 70 18.5q39 0 71.5-18.5t51-50.5 18.5-71q0-38-18.5-70t-51-50.5T239 194q-38 0-70 18.5z"/><glyph glyph-name="ellipsis" unicode="…" horiz-adv-x="695" d="M287.5 16.5Q263 40 263 75t24.5 58.5T350 157q37 0 61-23.5T435 75t-24-58.5T350-7q-38 0-62.5 23.5zm220 0Q483 40 483 75t24.5 58.5T570 157q37 0 61-23.5T655 75t-24-58.5T570-7q-38 0-62.5 23.5zm-439 0Q44 40 44 75t24.5 58.5T131 157q37 0 61-23.5T216 75t-24-58.5T131-7Q93-7 68.5 16.5z"/><glyph glyph-name="perthousand" unicode="‰" horiz-adv-x="1116" d="M80.5 667.5Q125 710 195 710t114.5-42.5T354 550t-44.5-118T195 389 80.5 432 36 550t44.5 117.5zM647 700 254 0H118l392 700h137zM139 550q0-39 14.5-58t40.5-19q27 0 42 19t15 58q0 76-57 76-55 0-55-76zm317.5-282Q501 310 571 310t114-42 44-117q0-76-44-118.5T571-10 456.5 32.5 412 151q0 75 44.5 117zm351 0Q852 310 922 310t114.5-42 44.5-117q0-76-44.5-118.5T922-10 807.5 32.5 763 151q0 75 44.5 117zM529 208q-15-19-15-57 0-39 15-58t41-19 41 19 15 58q0 38-15 57t-41 19-41-19zm351.5 0Q866 189 866 151q0-39 14.5-58T921 74q27 0 42 19t15 58q0 38-15 57t-42 19q-26 0-40.5-19z"/><glyph glyph-name="guilsinglleft" unicode="‹" horiz-adv-x="316" d="M133 120 45 295l88 175h133l-92-175 92-175H133z"/><glyph glyph-name="guilsinglright" unicode="›" horiz-adv-x="316" d="M141 295 50 470h132l89-175-89-175H50z"/><glyph glyph-name="fraction" unicode="⁄" horiz-adv-x="579" d="M562 700 169 0H32l392 700h138z"/><glyph glyph-name="rupee" unicode="₨" horiz-adv-x="1167" d="M541 358.5Q499 303 415 284L591 0H426L263 275h-54V0H69v698h262q81 0 138-28t85.5-76.5T583 485q0-71-42-126.5zM209 379h117q57 0 85 27t28 76-28 76-85 27H209V379zm591-31.5q31-14.5 95-27.5 63-14 103-28.5t68.5-46.5 28.5-87q0-48-27.5-86T990 12.5 875-9Q772-9 708.5 39T637 175h142q3-36 28.5-56T874 99q42 0 64.5 17t22.5 45q0 32-31.5 47T833 236q-62 13-101.5 27T664 308t-28 85q0 46 26.5 85t77.5 62 120 23q100 0 160-49.5t68-133.5H947q-4 35-28.5 55T854 455t-62.5-17-22.5-44q0-32 31-46.5z"/><glyph glyph-name="Euro" unicode="€" horiz-adv-x="799" d="M543 147q43 25 68 73h160Q736 113 648.5 53.5T444-6Q324-6 233.5 58.5T108 231H23v83h69q-2 24-2 36 0 14 2 38H23v83h86q35 108 125.5 172T444 707q117 0 204.5-60T771 481H611q-25 48-68 72.5T443 578q-61 0-108.5-28T261 471h192v-83H236q-2-24-2-38 0-12 2-36h217v-83H260q26-51 74-80t109-29q57 0 100 25z"/><glyph glyph-name="indianrupee" unicode="₹" horiz-adv-x="611" d="M478 601v-76h101v-92H472q-16-95-78.5-138T205 252v-53q0-47 19.5-74T291 98q45 0 65 25.5t20 74.5h130q-2-101-57-154.5T292-10q-106 0-162 57T74 213v133q107 0 158 5.5t76 23.5 33 58H42v92h304v76H42v98h537v-98H478z"/><glyph glyph-name="uni20BA" unicode="₺" horiz-adv-x="842" d="M748 441q0-157-38-256.5t-120-148T374-12q-93 0-222 27v227L14 214v93l138 28v72L11 378v90l141 30v206h143V528l150 31v-92l-150-31v-72l148 30v-92l-148-30V127q33-7 78-7 130 0 180.5 82T604 441h144z"/><glyph glyph-name="uni20BD" unicode="₽" horiz-adv-x="653" d="M254 278v-72h178V96H254V0H114v96H22v110h92v72H22v108h92v312h257q81 0 138-27.5t85.5-75.5T623 488q0-57-26.5-104.5t-83-76.5T371 278H254zm0 108h114q55 0 83 27.5t28 74.5-28 74.5-83 27.5H254V386z"/><glyph glyph-name="uni2113" unicode="ℓ" horiz-adv-x="278" d="M209 740V0H69v740h140z"/><glyph glyph-name="trademark" unicode="™" horiz-adv-x="844" d="M25 705h265v-82h-80V353H105l1 270H25v82zm766 0V353h-97l-2 221-91-221h-71l-91 229V353h-94v352h139l85-226 92 226h130z"/><glyph glyph-name="uni2126" unicode="Ω" horiz-adv-x="786" d="M722 216q-28-64-86-108h106V0H470v112q62 32 99.5 92T607 345q0 72-27 125t-75.5 81T393 579t-111.5-28-75-81T180 345q0-82 37-142t100-91V0H44v108h106q-57 44-85 108T37 358q0 103 47.5 182.5T213 664t180 44 180.5-44 129-123.5T750 358q0-78-28-142z"/><glyph glyph-name="estimated" unicode="℮" horiz-adv-x="753" d="M385-7q-99 0-177.5 40.5T84 151 39 334t40 191 116 134 181 49q104 0 181-45.5t117-121T714 380v-62H208V145q73-67 177-67 71 0 130.5 29T633 194l52-59Q551-7 385-7zm155 574q-29 29-71.5 44T376 626q-104 0-168-67V397h332v170z"/><glyph glyph-name="partialdiff" unicode="∂" horiz-adv-x="599" d="M73 402q37 73 99.5 115.5T310 560q36 0 63-11.5t50-36.5q-10 69-45 108t-100 39q-33 0-72-10v75q49 16 105 16 120 0 186-90t66-242q0-126-40.5-220.5T412 42.5 254-8q-62 0-111 27t-78 83-29 138q0 89 37 162zm312 9q-25 32-67 32-40 0-72-26.5t-49.5-73T179 240q0-64 24.5-96.5T269 111q40 0 72.5 28t50.5 75.5T410 319q0 60-25 92z"/><glyph glyph-name="uni2206" unicode="∆" horiz-adv-x="714" d="m415 700 279-592V0H20v108l280 592h115zM164 108h386L357 540z"/><glyph glyph-name="product" unicode="∏" horiz-adv-x="744" d="M718 700V592h-74V0H504v592H240V0H99v592H26v108h692z"/><glyph glyph-name="summation" unicode="∑" horiz-adv-x="506" d="M466 592H163l254-208V276L160 54h306V-53H40v164l245 216L40 537v163h426V592z"/><glyph glyph-name="minus" unicode="−" horiz-adv-x="566" d="M495 416V298H71v118h424z"/><glyph glyph-name="uni2215" unicode="∕" horiz-adv-x="486" d="M444 947 174-181H37L307 947h137z"/><glyph glyph-name="uni2219" unicode="∙" horiz-adv-x="270" d="M75.5 267.5Q51 291 51 326t24.5 58.5T138 408q37 0 61-23.5t24-58.5-24-58.5-61-23.5q-38 0-62.5 23.5z"/><glyph glyph-name="radical" unicode="√" horiz-adv-x="876" d="M861 891 346-42h-70L136 206l-75-44-40 67 197 117 125-225 426 770h92z"/><glyph glyph-name="infinity" unicode="∞" horiz-adv-x="737" d="M661.5 467.5Q709 424 709 348q0-50-22.5-87T625 204t-85-20q-54 0-95.5 24T364 273q-29-41-71.5-65T199 184q-77 0-124 43.5T28 347q0 50 22.5 87t61.5 57 85 20q55 0 96-24.5t78-68.5q28 42 71.5 67.5T538 511q76 0 123.5-43.5zM261.5 297q26.5 16 46.5 43-31 37-53.5 55.5T207 414q-29 0-47-17.5T142 347q0-31 18-48.5t47-17.5q28 0 54.5 16zm315.5 1.5q18 17.5 18 49.5t-17.5 49-47.5 17q-29 0-57.5-17.5T425 349q27-33 51-50.5t54-17.5q29 0 47 17.5z"/><glyph glyph-name="integral" unicode="∫" horiz-adv-x="280" d="M174.5 894.5Q224 933 309 933h20l-12-118h-16q-21 0-31.5-12T256 765L168-72q-10-91-59.5-129.5T-27-240h-19l12 118h17q20 0 30.5 12T27-72l89 837q9 91 58.5 129.5z"/><glyph glyph-name="approxequal" unicode="≈" horiz-adv-x="592" d="M95 296q46 46 115 46 30 0 54.5-9.5T317 305q23-14 39.5-21t34.5-7q26 0 43.5 16t21.5 48h104q-17-97-63.5-143T381 152q-30 0-53.5 9.5T275 189q-25 14-40.5 21t-33.5 7q-26 0-44-16.5T134 153H32q17 97 63 143zm0 235q46 46 115 46 30 0 54.5-9.5T317 540q23-14 39.5-21t34.5-7q26 0 43.5 16t21.5 48h104q-17-97-63.5-143T381 387q-30 0-53.5 9.5T275 424q-25 14-40.5 21t-33.5 7q-26 0-44-16.5T134 388H32q17 97 63 143z"/><glyph glyph-name="notequal" unicode="≠" horiz-adv-x="721" d="M563 537h78V415H462l-97-118h276V175H265l-79-96H96l79 96H96v122h180l97 118H96v122h378l78 95h89z"/><glyph glyph-name="lessequal" unicode="≤" horiz-adv-x="535" d="m249 393 218-188H287L69 392l218 188h180zM80 143h383V36H80v107z"/><glyph glyph-name="greaterequal" unicode="≥" horiz-adv-x="535" d="m69 205 217 188L69 580h179l219-188-219-187H69zm3-62h383V36H72v107z"/><glyph glyph-name="lozenge" unicode="◊" horiz-adv-x="561" d="M535 352 281 97 26 352l255 254zm-365 0 111-112 111 112-111 111z"/><glyph glyph-name="dottedcircle" unicode="◌" horiz-adv-x="651" d="M332 467.5Q320 456 301 456t-31 11.5-12 30.5 12 30.5 31 11.5 31-11.5 12-30.5-12-30.5zm121-15Q441 441 422 441t-31 11.5-12 30.5 12 30.5 31 11.5 31-11.5 12-30.5-12-30.5zm-238-27Q203 414 184 414t-31 11.5-12 30.5 12 30.5 31 11.5 31-11.5 12-30.5-12-30.5zm330-47Q533 367 514 367t-31 11.5-12 30.5 12 30.5 31 11.5 31-11.5 12-30.5-12-30.5zm-406-52Q127 315 108 315t-31 11.5T65 357t12 30.5 31 11.5 31-11.5 12-30.5-12-30.5zm450-62Q577 253 558 253t-31 11.5-12 30.5 12 30.5 31 11.5 31-11.5 12-30.5-12-30.5zm-465-59Q112 194 93 194t-31 11.5T50 236t12 30.5T93 278t31-11.5 12-30.5-12-30.5zm455-61Q567 133 548 133t-31 11.5-12 30.5 12 30.5 31 11.5 31-11.5 12-30.5-12-30.5zm-410-52Q157 81 138 81t-31 11.5T95 123t12 30.5 31 11.5 31-11.5 12-30.5-12-30.5zm337-44Q494 37 475 37t-31 11.5T432 79t12 30.5 31 11.5 31-11.5T518 79t-12-30.5zm-239-32Q255 5 236 5t-31 11.5T193 47t12 30.5T236 89t31-11.5T279 47t-12-30.5zm124-14Q379-9 360-9T329 2.5 317 33t12 30.5T360 75t31-11.5T403 33 391 2.5z"/><glyph glyph-name="fi" unicode="ﬁ" horiz-adv-x="624" d="M226 554h323V0H409v439H226V0H84v439H21v115h63v28q0 102 57 150t172 45V659q-48 1-67.5-17T226 577v-23zm192 84q-24 23-24 58t24 58 61 23q38 0 62.5-23t24.5-58-24.5-58-62.5-23q-37 0-61 23z"/><glyph glyph-name="fl" unicode="ﬂ" horiz-adv-x="623" d="M323 439h-97V0H84v439H21v115h63v28q0 102 58 150t175 45V659q-51 1-71-17t-20-65v-23h97V439zm231 301V0H414v740h140z"/><glyph glyph-name="dvK_SSA" horiz-adv-x="838" d="M859 740V632H748V0H624v356H322q-43-20-68.5-35.5t-41.5-38-16-54.5q0-38 26-64t67-26q45 0 71.5 30t26.5 71h107V-60H376V95q-17-26-51-45t-81-19q-80 0-130.5 47T63 201q0 71 41 114t114 80q-56 17-92 59T90 561q0 56 28 99t76.5 66.5T303 750q85 0 141.5-46T501 576q0-73-55-126h178v290h235zM239 480.5q33-27.5 88-29.5 32 20 49.5 44t17.5 56q0 38-26.5 63T299 639q-39 0-66-23.5T206 552q0-44 33-71.5z"/><glyph glyph-name="dvJ_NYA" horiz-adv-x="829" d="M849 740V632H738V0H611v408H447q73-48 73-143 0-54-24-94.5T430.5 108 337 86q-49 0-89 18t-64 48V14H59v282h120q5-48 38-76t80-28q49 0 77 29t28 74q0 54-36 83.5T276 408h-33v103h368v121H-21v108h870z"/><glyph glyph-name="dvK" horiz-adv-x="715" d="M557 632V459q22 38 61.5 60.5T712 542q62 0 108.5-30t71.5-83 25-119H786q0 53-32 87t-82 34q-56 0-85.5-38T557 301V0H433v162q-23-40-65-62.5T268 77q-63 0-110 29t-73 82-26 122 26.5 121.5 75 81.5T273 542q56 0 96-21.5t64-59.5v171H-21v108h938V632H557zM377.5 203q27.5 18 41.5 46.5t14 59.5q0 50-31.5 86.5T312 432q-52 0-87-34t-35-89q0-56 34-90t87-34q39 0 66.5 18z"/><glyph glyph-name="dvKH" horiz-adv-x="672" d="M323 369q-46-53-123-59v-61q0-64 38.5-103.5T345 106q85 0 127 68-64 56-64 151 0 63 28.5 109t79.5 70.5T632 529q99 0 160.5-55T854 325q0-64-29-110.5t-79.5-71T632 119q-35 0-63 7-33-59-91-95T342-5Q217-5 144.5 66T72 264v137h30q67 0 102 32t35 106v93H-21v108h875V632H369V522q0-100-46-153zm229 34.5Q522 374 522 325t30-78.5 80-29.5 79.5 29.5T741 325t-29.5 78.5T632 433t-80-29.5z"/><glyph glyph-name="dvG" horiz-adv-x="521" d="M542 632H424V390q0-89-47-144.5T234 190q-93 0-143.5 51T40 383q0 21 1 31h125v-31q0-36 15.5-59.5T231 300q63 0 63 84v248H-21v108h563V632z"/><glyph glyph-name="dvGH" horiz-adv-x="398" d="M215 632v-52q0-47 25.5-72t82.5-25h42V379h-52q-55 0-82.5-23.5T203 294q0-44 33-67t86-23q75 0 118.5 43T484 358h109q0-72-32.5-131.5t-94-94T322 98q-117 0-183.5 47T72 281q0 58 34 97t83 50v3q-47 11-75 45.5T86 574v58H-21v108h614V632H215z"/><glyph glyph-name="dvNG" horiz-adv-x="686" d="M707 740V632H471V449H289q-37 0-62-13.5T202 389q0-31 22-45.5t56-14.5h45q86 0 145.5-41.5T530 156q0-80-57-127T311-18q-111 0-180 51.5T58 175h129q1-44 33.5-69.5T307 80q48 0 74.5 21t26.5 56q0 42-29.5 61.5T301 238h-37q-77 0-134 34.5T73 393q0 74 51.5 110.5T255 540h91v92H-21v108h728zm-55.5-311.5Q672 408 672 378q0-29-20.5-49.5T601 308t-50.5 20.5T530 378q0 30 20.5 50.5T601 449t50.5-20.5zM379-298 253-84h129l130-214H379z"/><glyph glyph-name="dvC" horiz-adv-x="447" d="M638 632H-21v108h659V632zm-30.5-413Q576 157 515 122.5T371 88q-104 0-168.5 50.5T138 283q0 41 16 75.5t46 57.5H50v102h367V416h-39q-53 0-85.5-31T260 305q0-51 35.5-80t88.5-29q65 1 104 47t39 118h111q1-80-30.5-142z"/><glyph glyph-name="dvCH" horiz-adv-x="821" d="M213 632v-79q0-96 100-96h20V353h-18q-58 0-88-27t-30-70q0-60 51.5-91.5T401 133q123 0 193 53.5T664 337q0 51-23.5 81T582 448q-33 0-56-24t-23-69q0-36 15-83H411q-16 43-16 97 0 87 54 130.5T583 543q86 0 140-55.5T777 332q0-94-45.5-164T601 60.5 400 23q-152 0-243 56.5T66 244q0 62 32.5 102t88.5 56v3q-46 10-74.5 45T84 548v84H-21v108h863V632H213z"/><glyph glyph-name="dvJ" horiz-adv-x="548" d="M701 740V632H-21v108h722zm0-358H490v-55q0-63-26-111.5t-74.5-76T276 112q-103 0-159.5 59T60 327v165h131V330q0-48 22.5-76.5T276 225q42 0 65 28t23 77v162h337V382z"/><glyph glyph-name="dvJH" horiz-adv-x="564" d="M223.5 435Q198 421 198 388q0-30 21.5-44.5T277 329h412v-97H497q27-37 27-92 0-67-44-109.5T356-12q-91 0-144 62V-81H90v251h116q4-38 33-62.5T317 83q43 0 65.5 21t22.5 52q0 39-27.5 60.5T297 238h-59q-71 3-120 40T69 389q0 78 52 115.5T252 542h91v90H-21v108h710V632H467V449H286q-37 0-62.5-14z"/><glyph glyph-name="dvNY" horiz-adv-x="537" d="M675 740V632H-21v108h696zM438.5 495.5Q498 447 514 365h161V256H516q-14-87-74.5-138T288 67q-97 0-159 52T59 254h122q9-34 37.5-56t70.5-22q55 0 85 37t30 93q0 54-30.5 91T289 434q-42 0-70.5-22.5T181 356H59q8 84 69.5 136T288 544q91 0 150.5-48.5z"/><glyph glyph-name="dvTT" horiz-adv-x="648" d="M236 393.5Q189 355 189 283q0-63 41.5-103T338 140q68 0 109.5 42T489 290h123q0-78-33.5-137.5t-95-92T340 28q-81 0-145 32T95 150 59 283q0 80 35.5 138t101 89T349 541h5v91H-21v108h689V632H480V432H357q-74 0-121-38.5zM405-251 279-37h129l130-214H405z"/><glyph glyph-name="dvTTH" horiz-adv-x="673" d="M399 632v-94q94-17 154.5-82T614 290q0-76-36.5-134T478 67 336 36q-78 0-141 31t-99.5 89T59 290q0 101 59.5 165.5T271 538v94H-21v108h714V632H399zm45.5-237.5Q403 435 336 435q-65 0-106.5-40.5T188 290t41.5-105T336 144q67 0 108.5 41T486 290t-41.5 104.5zM404-243 278-29h129l130-214H404z"/><glyph glyph-name="dvDD" horiz-adv-x="569" d="M227 435.5Q202 422 202 389q0-31 22-45.5t56-14.5h45q86 0 145.5-41.5T530 156q0-80-57-127T311-18q-111 0-180 51.5T58 175h129q1-44 33.5-69.5T307 80q48 0 74.5 21t26.5 56q0 42-29.5 61.5T301 238h-37q-77 0-134 34.5T73 393q0 74 51.5 110.5T255 540h88v92H-21v108h610V632H467V449H289q-37 0-62-13.5zM368-298 242-84h129l130-214H368z"/><glyph glyph-name="dvDDH" horiz-adv-x="650" d="M242 410q-58-48-58-138 0-80 51-130.5T376 91q62 0 102.5 29t40.5 78q0 32-20.5 53T447 272q-28 0-47-17.5T381 209q0-10 3-18h-93q-4 24-4 36 0 65 46 101.5T452 365q82 0 129.5-46T629 198q0-93-67.5-146.5T373-2q-89 0-160.5 33.5T100 128 59 276q0 87 38 148t104 92 150 31h27v85H-21v108h691V632H500V458H392q-92 0-150-48zm170-692L286-68h129l130-214H412z"/><glyph glyph-name="dvNN" horiz-adv-x="577" d="M597 632h-93V372q0-95-54.5-154T294 159q-100 0-154.5 60T85 372v260H-21v108h618V632zm-220 0H211V360q0-41 22.5-66.5T295 268t60.5 25 21.5 67v272z"/><glyph glyph-name="dvT" horiz-adv-x="387" d="M-21 632v108h570V632H-21zm570-249H350q-74 0-117-36t-43-103q0-66 38-103.5T339 103h20V2h-40Q203 2 131 64T59 247q0 124 79 185.5T344 494h205V383z"/><glyph glyph-name="dvTH" horiz-adv-x="474" d="M675 357q0-82-41.5-143T521 120.5 365 88q-140 0-220.5 74.5T64 369q0 37 5 64h91q88 0 140.5 27.5T353 556q0 36-21 59.5T275 639q-38 0-60-23.5T193 552q0-14 4-38H80q-4 26-4 41 0 61 26.5 105t72 66.5T276 749q58 0 103-24.5t70-69.5 25-103q0-100-69.5-156T210 340h-21q3-64 46.5-104T362 196q89 0 145.5 43T564 357h111z"/><glyph glyph-name="dvD" horiz-adv-x="610" d="M232 396q-41-34-41-95 0-55 33-87.5t88-32.5q45 0 77.5 28t32.5 80h119V-27H415v165q-22-29-58-44.5T275 78q-60 0-109 26t-78 77-29 124q0 75 34.5 128.5t95 80.5T326 541h50v91H-21v108h653l-1-108H506V430H339q-66 0-107-34zm308-702L414-92h129l130-214H540z"/><glyph glyph-name="dvDH" horiz-adv-x="428" d="M589.5 200.5Q553 145 485 114.5T327 84q-111 0-180 45.5T78 264q0 60 35 97.5t82 46.5v4q-53 14-89 56T70 577q0 77 50.5 124.5T251 749q82 0 128.5-45.5T426 584q0-16-2-38h-96l1 22q0 32-20 52.5T255 641t-54.5-22-20.5-56q0-48 38.5-73.5T316 464h59V360h-53q-54 0-83.5-22T209 278q0-44 37.5-65t92.5-21q83 0 128.5 37.5T513 329h113q0-73-36.5-128.5z"/><glyph glyph-name="dvN" horiz-adv-x="512" d="M675 740V632H-21v108h696zM85 405.5q30 46.5 81.5 70T282 499h393V391H440q35-48 35-115 0-59-27-102t-73.5-65T271 87q-60 0-109 25t-78 71.5T55 293q0 66 30 112.5zm259-42Q316 391 273 391q-45 0-73.5-27.5T171 293t28.5-70 73.5-27q43 0 71 27.5t28 70.5q0 42-28 69.5z"/><glyph glyph-name="dvP" horiz-adv-x="358" d="M204 632V428q0-68 31-106.5t94-38.5q57 0 89 37.5t32 93.5h107q0-69-28-123.5T447.5 205 319 174q-118 0-181.5 69.5T74 428v204h-95v108h578V632H204z"/><glyph glyph-name="dvPH" horiz-adv-x="714" d="M561 632V460q24 38 65 60t97 22q97 0 150.5-64T927 310H796q0 55-29.5 88T682 431q-60 0-90.5-41T561 287V0H432v239q-49-65-146-65-102 0-157 68T74 422v210h-95v108h948V632H561zm-129 0H204V422q0-65 28.5-102t85.5-37q54 0 84 35.5t30 89.5v224z"/><glyph glyph-name="dvB" horiz-adv-x="397" d="M580 740V632H-21v108h601zM461.5 519.5q58.5-33.5 87-88T577 315q0-67-29.5-123T460 103 320 70q-79 0-138 31.5t-91 87T59 314q0 69 32 123.5t91 85T319 553q84 0 142.5-33.5zM220 429l238-191q18 35 18 73 0 40-18 75t-52.5 56.5T323 464q-58 0-103-35zm-31.5-198.5q21.5-34.5 57-52.5t77.5-18q59 0 101 35L185 386q-18-34-18-75 0-46 21.5-80.5z"/><glyph glyph-name="dvBH" horiz-adv-x="529" d="M672 355H472v-59q0-104-52.5-162T270 76q-61 0-108 24t-73 68-26 101q0 92 60 141.5T277 460h74v83q0 45-16.5 70.5T283 639q-31 0-50-22t-19-58q0-18 4-34H88q-4 22-4 39 0 83 50.5 134T278 749q102 0 148-62t46-167v-60h200V355zm-321 0h-71q-44 0-70.5-22.5T183 270q0-39 24-62t61-23q40 0 61.5 28t21.5 76v66z"/><glyph glyph-name="dvM" horiz-adv-x="522" d="M452 632V460h216V355H452v-59q0-104-52.5-162T249 76q-93 0-149.5 53T43 269q0 92 59.5 141.5T256 460h76v172H-21v108h689V632H452zM332 355h-72q-44 0-70.5-22.5T163 270q0-39 23.5-62t60.5-23q40 0 62.5 28t22.5 76v66z"/><glyph glyph-name="dvY" horiz-adv-x="436" d="M613.5 221Q578 161 511 126.5T355 92q-91 0-157.5 34t-102 97.5T60 375q0 18 4 56h12q84 0 121.5 36T235 578v54H-21v108h669V632H363v-77q0-87-43.5-136.5T188 362q0-76 47.5-118.5T360 201q50 0 88.5 20t60 55 21.5 79h118q1-74-34.5-134z"/><glyph glyph-name="dvR" horiz-adv-x="533" d="M198 314V201q0-45 20.5-72.5T279 101q37 0 58.5 25.5T359 194v25h124q1-9 1-21 0-95-54-151T281-9Q179-9 124.5 51T70 207v212h103q80 0 116.5 36.5T326 563v69H-21v108h574V632h-98v-69q0-249-235-249h-22zm135-604L207-76h129l130-214H333z"/><glyph glyph-name="dvL" horiz-adv-x="648" d="M-21 632v108h872V632H-21zm477-226q20 55 63.5 90T635 531q61 0 110-27.5t77.5-80.5T851 295l-131-2q0 55-27.5 90T615 418q-53 0-79.5-39.5T509 275v-21H401v21q0 63-26 103t-77 40q-52 0-80-34.5T190 293q0-62 34-99t93-37l27 2V46q-26-2-34-2-79 0-136 32.5t-86 89T59 295q0 76 29 129t79.5 80T280 531q69 0 111.5-35t61.5-90h3z"/><glyph glyph-name="dvV" horiz-adv-x="372" d="M-21 632v108h601V632H-21zm571.5-437.5Q521 141 461.5 108T318 75q-79 0-137.5 30.5t-90 84.5T59 314q0 67 31.5 120t90.5 82.5T318 546q86 0 145-33.5t88-87.5 29-116q0-61-29.5-114.5zm-328.5 19q38-36.5 99-36.5 43 0 73.5 19t46 49.5T456 310q0 55-35.5 94T321 443q-59 0-98-36.5T184 311q0-61 38-97.5z"/><glyph glyph-name="dvSH" horiz-adv-x="547" d="M392 219h126v-16q0-99-57-155T305-8Q197-8 136 54.5T75 223v185h142q79 0 130 31.5t51 98.5q0 45-24.5 72T307 637t-66-27-24-72l1-38H90q-3 21-3 42 0 61 27 108t77 73 116 26q100 0 160.5-57.5T528 530q0-113-73.5-172T264 299h-58v-85q0-50 23-80t73-30q42 0 66 27.5t24 73.5v14z"/><glyph glyph-name="dvSS" horiz-adv-x="385" d="M570 632H200l370-265q0-50-28-96.5t-83.5-76T326 165q-122 0-187 72T74 428v204h-95v108h591V632zM412 296.5q32 22.5 43 56.5L199 540V424q0-72 32.5-111t99.5-39q49 0 81 22.5z"/><glyph glyph-name="dvS" horiz-adv-x="516" d="M433 556q0-76-35-132h232V319H198V203q0-46 21-74t63-28q39 0 61 26t22 67v13h124q1-8 1-19 0-91-55-144T284-9Q182-9 126 51.5T70 209v202h81q80 0 117 38.5T305 556v76H-21v108h651V632H433v-76z"/><glyph glyph-name="dvH" horiz-adv-x="586" d="M239 438q-22-14-22-46 0-20 11-35t30-23q21 4 50 4 103 0 161-50t68-128H413q-7 30-35 52.5T306 235q-52 0-83.5-33T191 116t31.5-85.5T306-2q42 0 70.5 21.5T413 71h124q-9-80-71.5-130T306-109q-74 0-128.5 29T94 .5 65 119q0 59 25.5 105.5T162 300q-35 19-54 48.5T89 417q0 60 43.5 94T250 545h100v87H-21v108h627V632H473V452H296q-35 0-57-14zm126-826L239-174h129l130-214H365z"/><glyph glyph-name="dvLL" horiz-adv-x="975" d="M-21 632v108H995V632H-21zm430.5-529.5Q357 69 287 69q-64 0-116 28.5T89 178 59 298q0 69 30 122t82 81.5T286 530q67 0 118-31.5t82-91.5h3q30 60 81 91.5T688 530q63 0 115-28.5t82.5-81.5T916 298q0-68-30-120t-82-80.5T688 69q-70 0-122.5 33.5T489 194h-4q-23-58-75.5-91.5zM219 211.5q34-32.5 86-32.5 53 0 86 33.5t33 85.5q0 54-33 88t-86 34-86.5-34-33.5-89q0-53 34-85.5zm365 .5q33-33 85-33 53 0 86.5 32.5T789 297q0 55-33 89t-86 34-86-34-33-88q0-53 33-86z"/><glyph glyph-name="dvK_SS" horiz-adv-x="548" d="M253.5 320.5Q228 305 212 282.5T196 228q0-38 26-64t67-26q45 0 71.5 30t26.5 71h107V-60H376V95q-17-26-51-45t-81-19q-80 0-130.5 47T63 201q0 71 41 114t114 80q-56 17-92 59T90 561q0 56 28 99t76.5 66.5T303 750q85 0 141.5-46T501 576q0-73-55-126h226v-94H322q-43-20-68.5-35.5zm-14.5 160q33-27.5 88-29.5 32 20 49.5 44t17.5 56q0 38-26.5 63T299 639q-39 0-66-23.5T206 552q0-44 33-71.5z"/><glyph glyph-name="dvJ_NY" horiz-adv-x="541" d="M710 740V632H-21v108h731zM243 511h467V408H447q73-48 73-143 0-54-24-94.5T430.5 108 337 86q-49 0-89 18t-64 48V14H59v282h120q5-48 38-76t80-28q49 0 77 29t28 74q0 54-36 83.5T276 408h-33v103z"/><glyph glyph-name="dvKx" horiz-adv-x="715" d="M557 632V459q22 38 61.5 60.5T712 542q62 0 108.5-30t71.5-83 25-119H786q0 53-32 87t-82 34q-56 0-85.5-38T557 301V0H433v162q-23-40-65-62.5T268 77q-63 0-110 29t-73 82-26 122 26.5 121.5 75 81.5T273 542q56 0 96-21.5t64-59.5v171H-21v108h938V632H557zM377.5 203q27.5 18 41.5 46.5t14 59.5q0 50-31.5 86.5T312 432q-52 0-87-34t-35-89q0-56 34-90t87-34q39 0 66.5 18zM305-122.5Q282-145 249-145q-32 0-55 22.5T171-68q0 33 23 56t55 23q33 0 56-23t23-56q0-32-23-54.5z"/><glyph glyph-name="dvKHx" horiz-adv-x="672" d="M323 369q-46-53-123-59v-61q0-64 38.5-103.5T345 106q85 0 127 68-64 56-64 151 0 63 28.5 109t79.5 70.5T632 529q99 0 160.5-55T854 325q0-64-29-110.5t-79.5-71T632 119q-35 0-63 7-33-59-91-95T342-5Q217-5 144.5 66T72 264v137h30q67 0 102 32t35 106v93H-21v108h875V632H369V522q0-100-46-153zm229 34.5Q522 374 522 325t30-78.5 80-29.5 79.5 29.5T741 325t-29.5 78.5T632 433t-80-29.5zm-175-605Q354-224 321-224q-32 0-55 22.5T243-147q0 33 23 56t55 23q33 0 56-23t23-56q0-32-23-54.5z"/><glyph glyph-name="dvGx" horiz-adv-x="521" d="M542 632H424V390q0-89-47-144.5T234 190q-93 0-143.5 51T40 383q0 21 1 31h125v-31q0-36 15.5-59.5T231 300q63 0 63 84v248H-21v108h563V632zM292-11.5Q269-34 236-34q-32 0-55 22.5T158 43q0 33 23 56t55 23q33 0 56-23t23-56q0-32-23-54.5z"/><glyph glyph-name="dvJx" horiz-adv-x="548" d="M701 740V632H-21v108h722zm0-358H490v-55q0-63-26-111.5t-74.5-76T276 112q-103 0-159.5 59T60 327v165h131V330q0-48 22.5-76.5T276 225q42 0 65 28t23 77v162h337V382zM334-86.5Q311-109 278-109q-32 0-55 22.5T200-32q0 33 23 56t55 23q33 0 56-23t23-56q0-32-23-54.5z"/><glyph glyph-name="dvPHx" horiz-adv-x="714" d="M561 632V460q24 38 65 60t97 22q97 0 150.5-64T927 310H796q0 55-29.5 88T682 431q-60 0-90.5-41T561 287V0H432v239q-49-65-146-65-102 0-157 68T74 422v210h-95v108h948V632H561zm-129 0H204V422q0-65 28.5-102t85.5-37q54 0 84 35.5t30 89.5v224zM295-20.5Q272-43 239-43q-32 0-55 22.5T161 34q0 33 23 56t55 23q33 0 56-23t23-56q0-32-23-54.5z"/><glyph glyph-name="dvReph" horiz-adv-x="0" d="M-210 719v89q0 90 44 149t142 59q89 0 137-51.5T157 825H44q1 38-16.5 60.5T-21 908q-35 0-52-25t-17-74v-90h-120z"/><glyph glyph-name="dvEyelash" horiz-adv-x="331" d="M-21 632v108h434V632H-21zm445-271q-27-17-67-28t-83-11q-101 0-171 51T30 532h123q2-60 41.5-88t97.5-28q41 0 83 17z"/><glyph glyph-name="dvRashtrasign" horiz-adv-x="0" d="M-177-97-285 33-393-97h-131l153 179h172L-44-97h-133z"/><glyph glyph-name="dvK_RA" horiz-adv-x="976" d="M557 632V459q22 38 61.5 60.5T712 542q62 0 108.5-30t71.5-82 25-117q0-71-26.5-122.5T817 112 710 85q-35 0-66 7v102q12-4 31-4 49 0 80 32t31 88q0 53-32 87t-82 34q-56 0-84.5-38T557 301V0H433v169q-8-14-18-24L240-46H101L231 91q-77 12-124.5 71.5T59 310q0 69 26.5 121.5t75 81.5T273 542q56 0 96-21.5t64-59.5v171H-21v108H996V632H557zM377.5 203q27.5 18 41.5 46.5t14 59.5q0 50-31.5 86.5T312 432q-52 0-87-34t-35-89q0-56 34-90t87-34q39 0 66.5 18z"/><glyph glyph-name="dvKH_RA" horiz-adv-x="950" d="M971 740V632H860V0H732v181q-43-60-131-60-17 0-34 3-8-13-26-37L344-138H206v7L327 0Q209 5 140.5 74T72 264v137h30q67 0 102 32t35 106v93H-21v108h992zM469 170q-30 28-46 68.5T407 328q0 59 25 105.5t69.5 72.5 99.5 26q86 0 131-60v160H369V522q0-100-46-153t-123-59v-61q0-64 38.5-103.5T345 106q83 0 124 64zm236 82q27 32 27 75t-26.5 74.5T629 433q-46 0-76.5-28.5T522 328q0-51 30.5-79.5T629 220q49 0 76 32z"/><glyph glyph-name="dvG_RA" horiz-adv-x="788" d="M809 740V632H698V0H572v209L344-20H195l374 360v292H424V453q0-89-47-144.5T234 253q-93 0-143.5 51T40 446q0 21 1 31h125v-31q0-36 15.5-59t49.5-23q63 0 63 83v185H-21v108h830z"/><glyph glyph-name="dvGH_RA" horiz-adv-x="703" d="M724 632H614V0H484v192l-11-14h1L270-51H130l150 156q-92 3-150 48.5T72 281q0 58 34 97t83 50v3q-47 11-75 45.5T86 574v58H-21v108h745V632zm-240 0H215v-49q0-100 108-100h42V379h-52q-55 0-82.5-23.5T203 294q0-44 33-67t86-23q45 0 82 19t58.5 54.5T484 358v274z"/><glyph glyph-name="dvNG_RA" horiz-adv-x="686" d="M707 740V632H471V449H289q-37 0-62-13.5T202 389q0-31 22-45.5t56-14.5h45q86 0 145.5-41.5T530 156q0-56-29-97T417-2l130-150H414L306-22 198-152H67L196-1q-63 22-99 67.5T58 175h129q1-44 33.5-69.5T307 80q48 0 74.5 21t26.5 56q0 42-29.5 61.5T301 238h-37q-77 0-134 34.5T73 393q0 74 51.5 110.5T255 540h91v92H-21v108h728zm-55.5-311.5Q672 408 672 378q0-29-20.5-49.5T601 308t-50.5 20.5T530 378q0 30 20.5 50.5T601 449t50.5-20.5z"/><glyph glyph-name="dvC_RA" horiz-adv-x="746" d="M767 632H656V0H527v180q-14-21-33-35L324-46H184L319 96q-80 8-130.5 57T138 283q0 41 16 75.5t46 57.5H50v102h367V416h-39q-53 0-85.5-31T260 305q0-51 35.5-80t88.5-29q65 1 104 47t39 118v271H-21v108h788V632z"/><glyph glyph-name="dvCH_RA" horiz-adv-x="821" d="M642 632v-97q62-17 98.5-69.5T777 332q0-114-64.5-190.5T530 37l129-149H526L418 18 310-112H179L300 30q-109 17-171.5 71.5T66 244q0 62 32.5 102t88.5 56v3q-46 10-74.5 45T84 548v84H-21v108h863V632H642zm-119 0H213v-79q0-96 100-96h20V353h-18q-58 0-88-27t-30-70q0-60 51.5-91.5T401 133q123 0 193 53.5T664 337q0 51-23.5 81T582 448q-33 0-56-24t-23-69q0-36 15-83H411q-16 43-16 97 0 70 35 111.5t93 55.5v96z"/><glyph glyph-name="dvJ_RA" horiz-adv-x="852" d="M873 632H762V0H642v192L428-43H286l353 366v69H484q-2-94-57-152.5T276 181q-103 0-159.5 59.5T60 397v99h131v-96q0-49 22.5-77t62.5-28q41 0 64.5 28t23.5 77v96h275v136H-21v108h894V632z"/><glyph glyph-name="dvJH_RA" horiz-adv-x="936" d="M956 632H846V0H723v62L583-111H453l270 314v29H497q27-37 27-92 0-67-44-109.5T356-12q-91 0-144 62V-81H90v251h116q4-38 33-62.5T317 83q43 0 65.5 21t22.5 52q0 39-27.5 60.5T297 238h-59q-71 3-120 40T69 389q0 78 52 115.5T252 542h91v90H-21v108h977V632zM321 329h398v303H467V449H286q-37 0-62.5-14T198 388q0-30 21.5-44.5T277 329h44z"/><glyph glyph-name="dvNY_RA" horiz-adv-x="825" d="M891 632H780V0H654v100L489-85H358l296 316v45H517q-11-87-72-138.5T288 86q-65 0-115.5 24t-80 66.5T59 273h122q7-33 36.5-55.5T289 195q55 0 85 34.5t30 86.5q0 50-30 84t-85 34q-42 0-70.5-22.5T181 356H59q8 84 69.5 136T288 544q87 0 145.5-43T511 385h140v247H-21v108h912V632z"/><glyph glyph-name="dvTT_RA" horiz-adv-x="648" d="M236 393.5Q189 355 189 283q0-63 41.5-103T338 140q68 0 109.5 42T489 290h123q0-87-42-151T453 47L579-98H446L342 28h-8L230-98H99L223 48q-76 27-120 89T59 283q0 80 35.5 138t101 89T349 541h5v91H-21v108h689V632H480V432H357q-74 0-121-38.5z"/><glyph glyph-name="dvTTH_RA" horiz-adv-x="675" d="M399 632v-94q94-17 154.5-82T614 290q0-86-45.5-147.5T446 54l134-155H447L339 29 231-101H100L231 52q-79 26-125.5 88.5T59 290q0 101 59.5 165.5T271 538v94H-21v108h714V632H399zm45.5-237.5Q403 435 336 435q-65 0-106.5-40.5T188 290t41.5-105T336 144q67 0 108.5 41T486 290t-41.5 104.5z"/><glyph glyph-name="dvDD_RA" horiz-adv-x="569" d="M227 435.5Q202 422 202 389q0-31 22-45.5t56-14.5h45q86 0 145.5-41.5T530 156q0-57-30-98.5T413-3l129-149H409L301-22 193-152H62L193 1q-62 22-97 66.5T58 175h129q1-44 33.5-69.5T307 80q48 0 74.5 21t26.5 56q0 42-29.5 61.5T301 238h-37q-77 0-134 34.5T73 393q0 74 51.5 110.5T255 540h88v92H-21v108h610V632H467V449H289q-37 0-62-13.5z"/><glyph glyph-name="dvDDH_RA" horiz-adv-x="650" d="M242 410q-58-48-58-138 0-80 51-130.5T376 91q62 0 102.5 29t40.5 78q0 32-20.5 53T447 272q-28 0-47-17.5T381 209q0-10 3-18h-93q-4 24-4 36 0 65 46 101.5T452 365q82 0 129.5-46T629 198q0-73-42.5-122.5T466 8l125-145H458L350-7 242-137H111L244 19q-85 29-135 96T59 276q0 87 38 148t104 92 150 31h27v85H-21v108h691V632H500V458H392q-92 0-150-48z"/><glyph glyph-name="dvNN_RA" horiz-adv-x="878" d="M898 632H787V0H666v211L435-41H288l373 390v283H504V452q0-95-54.5-154T294 239q-100 0-154.5 60T85 452v180H-21v108h919V632zm-521 0H211V441q0-41 23-67t61-26q39 0 60.5 25.5T377 441v191z"/><glyph glyph-name="dvT_RA" horiz-adv-x="704" d="M725 632H614V0H490v215L272 0H104v6l377 341q-21 33-58 53.5T341 421q-66 0-108.5-39T190 273H61q-1 75 29 131.5t86.5 87.5T308 523q59 0 104-22t75-57v188H-21v108h746V632z"/><glyph glyph-name="dvTH_RA" horiz-adv-x="783" d="M804 740V632H693V0H564v204q-17-33-46-56h3L268-70H109v7L301 94q-110 13-173.5 86T64 369q0 37 5 64h91q88 0 140.5 27.5T353 556q0 36-21 59.5T275 639q-38 0-60-23.5T193 552q0-14 4-38H80q-4 26-4 41 0 61 26.5 105t72 66.5T276 749q58 0 103-24.5t70-69.5 25-103q0-100-69.5-156T210 340h-21q3-64 46.5-104T362 196q56 0 102 24t73 71 27 112v337h240z"/><glyph glyph-name="dvD_RA" horiz-adv-x="610" d="M232 396q-41-34-41-95 0-55 33-87.5t88-32.5q45 0 77.5 28t32.5 80h119V-27H415v167l-15-16h1L226-67H86L233 86q-78 13-126 70T59 305q0 75 34.5 128.5t95 80.5T326 541h50v91H-21v108h652V632H506V430H339q-66 0-107-34z"/><glyph glyph-name="dvDH_RA" horiz-adv-x="724" d="M751 632H642V0H513v186q-10-15-21-26L289-68H148L299 88q-96 0-158.5 46T78 264q0 60 35 97.5t82 46.5v4q-53 14-89 56T70 577q0 77 50.5 124.5T251 749q82 0 128.5-45.5T426 584q0-16-2-38h-96l1 22q0 32-20 52.5T255 641t-54.5-22-20.5-56q0-48 38.5-73.5T316 464h59V360h-53q-54 0-83.5-22T209 278q0-42 33.5-64t89.5-22q81 0 131 51t50 134v363h238V632z"/><glyph glyph-name="dvN_RA" horiz-adv-x="850" d="M870 632H760V0H643v146L442-83H301l335 354v120H440q35-48 35-115 0-55-26.5-98t-73-67T271 87q-60 0-109 25t-78 71.5T55 293q0 66 30 112.5t81.5 70T282 499h354v133H-21v108h891V632zM344 223.5q28 27.5 28 70.5 0 42-28 69.5T273 391q-45 0-73.5-27.5T171 293t28.5-70 73.5-27q43 0 71 27.5z"/><glyph glyph-name="dvP_RA" horiz-adv-x="668" d="M689 632H578V0H450v246l-11-13L219-21H79l188 202q-94 9-143.5 75.5T74 428v204h-95v108h710V632zm-239 0H204V428q0-68 30.5-106.5T327 283q58 0 90.5 37.5T450 414v218z"/><glyph glyph-name="dvPH_RA" horiz-adv-x="985" d="M561 632V460q24 38 65 60t97 22q61 0 107-29.5t71.5-80.5T927 317q0-72-26.5-124.5t-74-80T719 85q-38 0-70 9v100q18-5 37-5 49 0 79.5 33t30.5 88q0 53-32 87t-82 34q-60 0-90.5-41T561 287V0H432v243q-10-12-16-17L211-21H71l182 203q-87 10-133 74.5T74 422v210h-95v108h1027V632H561zm-129 0H204V422q0-65 28.5-102t85.5-37q54 0 84 35.5t30 89.5v224z"/><glyph glyph-name="dvB_RA" horiz-adv-x="688" d="M708 740V632H599V0H474v152q-15-18-16-19L283-59H146L282 79q-64 5-114.5 35T88 195.5 59 314q0 70 31.5 124t86.5 84 124 30q57 0 100.5-21t72.5-57v158H-21v108h729zM227 433l237-191q17 36 17 73 0 40-18 75t-52.5 56-82.5 21q-59 0-101-34zm-34-199q21-34 57-52t78-18q60 0 102 35L191 390q-19-35-19-76 0-46 21-80z"/><glyph glyph-name="dvBH_RA" horiz-adv-x="831" d="M872 740V632H760V0H643v148L413-83H271l366 347v98H469v-46q0-100-52.5-159.5T269 97q-92 0-149 50.5T63 281q0 89 60 136.5T277 465h76v78q0 96-73 96-31 0-50-21.5T211 560q0-13 3-33H88q-4 26-4 40 0 81 50.5 131.5T278 749q100 0 145.5-62T469 520v-55h168v275h235zM353 362h-75q-42 0-69-22t-27-59q0-35 24-56t62-21q42 0 63.5 27.5T353 308v54z"/><glyph glyph-name="dvM_RA" horiz-adv-x="822" d="M842 632H731V0H614v149L383-83H241l367 348v110H450v-56q0-100-52.5-158.5T249 102q-61 0-107.5 23.5t-72.5 66T43 289q0 91 59.5 140T256 478h77v154H-21v108h863V632zm-234 0H450V478h158v154zM333 375h-76q-42 0-68.5-23T162 290q0-37 24-59.5t61-22.5q42 0 64 28t22 77v62z"/><glyph glyph-name="dvY_RA" horiz-adv-x="749" d="M770 632H659V0H530v181l-22-24h2L257-62H100v7L287 98q-108 13-167.5 86.5T60 375q0 18 4 56h12q84 0 121.5 36T235 578v54H-21v108h791V632zm-240 0H363v-77q0-87-43.5-136.5T188 362q0-73 44.5-117T356 201q78 0 126 48t48 123v260z"/><glyph glyph-name="dvL_RA" horiz-adv-x="910" d="M717 632V517q61-23 97.5-80.5T851 295q0-73-29-130t-85.5-89T600 44q-8 0-34 2v113l27-2q59 0 93 37t34 99q0 55-27.5 90T615 418q-53 0-79.5-39.5T509 275v-21H401v21q0 63-26 103t-77 40q-52 0-80-34.5T190 293q0-62 34-99t93-37l27 2V46q-26-2-34-2-79 0-136 32.5t-86 89T59 295q0 76 29 129t79.5 80T280 531q69 0 111.5-35t61.5-90h3q17 46 49.5 78t84.5 43v105H-21v108h951V632H717zm42-814L651-52 543-182H412L565-3h172l155-179H759z"/><glyph glyph-name="dvV_RA" horiz-adv-x="670" d="M690 740V632H580V0H454v164q-15-22-31-35L261-44H122L250 85q-89 11-140 73T59 314q0 67 28 120t79.5 82.5T285 546q57 0 100-22t69-61v169H-21v108h711zM392.5 197q30.5 19 46 49t15.5 63v1q0 54-35.5 93T319 442q-58 0-95.5-36T186 311q0-60 37.5-96.5T319 178q43 0 73.5 19z"/><glyph glyph-name="dvSH_RA" horiz-adv-x="840" d="M861 740V632H750V0H623v152l-65 33L355-9H203V2l260 233-133 69-154-120H29v15l203 157q-66 41-100.5 89.5T97 557q0 55 25.5 98.5t73 68.5T306 749q65 0 113-24t74-66 26-95q0-58-23.5-101.5T417 373l205-107h1v474h238zM303 432l17-9q39 30 60 59.5t21 68.5q0 37-24.5 63.5T310 642q-41 0-66.5-26.5T218 551q0-73 85-119z"/><glyph glyph-name="dvSS_RA" horiz-adv-x="680" d="M701 632H590V0H463v238q-10-14-25-26L219-21H79l193 191q-96 10-147 79.5T74 428v204h-95v108h722V632zm-238 0H200l263-192v192zM231.5 314.5Q264 274 329 274q46 0 78 21.5t46 58.5L199 538V424q0-69 32.5-109.5z"/><glyph glyph-name="dvS_RA" horiz-adv-x="901" d="M922 632H811V0H698v169L527-61H403l284 355v31H192V189q0-39 19.5-63.5T268 101q33 0 51.5 25t18.5 64v13h112q1-9 1-20 0-89-48-140.5T269-9q-95 0-147 57T70 196v215h81q80 0 117 38.5T305 556v76H-21v108h943V632zm-235 0H433v-76q0-76-35-132h289v208z"/><glyph glyph-name="dvH_RA" horiz-adv-x="586" d="M239 438q-22-14-22-46 0-20 11.5-35t31.5-24q20 4 47 4 85 0 145-41.5T525 191L431 89H316l94 103q-14 20-39 33.5T311 239q-57 0-91-39.5T186 99 220.5.5 312-37q44 0 73 21.5T424 36h113q-6-50-36-89.5t-80-62T306-138q-74 0-128.5 30.5T94-22 65 104q0 63 26.5 113t73.5 81q-36 18-56 48.5T89 417q0 60 43.5 94T250 545h100v87H-21v108h627V632H473V452H296q-35 0-57-14z"/><glyph glyph-name="dvLL_RA" horiz-adv-x="975" d="M767 632V517q67-22 108-80t41-139q0-70-32.5-123.5T796 93L933-65H800L692 65 584-65H453L586 91q-68 32-97 103h-4q-23-58-75.5-91.5T287 69q-64 0-116 28.5T89 178 59 298q0 69 30 122t82 81.5T286 530q67 0 118-31.5t82-91.5h3q49 99 153 119v106H-21v108H995V632H767zM391 212.5q33 33.5 33 85.5 0 54-33 88t-86 34-86.5-34-33.5-89q0-53 34-85.5t86-32.5q53 0 86 33.5zm364.5-1Q789 244 789 297q0 55-33 89t-86 34-86-34-33-88q0-53 33-86t85-33q53 0 86.5 32.5z"/><glyph glyph-name="dvKx_RA" horiz-adv-x="1042" d="M623 632V460q23 38 62.5 60t92.5 22q62 0 108.5-30t71.5-82 25-117q0-71-26.5-122.5T883 112 776 85q-35 0-66 7v102q12-4 32-4 48 0 79 32t31 88q0 53-31.5 87T738 431q-56 0-84.5-38T623 301V0H499v168q-6-9-20-25L306-46H167L297 91q-77 12-124.5 71.5T125 310q0 69 26.5 121.5t75 81.5T339 542q56 0 96-21.5t64-58.5v170H-21v108h1084V632H623zM467 222.5q32 37.5 32 86.5 0 50-31.5 86.5T378 432q-53 0-87.5-34T256 309q0-56 34-90t88-34q57 0 89 37.5zm-334.5-112Q153 90 153 60q0-29-20.5-49T82-9Q54-9 33.5 11.5T13 60q0 30 20 50.5T82 131q30 0 50.5-20.5z"/><glyph glyph-name="dvKHx_RA" horiz-adv-x="950" d="M971 740V632H860V0H732v181q-43-60-131-60-17 0-34 3-8-13-26-37L344-138H206v7L327 0Q209 5 140.5 74T72 264v137h30q67 0 102 32t35 106v93H-21v108h992zM469 170q-30 28-46 68.5T407 328q0 59 25 105.5t69.5 72.5 99.5 26q86 0 131-60v160H369V522q0-100-46-153t-123-59v-61q0-64 38.5-103.5T345 106q83 0 124 64zm236 82q27 32 27 75t-26.5 74.5T629 433q-46 0-76.5-28.5T522 328q0-51 30.5-79.5T629 220q49 0 76 32zM145.5-21.5Q166-42 166-72q0-29-20.5-49T95-141q-28 0-48.5 20T26-72q0 30 20 50.5T95-1q30 0 50.5-20.5z"/><glyph glyph-name="dvGx_RA" horiz-adv-x="788" d="M809 740V632H698V0H572v209L344-20H195l374 360v292H424V453q0-89-47-144.5T234 253q-93 0-143.5 51T40 446q0 21 1 31h125v-31q0-36 15.5-59t49.5-23q63 0 63 83v185H-21v108h830zM152.5 148.5Q173 128 173 98q0-29-20.5-49T102 29q-28 0-48.5 20.5T33 98q0 30 20 50.5t49 20.5q30 0 50.5-20.5z"/><glyph glyph-name="dvJx_RA" horiz-adv-x="852" d="M873 632H762V0H642v192L428-43H286l353 366v69H484q-2-94-57-152.5T276 181q-103 0-159.5 59.5T60 397v99h131v-96q0-49 22.5-77t62.5-28q41 0 64.5 28t23.5 77v96h275v136H-21v108h894V632zM196.5 87.5Q217 67 217 37q0-29-20.5-49T146-32q-28 0-48.5 20.5T77 37q0 30 20 50.5t49 20.5q30 0 50.5-20.5z"/><glyph glyph-name="dvPHx_RA" horiz-adv-x="1059" d="M636 632V461q24 38 64.5 59.5T797 542q61 0 107.5-29.5T976 432t25-115q0-72-26.5-124.5t-73.5-80T794 85q-37 0-71 9v100q22-5 38-5 49 0 79 33t30 88q0 53-31.5 87T757 431q-60 0-90.5-41T636 287V0H506v242l-13-14L286-21H146l182 203q-87 10-133 74.5T149 422v210H-21v108h1101V632H636zm-130 0H278V422q0-65 28.5-102t85.5-37q55 0 84.5 35.5T506 408v224zM138.5 180.5Q159 160 159 130q0-29-20.5-49T88 61q-28 0-48.5 20.5T19 130q0 30 20 50.5T88 201q30 0 50.5-20.5z"/><glyph glyph-name="dvK_R" horiz-adv-x="715" d="M557 632V459q22 38 61.5 60.5T712 542q62 0 108.5-30t71.5-83 25-119H786q0 53-32 87t-82 34q-56 0-84.5-38T557 301V0H433v169q-8-14-18-24L240-46H101L231 91q-77 12-124.5 71.5T59 310q0 69 26.5 121.5t75 81.5T273 542q56 0 96-21.5t64-59.5v171H-21v108h938V632H557zM377.5 203q27.5 18 41.5 46.5t14 59.5q0 50-31.5 86.5T312 432q-52 0-87-34t-35-89q0-56 34-90t87-34q39 0 66.5 18z"/><glyph glyph-name="dvKH_R" horiz-adv-x="672" d="M323 369q-46-53-123-59v-61q0-64 38.5-103.5T345 106q85 0 127 68-64 56-64 151 0 63 28.5 109t79.5 70.5T632 529q99 0 160.5-55T854 325q0-64-29-110.5t-79.5-71T632 119q-36 0-64 7-12-21-27-39L344-138H206v7L327 0Q209 5 140.5 74T72 264v137h30q67 0 102 32t35 106v93H-21v108h875V632H369V522q0-100-46-153zm229 34.5Q522 374 522 325t30-78.5 80-29.5 79.5 29.5T741 325t-29.5 78.5T632 433t-80-29.5z"/><glyph glyph-name="dvG_R" horiz-adv-x="521" d="M596 740V632H424V453q0-89-47-144.5T234 253q-93 0-143.5 51T40 446q0 21 1 31h125v-31q0-36 15.5-59t49.5-23q63 0 63 83v185H-21v108h617zM195-20l401 386V233L344-20H195z"/><glyph glyph-name="dvGH_R" horiz-adv-x="398" d="M215 632v-52q0-47 25.5-72t82.5-25h42V379h-52q-55 0-82.5-23.5T203 294q0-44 33-67t86-23q75 0 118.5 43T484 358h109q0-57-21-107t-60-85L320-51H181L324 98h-2q-117 0-183.5 47T72 281q0 58 34 97t83 50v3q-47 11-75 45.5T86 574v58H-21v108h614V632H215z"/><glyph glyph-name="dvNG_R" horiz-adv-x="686" d="M707 740V632H471V449H289q-37 0-62-13.5T202 389q0-31 22-45.5t56-14.5h45q86 0 145.5-41.5T530 156q0-56-29-97T417-2l130-150H414L306-22 198-152H67L196-1q-63 22-99 67.5T58 175h129q1-44 33.5-69.5T307 80q48 0 74.5 21t26.5 56q0 42-29.5 61.5T301 238h-37q-77 0-134 34.5T73 393q0 74 51.5 110.5T255 540h91v92H-21v108h728zm-55.5-311.5Q672 408 672 378q0-29-20.5-49.5T601 308t-50.5 20.5T530 378q0 30 20.5 50.5T601 449t50.5-20.5zM370-389 244-175h129l130-214H370z"/><glyph glyph-name="dvC_R" horiz-adv-x="447" d="M638 632H-21v108h659V632zm-21-392.5Q595 185 552 149L381-46H242L369 88q-103 1-167 51.5T138 283q0 41 16 75.5t46 57.5H50v102h367V416h-39q-53 0-85.5-31T260 305q0-51 35.5-80t88.5-29q65 1 104 47t39 118h111q1-67-21-121.5z"/><glyph glyph-name="dvCH_R" horiz-adv-x="821" d="M213 632v-79q0-96 100-96h20V353h-18q-58 0-88-27t-30-70q0-60 51.5-91.5T401 133q123 0 193 53.5T664 337q0 51-23.5 81T582 448q-33 0-56-24t-23-69q0-36 15-83H411q-16 43-16 97 0 87 54 130.5T583 543q86 0 140-55.5T777 332q0-114-64.5-190.5T530 37l129-149H526L418 18 310-112H179L300 30q-109 17-171.5 71.5T66 244q0 62 32.5 102t88.5 56v3q-46 10-74.5 45T84 548v84H-21v108h863V632H213z"/><glyph glyph-name="dvJ_R" horiz-adv-x="548" d="M701 740V632H-21v108h722zm0-483L428-43H286l414 429H484q-3-92-58-148.5T276 181q-103 0-159.5 59.5T60 397v99h131v-96q0-49 22.5-77t62.5-28q41 0 64.5 28t23.5 77v96h337V257z"/><glyph glyph-name="dvJH_R" horiz-adv-x="564" d="M223.5 435Q198 421 198 388q0-30 21.5-44.5T277 329h458v-97H497q27-37 27-92 0-67-44-109.5T356-12q-91 0-144 62V-81H90v251h116q4-38 33-62.5T317 83q43 0 65.5 21t22.5 52q0 39-27.5 60.5T297 238h-59q-71 3-120 40T69 389q0 78 52 115.5T252 542h91v90H-21v108h756V632H467V449H286q-37 0-62.5-14zM453-111l282 322V82L583-111H453z"/><glyph glyph-name="dvNY_R" horiz-adv-x="537" d="M692 740V632H-21v108h713zM433.5 501Q492 458 511 385h181V143L489-85H358l333 361H517q-11-87-72-138.5T288 86q-65 0-115.5 24t-80 66.5T59 273h122q7-33 36.5-55.5T289 195q55 0 85 34.5t30 86.5q0 50-30 84t-85 34q-42 0-70.5-22.5T181 356H59q8 84 69.5 136T288 544q87 0 145.5-43z"/><glyph glyph-name="dvTT_R" horiz-adv-x="648" d="M236 393.5Q189 355 189 283q0-63 41.5-103T338 140q68 0 109.5 42T489 290h123q0-87-42-151T453 47L579-98H446L342 28h-8L230-98H99L223 48q-76 27-120 89T59 283q0 80 35.5 138t101 89T349 541h5v91H-21v108h689V632H480V432H357q-74 0-121-38.5zM405-335 279-121h129l130-214H405z"/><glyph glyph-name="dvTTH_R" horiz-adv-x="675" d="M399 632v-94q94-17 154.5-82T614 290q0-86-45.5-147.5T446 54l134-155H447L339 29 231-101H100L231 52q-79 26-125.5 88.5T59 290q0 101 59.5 165.5T271 538v94H-21v108h714V632H399zm45.5-237.5Q403 435 336 435q-65 0-106.5-40.5T188 290t41.5-105T336 144q67 0 108.5 41T486 290t-41.5 104.5zM403-339 277-125h129l130-214H403z"/><glyph glyph-name="dvDD_R" horiz-adv-x="569" d="M227 435.5Q202 422 202 389q0-31 22-45.5t56-14.5h45q86 0 145.5-41.5T530 156q0-57-30-98.5T413-3l129-149H409L301-22 193-152H62L193 1q-62 22-97 66.5T58 175h129q1-44 33.5-69.5T307 80q48 0 74.5 21t26.5 56q0 42-29.5 61.5T301 238h-37q-77 0-134 34.5T73 393q0 74 51.5 110.5T255 540h88v92H-21v108h610V632H467V449H289q-37 0-62-13.5zM364-389 238-175h129l130-214H364z"/><glyph glyph-name="dvDDH_R" horiz-adv-x="650" d="M242 410q-58-48-58-138 0-80 51-130.5T376 91q62 0 102.5 29t40.5 78q0 32-20.5 53T447 272q-28 0-47-17.5T381 209q0-10 3-18h-93q-4 24-4 36 0 65 46 101.5T452 365q82 0 129.5-46T629 198q0-73-42.5-122.5T466 8l125-145H458L350-7 242-137H111L244 19q-85 29-135 96T59 276q0 87 38 148t104 92 150 31h27v85H-21v108h691V632H500V458H392q-92 0-150-48zm177-784L293-160h129l130-214H419z"/><glyph glyph-name="dvNN_R" horiz-adv-x="577" d="M671 740V632H504V452q0-95-54.5-154T294 239q-100 0-154.5 60T85 452v180H-21v108h692zM377 632H211V441q0-41 23-67t61-26q39 0 60.5 25.5T377 441v191zM288-41l383 401V216L435-41H288z"/><glyph glyph-name="dvT_R" horiz-adv-x="417" d="M609 740V632H-21v108h630zM509 471.5Q584 419 609 329L272 0H104v6l377 341q-20 33-56.5 53.5T342 421q-66 0-109-39t-43-109H61q0 73 33.5 130t95.5 89 144 32q100 0 175-52.5z"/><glyph glyph-name="dvTH_R" horiz-adv-x="474" d="M649 240.5Q623 189 576 153L310-80H150v7L349 88q-133 5-209 79T64 369q0 37 5 64h91q88 0 140.5 27.5T353 556q0 36-21 59.5T275 639q-38 0-60-23.5T193 552q0-14 4-38H80q-4 26-4 41 0 61 26.5 105t72 66.5T276 749q58 0 103-24.5t70-69.5 25-103q0-100-69.5-156T210 340h-21q3-64 46.5-104T362 196q89 0 145.5 43T564 357h111q0-65-26-116.5z"/><glyph glyph-name="dvD_R" horiz-adv-x="610" d="M232 396q-41-34-41-95 0-55 33-87.5t88-32.5q45 0 77.5 28t32.5 80h119V-27H415v167l-15-16h1L226-67H86L233 86q-78 13-126 70T59 305q0 75 34.5 128.5t95 80.5T326 541h50v91H-21v108h652V632H506V430H339q-66 0-107-34zm308-702L414-92h129l130-214H540z"/><glyph glyph-name="dvDH_R" horiz-adv-x="428" d="M607 233.5Q588 190 552 157L355-68H215L362 85q-12-1-35-1-111 0-180 45.5T78 264q0 60 35 97.5t82 46.5v4q-53 14-89 56T70 577q0 77 50.5 124.5T251 749q82 0 128.5-45.5T426 584q0-16-2-38h-96l1 22q0 32-20 52.5T255 641t-54.5-22-20.5-56q0-48 38.5-73.5T316 464h59V360h-53q-54 0-83.5-22T209 278q0-44 37.5-65t92.5-21q83 0 128.5 37.5T513 329h113q0-52-19-95.5z"/><glyph glyph-name="dvN_R" horiz-adv-x="512" d="M675 740V632H-21v108h696zM85 405.5q30 46.5 81.5 70T282 499h393V391H440q35-48 35-115 0-59-27-102t-73.5-65T271 87q-60 0-109 25t-78 71.5T55 293q0 66 30 112.5zm259-42Q316 391 273 391q-45 0-73.5-27.5T171 293t28.5-70 73.5-27q43 0 71 27.5t28 70.5q0 42-28 69.5zM301-83l374 397V179L442-83H301z"/><glyph glyph-name="dvP_R" horiz-adv-x="358" d="M204 632V428q0-68 31-106.5t94-38.5q57 0 89 37.5t32 93.5h107q0-59-20.5-107.5T477 225L269-21H129l182 195q-114 3-175.5 72T74 428v204h-95v108h578V632H204z"/><glyph glyph-name="dvPH_R" horiz-adv-x="714" d="M561 632V460q24 38 65 60t97 22q97 0 150.5-64T927 310H796q0 55-29.5 88T682 431q-60 0-90.5-41T561 287V0H432v243q-10-12-16-17L211-21H71l182 203q-87 10-133 74.5T74 422v210h-95v108h948V632H561zm-129 0H204V422q0-65 28.5-102t85.5-37q54 0 84 35.5t30 89.5v224z"/><glyph glyph-name="dvB_R" horiz-adv-x="397" d="M580 740V632H-21v108h601zM461.5 519.5q58.5-33.5 87-88T577 315q0-52-18-98t-52-79L331-59H200L327 70h-7q-79 0-138 31.5t-91 87T59 314q0 69 32 123.5t91 85T319 553q84 0 142.5-33.5zM220 429l238-191q18 35 18 73 0 40-18 75t-52.5 56.5T323 464q-58 0-103-35zm-31.5-198.5q21.5-34.5 57-52.5t77.5-18q59 0 101 35L185 386q-18-34-18-75 0-46 21.5-80.5z"/><glyph glyph-name="dvBH_R" horiz-adv-x="529" d="M673 465V362H469v-46q0-100-52.5-159.5T269 97q-92 0-149 50.5T63 281q0 89 60 136.5T277 465h76v78q0 96-73 96-31 0-50-21.5T211 560q0-13 3-33H88q-4 26-4 40 0 81 50.5 131.5T278 749q100 0 145.5-62T469 520v-55h204zM353 362h-75q-42 0-69-22t-27-59q0-35 24-56t62-21q42 0 63.5 27.5T353 308v54zM271-83l402 379V179L413-83H271z"/><glyph glyph-name="dvM_R" horiz-adv-x="522" d="M450 632V478h217V375H450v-56q0-100-52.5-158.5T249 102q-61 0-107.5 23.5t-72.5 66T43 289q0 91 59.5 140T256 478h77v154H-21v108h689V632H450zM333 375h-76q-42 0-68.5-23T162 290q0-37 24-59.5t61-22.5q42 0 64 28t22 77v62zM241-83l425 401V201L383-83H241z"/><glyph glyph-name="dvY_R" horiz-adv-x="436" d="M623 239q-26-53-74-89L305-62H147v7L329 93q-126 7-197.5 81.5T60 375q0 18 4 56h12q84 0 121.5 36T235 578v54H-21v108h669V632H363v-77q0-87-43.5-136.5T188 362q0-76 47.5-118.5T360 201q50 0 88.5 20t60 55 21.5 79h118q1-63-25-116z"/><glyph glyph-name="dvL_R" horiz-adv-x="910" d="M717 632V517q61-23 97.5-80.5T851 295q0-73-29-130t-85.5-89T600 44q-8 0-34 2v113l27-2q59 0 93 37t34 99q0 55-27.5 90T615 418q-53 0-79.5-39.5T509 275v-21H401v21q0 63-26 103t-77 40q-52 0-80-34.5T190 293q0-62 34-99t93-37l27 2V46q-26-2-34-2-79 0-136 32.5t-86 89T59 295q0 76 29 129t79.5 80T280 531q69 0 111.5-35t61.5-90h3q17 46 49.5 78t84.5 43v105H-21v108h951V632H717zm42-814L651-52 543-182H412L565-3h172l155-179H759zm-47-237L586-205h129l130-214H712z"/><glyph glyph-name="dvV_R" horiz-adv-x="372" d="M580 740V632H-21v108h601zM463 512.5q59-33.5 88-87.5t29-116q0-46-17-89t-51-75L332-58H196L326 75h-8q-79 0-137.5 30.5t-90 84.5T59 314q0 67 31.5 120t90.5 82.5T318 546q86 0 145-33.5zm-239-298q38-36.5 97-36.5 43 0 73 19t45 49.5 15 63.5q0 54-34.5 93T321 442q-59 0-97-36t-38-95q0-60 38-96.5z"/><glyph glyph-name="dvSH_R" horiz-adv-x="513" d="M560 300V186L355-9H200v8l264 236-134 69-154-120H29v15l204 158q-67 41-101.5 89.5T97 557q0 55 25.5 98.5t73 68.5T306 749q65 0 113-24t74-66 26-95q0-57-23.5-101T418 373zM303 432l17-8q39 31 60 59.5t21 67.5q0 37-24.5 63.5T310 642q-41 0-66.5-26.5T218 551q0-73 85-119z"/><glyph glyph-name="dvSS_R" horiz-adv-x="385" d="M570 632H200l370-265q0-35-14-69t-40-61L274-21H134l188 186q-120 1-184 73T74 428v204h-95v108h591V632zM231.5 313q32.5-39 99.5-39 49 0 81 22.5t43 56.5L199 540V424q0-72 32.5-111z"/><glyph glyph-name="dvS_R" horiz-adv-x="516" d="M433 556q0-76-35-132h255v-99H192V189q0-39 19.5-63.5T268 101q33 0 51.5 25t18.5 64v13h112q1-9 1-20 0-89-48-140.5T269-9q-95 0-147 57T70 196v215h81q80 0 117 38.5T305 556v76H-21v108h674V632H433v-76zM403-61l250 310V109L527-61H403z"/><glyph glyph-name="dvH_R" horiz-adv-x="586" d="M239 438q-22-14-22-46 0-20 11.5-35t31.5-24q20 4 47 4 85 0 145-41.5T525 191L431 89H316l94 103q-14 20-39 33.5T311 239q-57 0-91-39.5T186 99 220.5.5 312-37q44 0 73 21.5T424 36h113q-6-50-36-89.5t-80-62T306-138q-74 0-128.5 30.5T94-22 65 104q0 63 26.5 113t73.5 81q-36 18-56 48.5T89 417q0 60 43.5 94T250 545h100v87H-21v108h627V632H473V452H296q-35 0-57-14zm125-856L238-204h129l130-214H364z"/><glyph glyph-name="dvLL_R" horiz-adv-x="975" d="M995 740V632H-21v108H995zM883.5 174.5Q851 121 796 93L933-65H800L692 65 584-65H453L586 91q-68 32-97 103h-4q-23-58-75.5-91.5T287 69q-64 0-116 28.5T89 178 59 298q0 69 30 122t82 81.5T286 530q67 0 118-31.5t82-91.5h3q30 60 81 91.5T688 530q63 0 115-28.5t82.5-81.5T916 298q0-70-32.5-123.5zm-492.5 38q33 33.5 33 85.5 0 54-33 88t-86 34-86.5-34-33.5-89q0-53 34-85.5t86-32.5q53 0 86 33.5zm193-.5q33-33 85-33 53 0 86.5 32.5T789 297q0 55-33 89t-86 34-86-34-33-88q0-53 33-86z"/><glyph glyph-name="dvKx_R" horiz-adv-x="781" d="M623 632V460q23 38 62.5 60t92.5 22q62 0 108.5-30t71.5-83 25-119H852q0 53-31.5 87T738 431q-56 0-84.5-38T623 301V0H499v168q-6-9-20-25L306-46H167L297 91q-77 12-124.5 71.5T125 310q0 69 26.5 121.5t75 81.5T339 542q56 0 96-21.5t64-58.5v170H-21v108H983V632H623zM467 222.5q32 37.5 32 86.5 0 50-31.5 86.5T378 432q-53 0-87.5-34T256 309q0-56 34-90t88-34q57 0 89 37.5zm-334.5-112Q153 90 153 60q0-29-20.5-49T82-9Q54-9 33.5 11.5T13 60q0 30 20 50.5T82 131q30 0 50.5-20.5z"/><glyph glyph-name="dvKHx_R" horiz-adv-x="672" d="M323 369q-46-53-123-59v-61q0-64 38.5-103.5T345 106q85 0 127 68-64 56-64 151 0 63 28.5 109t79.5 70.5T632 529q99 0 160.5-55T854 325q0-64-29-110.5t-79.5-71T632 119q-36 0-64 7-12-21-27-39L344-138H206v7L327 0Q209 5 140.5 74T72 264v137h30q67 0 102 32t35 106v93H-21v108h875V632H369V522q0-100-46-153zm229 34.5Q522 374 522 325t30-78.5 80-29.5 79.5 29.5T741 325t-29.5 78.5T632 433t-80-29.5zm-406.5-425Q166-42 166-72q0-29-20.5-49T95-141q-28 0-48.5 20T26-72q0 30 20 50.5T95-1q30 0 50.5-20.5z"/><glyph glyph-name="dvGx_R" horiz-adv-x="521" d="M596 740V632H424V453q0-89-47-144.5T234 253q-93 0-143.5 51T40 446q0 21 1 31h125v-31q0-36 15.5-59t49.5-23q63 0 63 83v185H-21v108h617zM195-20l401 386V233L344-20H195zm-42.5 168.5Q173 128 173 98q0-29-20.5-49T102 29q-28 0-48.5 20.5T33 98q0 30 20 50.5t49 20.5q30 0 50.5-20.5z"/><glyph glyph-name="dvJx_R" horiz-adv-x="548" d="M701 740V632H-21v108h722zm0-483L428-43H286l414 429H484q-3-92-58-148.5T276 181q-103 0-159.5 59.5T60 397v99h131v-96q0-49 22.5-77t62.5-28q41 0 64.5 28t23.5 77v96h337V257zM196.5 87.5Q217 67 217 37q0-29-20.5-49T146-32q-28 0-48.5 20.5T77 37q0 30 20 50.5t49 20.5q30 0 50.5-20.5z"/><glyph glyph-name="dvPHx_R" horiz-adv-x="789" d="M636 632V461q24 38 64.5 59.5T797 542q97 0 150.5-64t53.5-168H870q0 55-29 88t-84 33q-60 0-90.5-41T636 287V0H506v242l-13-14L286-21H146l182 203q-87 10-133 74.5T149 422v210H-21v108h1022V632H636zm-130 0H278V422q0-65 28.5-102t85.5-37q55 0 84.5 35.5T506 408v224zM138.5 180.5Q159 160 159 130q0-29-20.5-49T88 61q-28 0-48.5 20.5T19 130q0 30 20 50.5T88 201q30 0 50.5-20.5z"/><glyph glyph-name="dvK_KA" horiz-adv-x="1695" d="M1275 632V459q22 38 61.5 60.5T1430 542q62 0 108.5-30t71.5-82 25-117q0-71-26.5-122.5T1535 112t-107-27q-35 0-66 7v102q12-4 31-4 49 0 80 32t31 88q0 53-32 87t-82 34q-56 0-85.5-38t-29.5-92V0h-124v162q-23-40-65-62.5T986 77q-63 0-110 29t-73 82-26 122v15q-4 48-33.5 77T668 431q-56 0-83.5-37.5T557 301V0H433v162q-23-40-65-62.5T268 77q-63 0-110 29t-73 82-26 122 26.5 121.5 75 81.5T273 542q56 0 96-21.5t64-59.5v171H-21v108h1735V632h-439zM845 488q57 54 146 54 56 0 96-21.5t64-59.5v171H557V461q21 38 59.5 59.5T708 542q83 0 137-54zM377.5 203q27.5 18 41.5 46.5t14 59.5q0 50-31.5 86.5T312 432q-52 0-87-34t-35-89q0-56 34-90t87-34q39 0 66.5 18zm718 0q27.5 18 41.5 46.5t14 59.5q0 50-31.5 86.5T1030 432q-48 0-82.5-29.5T909 324v-14h-1v-1q0-56 34-90t87-34q39 0 66.5 18z"/><glyph glyph-name="dvKx_KxA" horiz-adv-x="1695" d="M1275 632V459q22 38 61.5 60.5T1430 542q62 0 108.5-30t71.5-82 25-117q0-71-26.5-122.5T1535 112t-107-27q-35 0-66 7v102q12-4 31-4 49 0 80 32t31 88q0 53-32 87t-82 34q-56 0-85.5-38t-29.5-92V0h-124v162q-23-40-65-62.5T986 77q-63 0-110 29t-73 82-26 122v15q-4 48-33.5 77T668 431q-56 0-83.5-37.5T557 301V0H433v162q-23-40-65-62.5T268 77q-63 0-110 29t-73 82-26 122 26.5 121.5 75 81.5T273 542q56 0 96-21.5t64-59.5v171H-21v108h1735V632h-439zM839 482q58 60 152 60 56 0 96-21.5t64-59.5v171H557V461q21 38 59.5 59.5T708 542q82 0 131-60zM377.5 203q27.5 18 41.5 46.5t14 59.5q0 50-31.5 86.5T312 432q-52 0-87-34t-35-89q0-56 34-90t87-34q39 0 66.5 18zm718 0q27.5 18 41.5 46.5t14 59.5q0 50-31.5 86.5T1030 432q-52 0-87-34t-35-89q0-56 34-90t87-34q39 0 66.5 18zM305-12q23-23 23-56 0-32-23-54.5T249-145q-32 0-55 22.5T171-68q0 33 23 56t55 23q33 0 56-23zm719 0q23-23 23-56 0-32-23-54.5T968-145q-32 0-55 22.5T890-68q0 33 23 56t55 23q33 0 56-23z"/><glyph glyph-name="dvK_KHA" horiz-adv-x="1655" d="M1676 632h-111V0h-128v181q-45-60-131-60-12 0-32 2-35-58-92-93T1047-5Q923-5 850.5 63.5T778 251v59q0 54-30 87.5T668 431q-56 0-83.5-37.5T557 301V0H433v162q-23-40-65-62.5T268 77q-63 0-110 29t-73 82-26 122 26.5 121.5 75 81.5T273 542q56 0 96-21.5t64-59.5v171H-21v108h1697V632zM816.5 503q43.5-32 63.5-89 64 30 64 125v93H557V457q21 36 59.5 57t91.5 21q65 0 108.5-32zM1175 170q-30 28-46.5 68.5T1112 328q0 59 25 105.5t69.5 72.5 99.5 26q87 0 131-61v161h-364V522q0-100-45.5-153T906 310v-61q0-64 38-103.5t106-39.5q84 0 125 64zm235 82q27 32 27 75t-26.5 74.5T1334 433q-45 0-75.5-28.5T1228 328q0-51 30-79.5t76-28.5q49 0 76 32zM377.5 203q27.5 18 41.5 46.5t14 59.5q0 50-31.5 86.5T312 432q-52 0-87-34t-35-89q0-56 34-90t87-34q39 0 66.5 18z"/><glyph glyph-name="dvK_CA" horiz-adv-x="1349" d="M1370 632h-111V0h-129v176q-29-41-76-64T949 89q-91 0-149.5 48.5T741 275q0 48 20 86t57 61H685q-65 0-96.5-36T557 295V0H433v162q-23-40-65-62.5T268 77q-63 0-110 29t-73 82-26 122 26.5 121.5 75 81.5T273 542q56 0 96-21.5t64-59.5v171H-21v108h1391V632zm-240 0H557V447q48 77 167 77h297V422h-40q-53 0-85.5-31T863 308q0-53 35-82.5t88-29.5q66 1 105 47t39 118v271zM377.5 203q27.5 18 41.5 46.5t14 59.5q0 50-31.5 86.5T312 432q-52 0-87-34t-35-89q0-56 34-90t87-34q39 0 66.5 18z"/><glyph glyph-name="dvK_JA" horiz-adv-x="1567" d="M1588 632h-111V0h-129v382h-143v-55q0-63-26-111.5t-74.5-76T991 112q-68 0-116 26t-72.5 70-24.5 98v8q0 53-30 85t-80 32q-56 0-83.5-37.5T557 301V0H433v162q-23-40-65-62.5T268 77q-63 0-110 29t-73 82-26 122 26.5 121.5 75 81.5T273 542q56 0 96-21.5t64-59.5v171H-21v108h1609V632zm-240 0H557V461q21 38 59.5 59.5T708 542q61 0 106-27t68.5-73T906 342v-12q0-48 22.5-76.5T991 225q41 0 64 28.5t23 76.5v162h270v140zM377.5 203q27.5 18 41.5 46.5t14 59.5q0 50-31.5 86.5T312 432q-52 0-87-34t-35-89q0-56 34-90t87-34q39 0 66.5 18z"/><glyph glyph-name="dvK_TTA" horiz-adv-x="1364" d="M953 393.5Q906 355 906 283q0-63 41.5-103t107.5-40q68 0 109.5 42t41.5 108h123q0-78-33.5-137.5t-95-92T1057 28q-81 0-145 32t-100 90-36 133q0 11 2 35-2 51-32 82t-78 31q-56 0-83.5-37.5T557 301V0H433v162q-23-40-65-62.5T268 77q-63 0-110 29t-73 82-26 122 26.5 121.5 75 81.5T273 542q56 0 96-21.5t64-59.5v171H-21v108h1406V632h-188V432h-123q-74 0-121-38.5zM1066 541h5v91H557V461q21 38 59.5 59.5T708 542q94 0 147-69 79 68 211 68zM377.5 203q27.5 18 41.5 46.5t14 59.5q0 50-31.5 86.5T312 432q-52 0-87-34t-35-89q0-56 34-90t87-34q39 0 66.5 18z"/><glyph glyph-name="dvK_NNA" horiz-adv-x="1567" d="M1587 632h-111V0h-129v632h-157V372q0-95-54.5-154T980 159q-96 0-150 55.5T771 358q-11 33-38 53t-65 20q-56 0-83.5-37.5T557 301V0H433v162q-23-40-65-62.5T268 77q-63 0-110 29t-73 82-26 122 26.5 121.5 75 81.5T273 542q56 0 96-21.5t64-59.5v171H-21v108h1608V632zM771 518v114H557V455q21 35 58.5 55t89.5 20q36 0 66-12zm292 114H897V360q0-41 22.5-66.5T981 268t60.5 25 21.5 67v272zM377.5 203q27.5 18 41.5 46.5t14 59.5q0 50-31.5 86.5T312 432q-52 0-87-34t-35-89q0-56 34-90t87-34q39 0 66.5 18z"/><glyph glyph-name="dvK_TA" horiz-adv-x="1090" d="M657 632V409q24 38 65.5 60.5T821 492q63 0 111-30t74-82.5 26-118.5q0-72-27.5-125t-77-81T815 27q-38 0-70 7v102q18-4 37-4 53 0 85.5 34t32.5 92q0 54-33 89t-83 35q-63 0-95-37.5T657 254V0H532v375H414q-75 0-118-35t-43-101q0-64 38.5-100T403 103h18V2h-39q-74 0-132.5 26.5t-92 77.5T124 228q0 94 58 149H39v108h493v147H-21v108h1132V632H657z"/><glyph glyph-name="dvKx_TA" horiz-adv-x="1403" d="M1423 632h-110V0h-130v383h-133q-74 0-117-36t-43-103q0-66 38-103.5t111-37.5h20V2h-40Q903 2 831 64t-72 183q0 29 4 52 1 64-26.5 97T664 429q-54 0-80.5-36.5T557 301V0H433v162q-23-40-65-62.5T268 77q-63 0-110 29t-73 82-26 122 26.5 121.5 75 81.5T273 542q56 0 96-21.5t64-59.5v171H-21v108h1444V632zm-240 0H557V459q44 74 144 74 53 0 93-22.5t62-64.5q73 48 188 48h139v138zM377.5 203q27.5 18 41.5 46.5t14 59.5q0 50-31.5 86.5T312 432q-52 0-87-34t-35-89q0-56 34-90t87-34q39 0 66.5 18zM305-12q23-23 23-56 0-32-23-54.5T249-145q-32 0-55 22.5T171-68q0 33 23 56t55 23q33 0 56-23z"/><glyph glyph-name="dvK_T_YA" horiz-adv-x="1833" d="M1854 632h-111V0h-128v180q-30-41-81.5-64T1413 93q-119 0-189 64.5T1145 335q-24 61-113 61-67 0-103-36t-36-104q0-66 38-103t111-37h20V14h-40q-116 0-188 62t-72 184q0 13 1 19h-1q4 74-23 112t-75 38q-54 0-80.5-36.5T557 301V0H433v162q-23-40-65-62.5T268 77q-63 0-110 29t-73 82-26 122 26.5 121.5 75 81.5T273 542q56 0 96-21.5t64-59.5v171H-21v108h1875V632zm-638-196q54 11 79 46t25 96v54H557V463q42 70 132 70 49 0 86-23.5t56-68.5q69 65 194 65 128 0 191-70zm399 196h-168v-77q0-86-46-138t-129-60v-3q0-69 44.5-111t123.5-42q78 0 126.5 48t48.5 123v260zM377.5 203q27.5 18 41.5 46.5t14 59.5q0 50-31.5 86.5T312 432q-52 0-87-34t-35-89q0-56 34-90t87-34q39 0 66.5 18z"/><glyph glyph-name="dvK_T_RA" horiz-adv-x="1426" d="M1446 632h-111V0h-124v215L993 0H825v6l377 341q-21 33-58 53.5t-82 20.5q-66 0-108.5-39T911 273H782v9q-1 73-32 111t-81 38q-55 0-83.5-38T557 301V0H433v162q-23-40-65-62.5T268 77q-63 0-110 29t-73 82-26 122 26.5 121.5 75 81.5T273 542q56 0 96-21.5t64-59.5v171H-21v108h1467V632zm-238 0H557V460q22 38 59.5 60t89.5 22q47 0 84.5-21t62.5-61q68 63 176 63 59 0 104-22t75-57v188zM377.5 203q27.5 18 41.5 46.5t14 59.5q0 50-31.5 86.5T312 432q-52 0-87-34t-35-89q0-56 34-90t87-34q39 0 66.5 18z"/><glyph glyph-name="dvK_T_VA" horiz-adv-x="1759" d="M1779 632h-110V0h-126v158q-26-39-69.5-61T1374 75q-68 0-119.5 30.5t-79 84.5-27.5 124q0 34 8 69h-103q-74 0-117-36t-43-103q0-66 38-103.5t111-37.5h20V2h-40Q906 2 834 64t-72 183v14q4 84-21.5 126T664 429q-54 0-80.5-36.5T557 301V0H433v162q-23-40-65-62.5T268 77q-63 0-110 29t-73 82-26 122 26.5 121.5 75 81.5T273 542q56 0 96-21.5t64-59.5v171H-21v108h1800V632zm-555-138q60 52 150 52 57 0 100-22t69-61v169H557V461q20 34 55 53t83 19q49 0 85-27.5t54-79.5q38 34 92.5 51t120.5 17h177zm257.5-297q30.5 19 46 49t15.5 63v1q0 54-35.5 93t-99.5 39q-58 0-95.5-36t-37.5-95q0-60 37.5-96.5T1408 178q43 0 73.5 19zm-1104 6q27.5 18 41.5 46.5t14 59.5q0 50-31.5 86.5T312 432q-52 0-87-34t-35-89q0-56 34-90t87-34q39 0 66.5 18z"/><glyph glyph-name="dvK_THA" horiz-adv-x="1492" d="M1513 740V630h-110V0h-130v204q-24-48-81.5-81.5T1052 89q-123 0-198 70.5T773 352q-9 36-37.5 57.5T668 431q-56 0-83.5-37.5T557 301V0H433v162q-23-40-65-62.5T268 77q-63 0-110 29t-73 82-26 122 26.5 121.5 75 81.5T273 542q56 0 96-21.5t64-59.5v171H-21v108h943q29 9 62 9 59 0 104-24.5t70-69.5 25-103q0-100-69.5-156T918 340h-21q4-64 47.5-104t126.5-40q56 0 102 24t73 71 27 112v337h240zM809.5 508q42.5-27 63.5-75 86 1 137 28.5t51 94.5q0 36-21 59.5T983 639q-16 0-34-6v-1H557V457q21 36 59.5 57t91.5 21q59 0 101.5-27zm-432-305q27.5 18 41.5 46.5t14 59.5q0 50-31.5 86.5T312 432q-52 0-87-34t-35-89q0-56 34-90t87-34q39 0 66.5 18z"/><glyph glyph-name="dvK_DA" horiz-adv-x="1328" d="M950.5 396Q910 362 910 301q0-55 32.5-87.5T1030 181q45 0 77.5 28t32.5 80h120V-27h-127v165q-21-29-57-44.5T994 78q-61 0-110 26t-77.5 77T778 305v5q0 54-30 87.5T668 431q-56 0-83.5-37.5T557 301V0H433v162q-23-40-65-62.5T268 77q-63 0-110 29t-73 82-26 122 26.5 121.5 75 81.5T273 542q56 0 96-21.5t64-59.5v171H-21v108h1370V632h-125V430h-167q-66 0-106.5-34zm-13 129.5Q987 541 1044 541h50v91H557V461q21 38 59.5 59.5T708 542q89 0 145-62 35 30 84.5 45.5zM377.5 203q27.5 18 41.5 46.5t14 59.5q0 50-31.5 86.5T312 432q-52 0-87-34t-35-89q0-56 34-90t87-34q39 0 66.5 18z"/><glyph glyph-name="dvK_NA" horiz-adv-x="1532" d="M1552 632h-111V0h-129v391h-151q35-48 35-115 0-59-27-102t-73.5-65T992 87q-60 0-109 25t-78 71.5T776 293q0 11 2 29-4 49-33.5 79T668 431q-56 0-83.5-37.5T557 301V0H433v162q-23-40-65-62.5T268 77q-63 0-110 29t-73 82-26 122 26.5 121.5 75 81.5T273 542q56 0 96-21.5t64-59.5v171H-21v108h1573V632zm-240 0H557V461q21 38 59.5 59.5T708 542q105 0 151-82 59 39 144 39h309v133zM377.5 203q27.5 18 41.5 46.5t14 59.5q0 50-31.5 86.5T312 432q-52 0-87-34t-35-89q0-56 34-90t87-34q39 0 66.5 18zm687.5 20.5q28 27.5 28 70.5 0 42-28 69.5T994 391q-45 0-73.5-27.5T892 293t28.5-70 73.5-27q43 0 71 27.5z"/><glyph glyph-name="dvK_PA" horiz-adv-x="1345" d="M1366 632h-111V0h-128v241q-53-67-156-67-90 0-144 50t-70 136q-11 33-35.5 52T664 431q-54 0-80.5-37.5T557 301V0H433v162q-23-40-65-62.5T268 77q-63 0-110 29t-73 82-26 122 26.5 121.5 75 81.5T273 542q56 0 96-21.5t64-59.5v171H-21v108h1387V632zM751 530v102H557V460q21 35 58 55t88 20q23 0 48-5zm376 102H881V428q0-68 30.5-106.5T1004 283q58 0 90.5 37.5T1127 414v218zM377.5 203q27.5 18 41.5 46.5t14 59.5q0 50-31.5 86.5T312 432q-52 0-87-34t-35-89q0-56 34-90t87-34q39 0 66.5 18z"/><glyph glyph-name="dvK_P_RA" horiz-adv-x="1345" d="M1366 632h-111V0h-128v246l-11-13L896-21H756l188 202q-78 7-126 55.5T756 363q-11 32-35 50t-57 18q-54 0-80.5-37.5T557 301V0H433v162q-23-40-65-62.5T268 77q-63 0-110 29t-73 82-26 122 26.5 121.5 75 81.5T273 542q56 0 96-21.5t64-59.5v171H-21v108h1387V632zM751 530v102H557V460q21 35 58 55t88 20q23 0 48-5zm376 102H881V428q0-68 30.5-106.5T1004 283q58 0 90.5 37.5T1127 414v218zM377.5 203q27.5 18 41.5 46.5t14 59.5q0 50-31.5 86.5T312 432q-52 0-87-34t-35-89q0-56 34-90t87-34q39 0 66.5 18z"/><glyph glyph-name="dvK_PHA" horiz-adv-x="1675" d="M1251 632V460q24 38 65 60t97 22q61 0 107-29.5t71.5-80.5 25.5-115q0-72-26.5-124.5t-74-80T1409 85q-38 0-70 9v100q18-5 37-5 49 0 79.5 33t30.5 88q0 53-32 87t-82 34q-60 0-90.5-41T1251 287V0h-129v239q-49-65-146-65-88 0-141 51t-67 138q-11 32-37.5 50T668 431q-56 0-83.5-37.5T557 301V0H433v162q-23-40-65-62.5T268 77q-63 0-110 29t-73 82-26 122 26.5 121.5 75 81.5T273 542q56 0 96-21.5t64-59.5v171H-21v108h1717V632h-445zM764 528v104H557V459q21 36 59 56t92 20q32 0 56-7zm358 104H894V422q0-65 28.5-102t85.5-37q54 0 84 35.5t30 89.5v224zM377.5 203q27.5 18 41.5 46.5t14 59.5q0 50-31.5 86.5T312 432q-52 0-87-34t-35-89q0-56 34-90t87-34q39 0 66.5 18z"/><glyph glyph-name="dvKx_PHA" horiz-adv-x="1675" d="M1251 632V460q24 38 65 60t97 22q61 0 107-29.5t71.5-80.5 25.5-115q0-72-26.5-124.5t-74-80T1409 85q-38 0-70 9v100q18-5 37-5 49 0 79.5 33t30.5 88q0 53-32 87t-82 34q-60 0-90.5-41T1251 287V0h-129v239q-49-65-146-65-88 0-141 51t-67 138q-11 32-37.5 50T668 431q-56 0-83.5-37.5T557 301V0H433v162q-23-40-65-62.5T268 77q-63 0-110 29t-73 82-26 122 26.5 121.5 75 81.5T273 542q56 0 96-21.5t64-59.5v171H-21v108h1717V632h-445zM764 528v104H557V459q21 36 59 56t92 20q32 0 56-7zm358 104H894V422q0-65 28.5-102t85.5-37q54 0 84 35.5t30 89.5v224zM377.5 203q27.5 18 41.5 46.5t14 59.5q0 50-31.5 86.5T312 432q-52 0-87-34t-35-89q0-56 34-90t87-34q39 0 66.5 18zM305-122.5Q282-145 249-145q-32 0-55 22.5T171-68q0 33 23 56t55 23q33 0 56-23t23-56q0-32-23-54.5z"/><glyph glyph-name="dvKx_PHxA" horiz-adv-x="1676" d="M1252 632V460q24 38 65 60t97 22q61 0 107-29.5t71.5-80.5 25.5-115q0-72-26.5-124.5t-74-80T1410 85q-38 0-70 9v100q18-5 37-5 49 0 79.5 33t30.5 88q0 53-32 87t-82 34q-60 0-90.5-41T1252 287V0h-129v239q-49-65-146-65-86 0-139 49.5T770 358q-11 33-38 53t-64 20q-56 0-83.5-37.5T557 301V0H433v162q-23-40-65-62.5T268 77q-63 0-110 29t-73 82-26 122 26.5 121.5 75 81.5T273 542q56 0 96-21.5t64-59.5v171H-21v108h1718V632h-445zM765 528v104H557V459q21 36 59 56t92 20q26 0 57-7zm358 104H895V422q0-65 28.5-102t85.5-37q54 0 84 35.5t30 89.5v224zM377.5 203q27.5 18 41.5 46.5t14 59.5q0 50-31.5 86.5T312 432q-52 0-87-34t-35-89q0-56 34-90t87-34q39 0 66.5 18zM986 90q23-23 23-56 0-32-23-54.5T930-43q-32 0-55 22.5T852 34q0 33 23 56t55 23q33 0 56-23zM305-12q23-23 23-56 0-32-23-54.5T249-145q-32 0-55 22.5T171-68q0 33 23 56t55 23q33 0 56-23z"/><glyph glyph-name="dvKx_BA" horiz-adv-x="1406" d="M1427 632h-110V0h-125v151q-25-37-69-58.5T1021 71q-69 0-124.5 30.5t-87.5 86T777 314v12q-5 47-34 76t-75 29q-56 0-83.5-37.5T557 301V0H433v162q-23-40-65-62.5T268 77q-63 0-110 29t-73 82-26 122 26.5 121.5 75 81.5T273 542q56 0 96-21.5t64-59.5v171H-21v108h1448V632zM840 480q33 35 79 53.5t100 18.5q57 0 100.5-21t72.5-57v158H557V461q21 38 59.5 59.5T708 542q84 0 132-62zm359-165q0 40-18 75t-52.5 56-82.5 21q-59 0-101-34l237-191q17 36 17 73zM377.5 203q27.5 18 41.5 46.5t14 59.5q0 50-31.5 86.5T312 432q-52 0-87-34t-35-89q0-56 34-90t87-34q39 0 66.5 18zM911 234q21-34 57-52t78-18q60 0 102 35L909 390q-19-35-19-76 0-46 21-80zM305-12q23-23 23-56 0-32-23-54.5T249-145q-32 0-55 22.5T171-68q0 33 23 56t55 23q33 0 56-23z"/><glyph glyph-name="dvK_MA" horiz-adv-x="1549" d="M1569 632h-111V0h-130v355h-149v-59q0-104-52.5-162T976 76q-93 0-149.5 53T770 269q0 27 7 57-5 48-34 76.5T668 431q-56 0-83.5-37.5T557 301V0H433v162q-23-40-65-62.5T268 77q-63 0-110 29t-73 82-26 122 26.5 121.5 75 81.5T273 542q56 0 96-21.5t64-59.5v171H-21v108h1590V632zM807.5 509q41.5-26 63.5-72 49 23 112 23h76v172H557V458q21 36 59.5 56.5T708 535q58 0 99.5-26zM1328 632h-149V460h149v172zM377.5 203q27.5 18 41.5 46.5t14 59.5q0 50-31.5 86.5T312 432q-52 0-87-34t-35-89q0-56 34-90t87-34q39 0 66.5 18zM1059 355h-72q-44 0-70.5-22.5T890 270q0-39 23.5-62t60.5-23q40 0 62.5 28t22.5 76v66z"/><glyph glyph-name="dvKx_MA" horiz-adv-x="1540" d="M1569 632h-111V0h-130v355h-149v-59q0-104-52.5-162T976 76q-93 0-149.5 53T770 269q0 27 7 57-5 48-34 76.5T668 431q-56 0-83.5-37.5T557 301V0H433v162q-23-40-65-62.5T268 77q-63 0-110 29t-73 82-26 122 26.5 121.5 75 81.5T273 542q56 0 96-21.5t64-59.5v171H-21v108h1590V632zM807.5 509q41.5-26 63.5-72 49 23 112 23h76v172H557V458q21 36 59.5 56.5T708 535q58 0 99.5-26zM1328 632h-149V460h149v172zM377.5 203q27.5 18 41.5 46.5t14 59.5q0 50-31.5 86.5T312 432q-52 0-87-34t-35-89q0-56 34-90t87-34q39 0 66.5 18zM1059 355h-72q-44 0-70.5-22.5T890 270q0-39 23.5-62t60.5-23q40 0 62.5 28t22.5 76v66zM305-12q23-23 23-56 0-32-23-54.5T249-145q-32 0-55 22.5T171-68q0 33 23 56t55 23q33 0 56-23z"/><glyph glyph-name="dvK_YA" horiz-adv-x="1459" d="M1480 632h-111V0h-129v179q-31-40-82-63t-120-23q-81 0-140.5 32.5t-92 90.5T770 351q-8 34-33 57t-67 23q-56 0-84.5-37.5T557 301V0H433v162q-23-40-65-62.5T268 77q-63 0-110 29t-73 82-26 122 26.5 121.5 75 81.5T273 542q56 0 96-21.5t64-59.5v171H-21v108h1501V632zM808.5 508q40.5-27 61.5-73 39 16 57.5 49t18.5 85v63H557V455q22 38 61 59t93 21q57 0 97.5-27zM1240 632h-167v-86q0-178-175-192 0-67 45-110t123-43 126 48 48 123v260zM377.5 203q27.5 18 41.5 46.5t14 59.5q0 50-31.5 86.5T312 432q-52 0-87-34t-35-89q0-56 34-90t87-34q39 0 66.5 18z"/><glyph glyph-name="dvK_LA" horiz-adv-x="1628" d="M1434 632V517q61-23 97.5-80.5T1568 295q0-73-29-130t-85.5-89T1317 44q-8 0-34 2v113l27-2q59 0 93 37t34 99q0 55-27.5 90t-77.5 35q-53 0-79.5-39.5T1226 275v-21h-108v21q0 63-26 103t-77 40q-52 0-80-34.5T907 293q0-62 34-99t93-37l27 2V46q-26-2-34-2-79 0-136 32.5t-86 89T776 295q0 21 1 30-4 48-33.5 77T668 431q-56 0-83.5-37.5T557 301V0H433v162q-23-40-65-62.5T268 77q-63 0-110 29t-73 82-26 122 26.5 121.5 75 81.5T273 542q56 0 96-21.5t64-59.5v171H-21v108h1668V632h-213zm-211.5-148q32.5 32 84.5 43v105H557V458q21 36 59.5 56.5T708 535q84 0 133-63 30 29 70 44t86 15q69 0 111.5-35t61.5-90h3q17 46 49.5 78zm-845-281q27.5 18 41.5 46.5t14 59.5q0 50-31.5 86.5T312 432q-52 0-87-34t-35-89q0-56 34-90t87-34q39 0 66.5 18z"/><glyph glyph-name="dvK_VA" horiz-adv-x="1388" d="M1408 632h-110V0h-126v158q-26-39-69.5-61T1003 75q-68 0-119.5 30.5t-79 84.5T777 314v12q-5 47-34 76t-75 29q-56 0-83.5-37.5T557 301V0H433v162q-23-40-65-62.5T268 77q-63 0-110 29t-73 82-26 122 26.5 121.5 75 81.5T273 542q56 0 96-21.5t64-59.5v171H-21v108h1429V632zM837 479q31 32 73 49.5t93 17.5q57 0 100-22t69-61v169H557V458q21 36 59 56.5t91 20.5q80 0 130-56zm273.5-282q30.5 19 46 49t15.5 63v1q0 54-35.5 93t-99.5 39q-58 0-95.5-36T904 311q0-60 37.5-96.5T1037 178q43 0 73.5 19zm-733 6q27.5 18 41.5 46.5t14 59.5q0 50-31.5 86.5T312 432q-52 0-87-34t-35-89q0-56 34-90t87-34q39 0 66.5 18z"/><glyph glyph-name="dvK_V_YA" horiz-adv-x="1857" d="M1877 632h-110V0h-130v178q-31-40-82-62.5T1436 93q-67 0-119 21t-86 60q-29-46-78-72.5T1036 75q-79 0-137.5 30.5t-90 84.5T777 314v12q-5 47-34 76t-75 29q-56 0-83.5-37.5T557 301V0H433v162q-23-40-65-62.5T268 77q-63 0-110 29t-73 82-26 122 26.5 121.5 75 81.5T273 542q56 0 96-21.5t64-59.5v171H-21v108h1898V632zM840 476q34 34 82.5 52t108.5 18q78 0 132-33t81-89q51 12 75 46.5t24 94.5v67H557V458q21 36 59 56.5t91 20.5q84 0 133-59zm797 156h-166v-90q0-88-43.5-140.5T1295 339q2-63 46.5-100.5T1463 201q78 0 126 47.5t48 123.5v260zm-500.5-415q34.5 39 33.5 95v10l-2 21q-7 42-41 70.5t-88 28.5q-59 0-97-36t-38-95q0-60 38-96.5t97-36.5q63 0 97.5 39zm-759-14q27.5 18 41.5 46.5t14 59.5q0 50-31.5 86.5T312 432q-52 0-87-34t-35-89q0-56 34-90t87-34q39 0 66.5 18z"/><glyph glyph-name="dvK_SHA" horiz-adv-x="1542" d="M907 299v-85q0-49 24-79.5t73-30.5q42 0 66 27.5t24 73.5v14h126v-16q0-99-57-155T1007-8Q899-8 838.5 54.5T778 223v87q0 54-30 87.5T668 431q-56 0-83.5-37.5T557 301V0H433v162q-23-40-65-62.5T268 77q-63 0-110 29t-73 82-26 122 26.5 121.5 75 81.5T273 542q56 0 96-21.5t64-59.5v171H-21v108h962q30 9 69 9 100 0 160-57.5t60-161.5q0-113-74-172t-190-59h-59zm656 441V632h-111V0h-131v740h242zM818.5 501q44.5-34 63.5-93h37q79 0 130 31.5t51 98.5q0 45-25 72t-68 27q-19 0-34-5H557V457q21 36 59.5 57t91.5 21q66 0 110.5-34zm-441-298q27.5 18 41.5 46.5t14 59.5q0 50-31.5 86.5T312 432q-52 0-87-34t-35-89q0-56 34-90t87-34q39 0 66.5 18z"/><glyph glyph-name="dvK_SS_MA" horiz-adv-x="1372" d="M1393 632h-111V-1h-129v345h-150v-59q0-104-52.5-162T800 65q-93 0-149.5 53T594 259q0 57 24 97H322q-43-20-68.5-35.5t-41.5-38-16-54.5q0-38 26-64t67-26q45 0 71.5 30t26.5 71h107V-60H376V95q-17-26-51-45t-81-19q-80 0-130.5 47T63 201q0 71 41 114t114 80q-56 17-92 59T90 561q0 56 28 99t76.5 66.5T303 750q85 0 141.5-46T501 576q0-73-55-126h436v182H594v107h799V632zM239 480.5q33-27.5 88-29.5 32 20 49.5 44t17.5 56q0 38-26.5 63T299 639q-39 0-66-23.5T206 552q0-44 33-71.5zM1153 632h-150V450h150v182zM882 344h-71q-44 0-70.5-22.5T714 259q0-39 23.5-61.5T798 175q41 0 62.5 27.5T882 279v65z"/><glyph glyph-name="dvK_SS_M_YA" horiz-adv-x="1825" d="M1846 632h-111V0h-129v170q-31-40-82-63t-120-23q-120 0-189.5 68T1137 338h-136v-58q0-105-52-162.5T799 60q-61 0-108 24t-73 68-26 101q0 59 27 103H322q-43-20-68.5-35.5t-41.5-38-16-54.5q0-38 26-64t67-26q45 0 71.5 30t26.5 71h107V-60H376V95q-17-26-51-45t-81-19q-80 0-130.5 47T63 201q0 71 41 114t114 80q-56 17-92 59T90 561q0 56 28 99t76.5 66.5T303 750q85 0 141.5-46T501 576q0-78-61-132h441v188H592v108h1254V632zM239 480.5q33-27.5 88-29.5 32 20 49.5 44t17.5 56q0 38-26.5 63T299 639q-39 0-66-23.5T206 552q0-44 33-71.5zm762-36.5h179q131 0 131 121v67h-310V444zm605 188h-168v-87q0-83-46-133.5T1264 353q0-73 44.5-117t123.5-44q78 0 126 48t48 123v269zM881 338h-71q-44 0-70.5-22.5T713 254q0-40 23.5-62.5T797 169q40 0 62 28t22 76v65z"/><glyph glyph-name="dvK_SS_YA" horiz-adv-x="1284" d="M1305 632h-111V0h-129v178q-31-40-80-62.5T870 93q-83 0-144.5 32.5T630 217t-35 139H322q-43-20-68.5-35.5t-41.5-38-16-54.5q0-38 26-64t67-26q45 0 71.5 30t26.5 71h107V-60H376V95q-17-26-51-45t-81-19q-80 0-130.5 47T63 201q0 71 41 114t114 80q-56 17-92 59T90 561q0 56 28 99t76.5 66.5T303 750q85 0 141.5-46T501 576q0-78-61-132h188q66 0 104 29.5t38 91.5v67H593v108h712V632zM239 480.5q33-27.5 88-29.5 32 20 49.5 44t17.5 56q0 38-26.5 63T299 639q-39 0-66-23.5T206 552q0-44 33-71.5zM1065 632H898v-67q0-87-43.5-140.5T723 359q1-71 45.5-114.5T891 201t126 47.5 48 123.5v260z"/><glyph glyph-name="dvK_SS_VA" horiz-adv-x="1208" d="M1229 740V632h-110V0H992v158q-26-40-69-61.5T824 75q-68 0-119 30.5T626 190t-28 124q0 21 3 42H322q-43-20-68.5-35.5t-41.5-38-16-54.5q0-38 26-64t67-26q45 0 71.5 30t26.5 71h107V-60H376V95q-17-26-51-45t-81-19q-80 0-130.5 47T63 201q0 71 41 114t114 80q-56 17-92 59T90 561q0 56 28 99t76.5 66.5T303 750q85 0 141.5-46T501 576q0-73-55-126h189q30 45 78.5 70.5T824 546q56 0 99-21.5t69-59.5v167H590v108h639zM239 480.5q33-27.5 88-29.5 32 20 49.5 44t17.5 56q0 38-26.5 63T299 639q-39 0-66-23.5T206 552q0-44 33-71.5zM932 197q30 19 45 49t15 63v1q0 54-34.5 93T859 442q-58 0-95.5-36T726 311q0-60 37-96.5t96-36.5q43 0 73 19z"/><glyph glyph-name="dvK_SA" horiz-adv-x="1532" d="M1553 632h-112V0h-128v319H905V203q0-46 21-74t63-28q39 0 61 26t22 67v13h124q1-8 1-19 0-91-55-144T991-9Q889-9 833 51.5T777 209v126q-5 42-34.5 69T668 431q-56 0-83.5-37.5T557 301V0H433v162q-23-40-65-62.5T268 77q-63 0-110 29t-73 82-26 122 26.5 121.5 75 81.5T273 542q56 0 96-21.5t64-59.5v171H-21v108h1574V632zM979.5 454.5Q1012 492 1012 556v76H557V453q21 36 59.5 56.5T708 530q63 0 106.5-32t63.5-86q69 5 101.5 42.5zM1313 632h-173v-76q0-76-35-132h208v208zM377.5 203q27.5 18 41.5 46.5t14 59.5q0 50-31.5 86.5T312 432q-52 0-87-34t-35-89q0-56 34-90t87-34q39 0 66.5 18z"/><glyph glyph-name="dvK_S_TTA" horiz-adv-x="1878" d="M1466 393.5q-47-38.5-47-110.5 0-63 41.5-103t107.5-40q68 0 109.5 42t41.5 108h123q0-78-33.5-137.5t-95-92T1570 28q-81 0-145 32t-100 90-36 133q0 12 2 36H905V203q0-46 21-74t63-28q39 0 61 26t22 67v13h124q1-8 1-19 0-91-55-144T991-9Q889-9 833 51.5T777 209v126q-5 42-34.5 69T668 431q-56 0-83.5-37.5T557 301V0H433v162q-23-40-65-62.5T268 77q-63 0-110 29t-73 82-26 122 26.5 121.5 75 81.5T273 542q56 0 96-21.5t64-59.5v171H-21v108h1919V632h-188V432h-123q-74 0-121-38.5zm-486.5 61Q1012 492 1012 556v76H557V453q21 36 59.5 56.5T708 530q63 0 106.5-32t63.5-86q69 5 101.5 42.5zm447.5 56q65 30.5 152 30.5h5v91h-444v-76q0-76-35-132h222q35 56 100 86.5zM377.5 203q27.5 18 41.5 46.5t14 59.5q0 50-31.5 86.5T312 432q-52 0-87-34t-35-89q0-56 34-90t87-34q39 0 66.5 18z"/><glyph glyph-name="dvK_S_DDA" horiz-adv-x="1812" d="M1471 435.5q-25-13.5-25-46.5 0-31 22-45.5t56-14.5h45q86 0 145.5-41.5T1774 156q0-80-57-127t-162-47q-111 0-180 51.5T1302 175h129q1-44 33.5-69.5T1551 80q48 0 74.5 21t26.5 56q0 42-29.5 61.5T1545 238h-37q-55 0-103.5 18.5T1333 319H906V203q0-46 21-74t62-28q40 0 62 25.5t22 67.5v13h124v-19q0-91-54.5-144T991-9Q889-9 833.5 51.5T778 209v110q0 48-30.5 80T668 431q-56 0-83.5-37.5T557 301V0H433v162q-23-40-65-62.5T268 77q-63 0-110 29t-73 82-26 122 26.5 121.5 75 81.5T273 542q56 0 96-21.5t64-59.5v171H-21v108h1854V632h-122V449h-178q-37 0-62-13.5zM979.5 454q32.5 38 32.5 102v76H557V453q21 36 59.5 56.5T708 530q63 0 106.5-32t63.5-86q69 4 101.5 42zm401 57q49.5 29 118.5 29h88v92h-445v-76q0-77-36-132h214q11 58 60.5 87zm-1003-308q27.5 18 41.5 46.5t14 59.5q0 50-31.5 86.5T312 432q-52 0-87-34t-35-89q0-56 34-90t87-34q39 0 66.5 18z"/><glyph glyph-name="dvK_S_TA" horiz-adv-x="1933" d="M1953 632h-110V0h-130v383h-133q-74 0-117-36t-43-103q0-66 38-103.5t111-37.5h20V2h-40q-116 0-188 62t-72 183q0 37 8 72H905V203q0-46 21-74t63-28q39 0 61 26t22 67v13h124q1-8 1-19 0-91-55-144T991-9Q889-9 833 51.5T777 209v126q-5 42-34.5 69T668 431q-56 0-83.5-37.5T557 301V0H433v162q-23-40-65-62.5T268 77q-63 0-110 29t-73 82-26 122 26.5 121.5 75 81.5T273 542q56 0 96-21.5t64-59.5v171H-21v108h1974V632zM979.5 454.5Q1012 492 1012 556v76H557V453q21 36 59.5 56.5T708 530q63 0 106.5-32t63.5-86q69 5 101.5 42.5zM1713 632h-573v-76q0-76-35-132h253q38 35 93.5 52.5T1574 494h139v138zM377.5 203q27.5 18 41.5 46.5t14 59.5q0 50-31.5 86.5T312 432q-52 0-87-34t-35-89q0-56 34-90t87-34q39 0 66.5 18z"/><glyph glyph-name="dvK_S_P_RA" horiz-adv-x="1891" d="M1910 632h-111V0h-128v246l-11-13-220-254h-140l188 202q-67 7-111 43t-65 95H905V203q0-46 21-74t63-28q39 0 61 26t22 67v13h124q1-8 1-19 0-91-55-144T991-9Q889-9 833 51.5T777 209v126q-5 42-34.5 69T668 431q-56 0-83.5-37.5T557 301V0H433v162q-23-40-65-62.5T268 77q-63 0-110 29t-73 82-26 122 26.5 121.5 75 81.5T273 542q56 0 96-21.5t64-59.5v171H-21v108h1931V632zM979.5 454.5Q1012 492 1012 556v76H557V453q21 36 59.5 56.5T708 530q63 0 106.5-32t63.5-86q69 5 101.5 42.5zM1295 424v208h-155v-76q0-76-35-132h190zm376 208h-246V428q0-68 30.5-106.5T1548 283q58 0 90.5 37.5T1671 414v218zM377.5 203q27.5 18 41.5 46.5t14 59.5q0 50-31.5 86.5T312 432q-52 0-87-34t-35-89q0-56 34-90t87-34q39 0 66.5 18z"/><glyph glyph-name="dvK_S_P_LA" horiz-adv-x="2492" d="M2297 632V517q61-23 97.5-80.5T2431 295q0-73-29-130t-85.5-89T2180 44q-8 0-34 2v113l27-2q59 0 93 37t34 99q0 55-27.5 90t-77.5 35q-53 0-79.5-39.5T2089 275v-21h-108v21q0 63-26 103t-77 40q-52 0-80-34.5t-28-90.5q0-62 34-99t93-37l27 2V46q-26-2-34-2-94 0-155.5 44.5T1651 209q-53-35-125-35-82 0-136.5 38.5T1312 319H906V203q0-46 21-74t62-28q40 0 62 25.5t22 67.5v13h124v-19q0-91-54.5-144T991-9Q889-9 833.5 51.5T778 209v110q0 48-30.5 80T668 431q-56 0-83.5-37.5T557 301V0H433v162q-23-40-65-62.5T268 77q-63 0-110 29t-73 82-26 122 26.5 121.5 75 81.5T273 542q56 0 96-21.5t64-59.5v171H-21v108h2531V632h-213zM979.5 454q32.5 38 32.5 102v76H557V453q21 36 59.5 56.5T708 530q63 0 106.5-32t63.5-86q69 4 101.5 42zm315.5-30v208h-153v-76q0-77-36-132h189zm790.5 60q32.5 32 84.5 43v105h-745V428q0-68 28.5-106.5T1541 283q38 0 64 18.5t39 50.5q15 86 74 132.5t142 46.5q69 0 111.5-35t61.5-90h3q17 46 49.5 78zm-1708-281q27.5 18 41.5 46.5t14 59.5q0 50-31.5 86.5T312 432q-52 0-87-34t-35-89q0-56 34-90t87-34q39 0 66.5 18z"/><glyph glyph-name="dvKH_KHA" horiz-adv-x="1619" d="M1640 632h-111V0h-128v181q-45-60-131-60-12 0-32 2-35-58-92-93T1011-5q-94 0-159 40.5T759 152q-51-33-127-33-35 0-63 7-33-59-91-95T342-5Q217-5 144.5 66T72 264v137h30q67 0 102 32t35 106v93H-21v108h1661V632zM472 174q-64 56-64 151 0 63 28.5 109t79.5 70.5T632 529q76 0 129-35.5t73-96.5q74 25 74 128v107H369V522q0-100-46-153t-123-59v-61q0-64 38.5-103.5T345 106q85 0 127 68zm666-4q-30 28-46 68.5t-16 89.5q0 59 25 105.5t69.5 72.5 99.5 26q87 0 131-61v161h-364V522q0-101-45.5-153.5T869 310v-61q0-64 38.5-103.5T1014 106q84 0 124 64zm-426.5 76.5Q741 276 741 325t-29.5 78.5T632 433t-80-29.5-30-78.5 30-78.5 80-29.5 79.5 29.5zM1374 252q27 32 27 75t-26.5 74.5T1298 433q-45 0-75.5-28.5T1192 328q0-51 30-79.5t76-28.5q49 0 76 32z"/><glyph glyph-name="dvKH_TA" horiz-adv-x="1366" d="M1387 632h-111V0h-129v383h-133q-75 0-118-35.5T853 244q0-66 38.5-103.5T1003 103h19V2h-36q-89 0-150 37t-84 111q-54-31-124-31-30 0-59 6-34-59-91.5-94.5T342-5Q217-5 144.5 66T72 264v137h30q67 0 102 32t35 106v93H-21v108h1408V632zm-240 0H369V522q0-100-46-153t-123-59v-61q0-64 38.5-103.5T345 106q85 0 126 67-30 27-46.5 65.5T408 325q0 95 59.5 149.5T626 529q64 0 113-24.5t76-69.5q69 59 196 59h136v138zM711.5 246.5Q741 276 741 325t-29.5 78.5T632 433t-80-29.5-30-78.5 30-78.5 80-29.5 79.5 29.5z"/><glyph glyph-name="dvKHx_TA" horiz-adv-x="1366" d="M399-206.5Q376-229 343-229q-32 0-55 22.5T265-152q0 33 23 56t55 23q33 0 56-23t23-56q0-32-23-54.5zM1387 632h-111V0h-129v383h-133q-75 0-118-35.5T853 244q0-66 38.5-103.5T1003 103h19V2h-36q-89 0-150 37t-84 111q-54-31-124-31-30 0-59 6-34-59-91.5-94.5T342-5Q217-5 144.5 66T72 264v137h30q67 0 102 32t35 106v93H-21v108h1408V632zm-240 0H369V522q0-100-46-153t-123-59v-61q0-64 38.5-103.5T345 106q85 0 126 67-30 27-46.5 65.5T408 325q0 95 59.5 149.5T626 529q64 0 113-24.5t76-69.5q69 59 196 59h136v138zM711.5 246.5Q741 276 741 325t-29.5 78.5T632 433t-80-29.5-30-78.5 30-78.5 80-29.5 79.5 29.5z"/><glyph glyph-name="dvKH_NA" horiz-adv-x="1497" d="M1517 632h-111V0h-129v391h-151q35-48 35-115 0-59-26-102t-71.5-65T962 87q-57 0-103 23t-74 65q-27-27-66-41.5T632 119q-35 0-63 7-33-59-91-95T342-5Q217-5 144.5 66T72 264v137h30q67 0 102 32t35 106v93H-21v108h1538V632zm-240 0H369V522q0-100-46-153t-123-59v-61q0-64 38.5-103.5T345 106q85 0 127 68-64 56-64 151t59.5 149.5T626 529q62 0 109-22.5t74-63.5q58 56 159 56h309v133zM711.5 246.5Q741 276 741 325t-29.5 78.5T632 433t-80-29.5-30-78.5 30-78.5 80-29.5 79.5 29.5zm318.5-23q28 27.5 28 70.5 0 42-28 69.5T959 391q-45 0-73-27t-28-71q0-43 28-70t73-27q43 0 71 27.5z"/><glyph glyph-name="dvKH_MA" horiz-adv-x="1514" d="M1535 632h-112V0h-130v355h-149v-59q0-105-50.5-162.5T946 76q-60 0-104.5 23T773 164q-56-45-141-45-35 0-63 7-33-59-91-95T342-5Q217-5 144.5 66T72 264v137h30q67 0 102 32t35 106v93H-21v108h1556V632zM472 174q-64 56-64 151t59.5 149.5T626 529q68 0 118-27t75-77q52 35 129 35h75v172H369V522q0-100-46-153t-123-59v-61q0-64 38.5-103.5T345 106q85 0 127 68zm821 458h-149V460h149v172zM711.5 246.5Q741 276 741 325t-29.5 78.5T632 433t-80-29.5-30-78.5 30-78.5 80-29.5 79.5 29.5zM1023 355h-71q-44 0-70.5-22.5T855 270q0-39 23.5-62t60.5-23q41 0 62.5 28t21.5 76v66z"/><glyph glyph-name="dvKHx_MA" horiz-adv-x="1514" d="M377-201.5Q354-224 321-224q-32 0-55 22.5T243-147q0 33 23 56t55 23q33 0 56-23t23-56q0-32-23-54.5zM1535 632h-112V0h-130v355h-149v-59q0-105-50.5-162.5T946 76q-60 0-104.5 23T773 164q-56-45-141-45-35 0-63 7-33-59-91-95T342-5Q217-5 144.5 66T72 264v137h30q67 0 102 32t35 106v93H-21v108h1556V632zM472 174q-64 56-64 151t59.5 149.5T626 529q68 0 118-27t75-77q52 35 129 35h75v172H369V522q0-100-46-153t-123-59v-61q0-64 38.5-103.5T345 106q85 0 127 68zm821 458h-149V460h149v172zM711.5 246.5Q741 276 741 325t-29.5 78.5T632 433t-80-29.5-30-78.5 30-78.5 80-29.5 79.5 29.5zM1023 355h-71q-44 0-70.5-22.5T855 270q0-39 23.5-62t60.5-23q41 0 62.5 28t21.5 76v66z"/><glyph glyph-name="dvKH_YA" horiz-adv-x="1423" d="M1443 632h-110V0h-129v180q-31-41-82-64t-120-23q-138 0-201 97-28-34-71.5-52.5T632 119q-35 0-63 7-33-59-91-95T342-5Q217-5 144.5 66T72 264v137h30q67 0 102 32t35 106v93H-21v108h1464V632zM472 174q-64 56-64 151 0 63 28.5 109t79.5 70.5T632 529q68 0 118-28.5t75-79.5q43 12 59 47.5T900 569v63H369V522q0-100-46-153t-123-59v-61q0-64 38.5-103.5T345 106q85 0 127 68zm732 458h-177v-86q0-90-37-141t-126-60q2-69 45.5-106.5T1029 201q78 0 126.5 48t48.5 123v260zM711.5 246.5Q741 276 741 325t-29.5 78.5T632 433t-80-29.5-30-78.5 30-78.5 80-29.5 79.5 29.5z"/><glyph glyph-name="dvKHx_YA" horiz-adv-x="1423" d="M399-206.5Q376-229 343-229q-32 0-55 22.5T265-152q0 33 23 56t55 23q33 0 56-23t23-56q0-32-23-54.5zM1443 632h-110V0h-129v180q-31-41-82-64t-120-23q-138 0-201 97-28-34-71.5-52.5T632 119q-35 0-63 7-33-59-91-95T342-5Q217-5 144.5 66T72 264v137h30q67 0 102 32t35 106v93H-21v108h1464V632zM472 174q-64 56-64 151 0 63 28.5 109t79.5 70.5T632 529q68 0 118-28.5t75-79.5q43 12 59 47.5T900 569v63H369V522q0-100-46-153t-123-59v-61q0-64 38.5-103.5T345 106q85 0 127 68zm732 458h-177v-86q0-90-37-141t-126-60q2-69 45.5-106.5T1029 201q78 0 126.5 48t48.5 123v260zM711.5 246.5Q741 276 741 325t-29.5 78.5T632 433t-80-29.5-30-78.5 30-78.5 80-29.5 79.5 29.5z"/><glyph glyph-name="dvKH_VA" horiz-adv-x="1341" d="M1361 632h-110V0h-126v158q-26-40-69-61.5T957 75q-61 0-106.5 24.5T778 169q-55-50-146-50-35 0-63 7-33-59-91-95T342-5Q217-5 144.5 66T72 264v137h30q67 0 102 32t35 106v93H-21v108h1382V632zM472 174q-64 56-64 151t59.5 149.5T626 529q106 0 162-61 28 38 70.5 58t98.5 20 99-21.5 69-60.5v168H369V522q0-100-46-153t-123-59v-61q0-64 38.5-103.5T345 106q85 0 127 68zm592.5 23q30.5 19 45.5 49t15 63v1q0 54-35 93t-99 39q-58 0-95.5-36T858 311q0-60 37-96.5t96-36.5q43 0 73.5 19zm-353 49.5Q741 276 741 325t-29.5 78.5T632 433t-80-29.5-30-78.5 30-78.5 80-29.5 79.5 29.5z"/><glyph glyph-name="dvKHx_VA" horiz-adv-x="1341" d="M399-206.5Q376-229 343-229q-32 0-55 22.5T265-152q0 33 23 56t55 23q33 0 56-23t23-56q0-32-23-54.5zM1361 632h-110V0h-126v158q-26-40-69-61.5T957 75q-61 0-106.5 24.5T778 169q-55-50-146-50-35 0-63 7-33-59-91-95T342-5Q217-5 144.5 66T72 264v137h30q67 0 102 32t35 106v93H-21v108h1382V632zM472 174q-64 56-64 151t59.5 149.5T626 529q106 0 162-61 28 38 70.5 58t98.5 20 99-21.5 69-60.5v168H369V522q0-100-46-153t-123-59v-61q0-64 38.5-103.5T345 106q85 0 127 68zm592.5 23q30.5 19 45.5 49t15 63v1q0 54-35 93t-99 39q-58 0-95.5-36T858 311q0-60 37-96.5t96-36.5q43 0 73.5 19zm-353 49.5Q741 276 741 325t-29.5 78.5T632 433t-80-29.5-30-78.5 30-78.5 80-29.5 79.5 29.5z"/><glyph glyph-name="dvKH_SHA" horiz-adv-x="1493" d="M858 299v-85q0-49 23.5-79.5T955 104q42 0 66 27.5t24 73.5v14h125l1-16q0-99-57-155T958-8q-86 0-143 39t-76 112q-48-24-111-24-30 0-59 6-34-59-91.5-94.5T342-5Q217-5 144.5 66T72 264v137h30q67 0 102 32t35 106v93H-21v108h914q30 9 67 9 100 0 160.5-57.5T1181 530q0-113-74-172t-190-59h-59zm655 441V630h-110V0h-131v740h241zM471 173q-30 27-46.5 65.5T408 325q0 95 59.5 149.5T626 529q74 0 127.5-31.5T829 408h41q78 0 129 31.5t51 98.5q0 46-24.5 72.5T957 637q-19 0-34-5H369V522q0-100-46-153t-123-59v-61q0-64 38.5-103.5T345 106q85 0 126 67zm240.5 73.5Q741 276 741 325t-29.5 78.5T632 433t-80-29.5-30-78.5 30-78.5 80-29.5 79.5 29.5z"/><glyph glyph-name="dvKHx_SHA" horiz-adv-x="1493" d="M858 299v-85q0-49 23.5-79.5T955 104q42 0 66 27.5t24 73.5v14h125l1-16q0-99-57-155T958-8q-86 0-143 39t-76 112q-48-24-111-24-30 0-59 6-34-59-91.5-94.5T342-5Q217-5 144.5 66T72 264v137h30q67 0 102 32t35 106v93H-21v108h914q30 9 67 9 100 0 160.5-57.5T1181 530q0-113-74-172t-190-59h-59zm655 441V630h-110V0h-131v740h241zM471 173q-30 27-46.5 65.5T408 325q0 95 59.5 149.5T626 529q74 0 127.5-31.5T829 408h41q78 0 129 31.5t51 98.5q0 46-24.5 72.5T957 637q-19 0-34-5H369V522q0-100-46-153t-123-59v-61q0-64 38.5-103.5T345 106q85 0 126 67zm240.5 73.5Q741 276 741 325t-29.5 78.5T632 433t-80-29.5-30-78.5 30-78.5 80-29.5 79.5 29.5zM399-206.5Q376-229 343-229q-32 0-55 22.5T265-152q0 33 23 56t55 23q33 0 56-23t23-56q0-32-23-54.5z"/><glyph glyph-name="dvKHx_SA" horiz-adv-x="1498" d="M1519 632h-110V0h-130v319H873V203q0-46 20.5-74t62.5-28q39 0 61 26t22 67v13h124q1-8 1-19 0-91-54.5-144T958-9q-85 0-138.5 43T750 149q-51-30-122-30-30 0-59 6-34-59-91.5-94.5T342-5Q217-5 144.5 66T72 264v137h30q67 0 102 32t35 106v93H-21v108h1540V632zM942.5 449.5Q979 488 979 556v76H369V522q0-100-46-153t-123-59v-61q0-64 38.5-103.5T345 106q85 0 126 67-30 27-46.5 65.5T408 325q0 95 59.5 149.5T626 529q73 0 126-31t75-87q79 0 115.5 38.5zM1279 632h-171v-76q0-77-36-132h207v208zM711.5 246.5Q741 276 741 325t-29.5 78.5T632 433t-80-29.5-30-78.5 30-78.5 80-29.5 79.5 29.5zM399-96q23-23 23-56 0-32-23-54.5T343-229q-32 0-55 22.5T265-152q0 33 23 56t55 23q33 0 56-23z"/><glyph glyph-name="dvG_GA" horiz-adv-x="1269" d="M1291 632h-111V0h-129v632H906V390q0-89-47-144.5T716 190q-93 0-143.5 51T522 383q0 21 1 31h125v-31q0-36 15.5-59.5T713 300q63 0 63 84v248H424V390q0-89-47-144.5T234 190q-93 0-143.5 51T40 383q0 21 1 31h125v-31q0-36 15.5-59.5T231 300q63 0 63 84v248H-21v108h1312V632z"/><glyph glyph-name="dvG_GHA" horiz-adv-x="1173" d="M1194 632h-110V0H954v189q-31-44-81-67.5T761 98q-96 0-157.5 48T542 281q0 58 34 97t83 50v3q-47 11-75 45.5T556 574v58H424V390q0-89-47-144.5T234 190q-93 0-143.5 51T40 383q0 21 1 31h125v-31q0-36 15.5-59.5T231 300q63 0 63 84v248H-21v108h1215V632zm-240 0H685v-52q0-47 25.5-72t82.5-25h42V379h-52q-55 0-82.5-23.5T673 294q0-44 33-67t86-23q45 0 82 19t58.5 54.5T954 358v274z"/></font>
</defs>
</svg>
